<?xml version="1.0" encoding="utf-8" standalone="no"?>
<!DOCTYPE svg PUBLIC "-//W3C//DTD SVG 1.1//EN"
  "http://www.w3.org/Graphics/SVG/1.1/DTD/svg11.dtd">
<svg xmlns:xlink="http://www.w3.org/1999/xlink" width="1296pt" height="331.2pt" viewBox="0 0 1296 331.2" xmlns="http://www.w3.org/2000/svg" version="1.1">
 <metadata>
  <rdf:RDF xmlns:dc="http://purl.org/dc/elements/1.1/" xmlns:cc="http://creativecommons.org/ns#" xmlns:rdf="http://www.w3.org/1999/02/22-rdf-syntax-ns#">
   <cc:Work>
    <dc:type rdf:resource="http://purl.org/dc/dcmitype/StillImage"/>
    <dc:date>2026-06-30T16:14:27.757915</dc:date>
    <dc:format>image/svg+xml</dc:format>
    <dc:creator>
     <cc:Agent>
      <dc:title>Matplotlib v3.11.0, https://matplotlib.org/</dc:title>
     </cc:Agent>
    </dc:creator>
   </cc:Work>
  </rdf:RDF>
 </metadata>
 <defs>
  <style type="text/css">*{stroke-linejoin: round; stroke-linecap: butt}</style>
 </defs>
 <g id="figure_1">
  <g id="patch_1">
   <path d="M 0 331.2 
L 1296 331.2 
L 1296 0 
L 0 0 
z
" style="fill: #ffffff"/>
  </g>
  <g id="axes_1">
   <g id="patch_2">
    <path d="M 64.522344 303.077656 
L 333.961758 303.077656 
L 333.961758 75.698813 
L 64.522344 75.698813 
z
" style="fill: #ffffff"/>
   </g>
   <g id="patch_3">
    <path d="M 76.76959 303.077656 
L 185.634 303.077656 
L 185.634 86.526376 
L 76.76959 86.526376 
z
" clip-path="url(#p0d77e11a04)" style="fill: #ea580c"/>
   </g>
   <g id="patch_4">
    <path d="M 212.850102 303.077656 
L 321.714512 303.077656 
L 321.714512 229.89489 
L 212.850102 229.89489 
z
" clip-path="url(#p0d77e11a04)" style="fill: #059669"/>
   </g>
   <g id="matplotlib.axis_1">
    <g id="xtick_1">
     <g id="line2d_1">
      <defs>
       <path id="m4f46ab4cfd" d="M 0 0 
L 0 3.5 
" style="stroke: #000000; stroke-width: 0.8"/>
      </defs>
      <g>
       <use xlink:href="#m4f46ab4cfd" x="131.201795" y="303.077656" style="stroke: #000000; stroke-width: 0.8"/>
      </g>
     </g>
     <g id="text_1">
      <!-- naive -->
      <g transform="translate(117.543982 317.676094) scale(0.1 -0.1)">
       <defs>
        <path id="DejaVuSans-51" d="M 3513 2113 
L 3513 0 
L 2938 0 
L 2938 2094 
Q 2938 2591 2744 2837 
Q 2550 3084 2163 3084 
Q 1697 3084 1428 2787 
Q 1159 2491 1159 1978 
L 1159 0 
L 581 0 
L 581 3500 
L 1159 3500 
L 1159 2956 
Q 1366 3272 1645 3428 
Q 1925 3584 2291 3584 
Q 2894 3584 3203 3211 
Q 3513 2838 3513 2113 
z
" transform="scale(0.015625)"/>
        <path id="DejaVuSans-44" d="M 2194 1759 
Q 1497 1759 1228 1600 
Q 959 1441 959 1056 
Q 959 750 1161 570 
Q 1363 391 1709 391 
Q 2188 391 2477 730 
Q 2766 1069 2766 1631 
L 2766 1759 
L 2194 1759 
z
M 3341 1997 
L 3341 0 
L 2766 0 
L 2766 531 
Q 2569 213 2275 61 
Q 1981 -91 1556 -91 
Q 1019 -91 701 211 
Q 384 513 384 1019 
Q 384 1609 779 1909 
Q 1175 2209 1959 2209 
L 2766 2209 
L 2766 2266 
Q 2766 2663 2505 2880 
Q 2244 3097 1772 3097 
Q 1472 3097 1187 3025 
Q 903 2953 641 2809 
L 641 3341 
Q 956 3463 1253 3523 
Q 1550 3584 1831 3584 
Q 2591 3584 2966 3190 
Q 3341 2797 3341 1997 
z
" transform="scale(0.015625)"/>
        <path id="DejaVuSans-4c" d="M 603 3500 
L 1178 3500 
L 1178 0 
L 603 0 
L 603 3500 
z
M 603 4863 
L 1178 4863 
L 1178 4134 
L 603 4134 
L 603 4863 
z
" transform="scale(0.015625)"/>
        <path id="DejaVuSans-59" d="M 191 3500 
L 800 3500 
L 1894 563 
L 2988 3500 
L 3597 3500 
L 2284 0 
L 1503 0 
L 191 3500 
z
" transform="scale(0.015625)"/>
        <path id="DejaVuSans-48" d="M 3597 1894 
L 3597 1613 
L 953 1613 
Q 991 1019 1311 708 
Q 1631 397 2203 397 
Q 2534 397 2845 478 
Q 3156 559 3463 722 
L 3463 178 
Q 3153 47 2828 -22 
Q 2503 -91 2169 -91 
Q 1331 -91 842 396 
Q 353 884 353 1716 
Q 353 2575 817 3079 
Q 1281 3584 2069 3584 
Q 2775 3584 3186 3129 
Q 3597 2675 3597 1894 
z
M 3022 2063 
Q 3016 2534 2758 2815 
Q 2500 3097 2075 3097 
Q 1594 3097 1305 2825 
Q 1016 2553 972 2059 
L 3022 2063 
z
" transform="scale(0.015625)"/>
       </defs>
       <use xlink:href="#DejaVuSans-51"/>
       <use xlink:href="#DejaVuSans-44" transform="translate(63.375 0)"/>
       <use xlink:href="#DejaVuSans-4c" transform="translate(124.65625 0)"/>
       <use xlink:href="#DejaVuSans-59" transform="translate(152.4375 0)"/>
       <use xlink:href="#DejaVuSans-48" transform="translate(211.625 0)"/>
      </g>
     </g>
    </g>
    <g id="xtick_2">
     <g id="line2d_2">
      <g>
       <use xlink:href="#m4f46ab4cfd" x="267.282307" y="303.077656" style="stroke: #000000; stroke-width: 0.8"/>
      </g>
     </g>
     <g id="text_2">
      <!-- optimized -->
      <g transform="translate(242.565119 317.676094) scale(0.1 -0.1)">
       <defs>
        <path id="DejaVuSans-52" d="M 1959 3097 
Q 1497 3097 1228 2736 
Q 959 2375 959 1747 
Q 959 1119 1226 758 
Q 1494 397 1959 397 
Q 2419 397 2687 759 
Q 2956 1122 2956 1747 
Q 2956 2369 2687 2733 
Q 2419 3097 1959 3097 
z
M 1959 3584 
Q 2709 3584 3137 3096 
Q 3566 2609 3566 1747 
Q 3566 888 3137 398 
Q 2709 -91 1959 -91 
Q 1206 -91 779 398 
Q 353 888 353 1747 
Q 353 2609 779 3096 
Q 1206 3584 1959 3584 
z
" transform="scale(0.015625)"/>
        <path id="DejaVuSans-53" d="M 1159 525 
L 1159 -1331 
L 581 -1331 
L 581 3500 
L 1159 3500 
L 1159 2969 
Q 1341 3281 1617 3432 
Q 1894 3584 2278 3584 
Q 2916 3584 3314 3078 
Q 3713 2572 3713 1747 
Q 3713 922 3314 415 
Q 2916 -91 2278 -91 
Q 1894 -91 1617 61 
Q 1341 213 1159 525 
z
M 3116 1747 
Q 3116 2381 2855 2742 
Q 2594 3103 2138 3103 
Q 1681 3103 1420 2742 
Q 1159 2381 1159 1747 
Q 1159 1113 1420 752 
Q 1681 391 2138 391 
Q 2594 391 2855 752 
Q 3116 1113 3116 1747 
z
" transform="scale(0.015625)"/>
        <path id="DejaVuSans-57" d="M 1172 4494 
L 1172 3500 
L 2356 3500 
L 2356 3053 
L 1172 3053 
L 1172 1153 
Q 1172 725 1289 603 
Q 1406 481 1766 481 
L 2356 481 
L 2356 0 
L 1766 0 
Q 1100 0 847 248 
Q 594 497 594 1153 
L 594 3053 
L 172 3053 
L 172 3500 
L 594 3500 
L 594 4494 
L 1172 4494 
z
" transform="scale(0.015625)"/>
        <path id="DejaVuSans-50" d="M 3328 2828 
Q 3544 3216 3844 3400 
Q 4144 3584 4550 3584 
Q 5097 3584 5394 3201 
Q 5691 2819 5691 2113 
L 5691 0 
L 5113 0 
L 5113 2094 
Q 5113 2597 4934 2840 
Q 4756 3084 4391 3084 
Q 3944 3084 3684 2787 
Q 3425 2491 3425 1978 
L 3425 0 
L 2847 0 
L 2847 2094 
Q 2847 2600 2669 2842 
Q 2491 3084 2119 3084 
Q 1678 3084 1418 2786 
Q 1159 2488 1159 1978 
L 1159 0 
L 581 0 
L 581 3500 
L 1159 3500 
L 1159 2956 
Q 1356 3278 1631 3431 
Q 1906 3584 2284 3584 
Q 2666 3584 2933 3390 
Q 3200 3197 3328 2828 
z
" transform="scale(0.015625)"/>
        <path id="DejaVuSans-5d" d="M 353 3500 
L 3084 3500 
L 3084 2975 
L 922 459 
L 3084 459 
L 3084 0 
L 275 0 
L 275 525 
L 2438 3041 
L 353 3041 
L 353 3500 
z
" transform="scale(0.015625)"/>
        <path id="DejaVuSans-47" d="M 2906 2969 
L 2906 4863 
L 3481 4863 
L 3481 0 
L 2906 0 
L 2906 525 
Q 2725 213 2448 61 
Q 2172 -91 1784 -91 
Q 1150 -91 751 415 
Q 353 922 353 1747 
Q 353 2572 751 3078 
Q 1150 3584 1784 3584 
Q 2172 3584 2448 3432 
Q 2725 3281 2906 2969 
z
M 947 1747 
Q 947 1113 1208 752 
Q 1469 391 1925 391 
Q 2381 391 2643 752 
Q 2906 1113 2906 1747 
Q 2906 2381 2643 2742 
Q 2381 3103 1925 3103 
Q 1469 3103 1208 2742 
Q 947 2381 947 1747 
z
" transform="scale(0.015625)"/>
       </defs>
       <use xlink:href="#DejaVuSans-52"/>
       <use xlink:href="#DejaVuSans-53" transform="translate(61.1875 0)"/>
       <use xlink:href="#DejaVuSans-57" transform="translate(124.671875 0)"/>
       <use xlink:href="#DejaVuSans-4c" transform="translate(163.875 0)"/>
       <use xlink:href="#DejaVuSans-50" transform="translate(191.65625 0)"/>
       <use xlink:href="#DejaVuSans-4c" transform="translate(289.0625 0)"/>
       <use xlink:href="#DejaVuSans-5d" transform="translate(316.84375 0)"/>
       <use xlink:href="#DejaVuSans-48" transform="translate(369.328125 0)"/>
       <use xlink:href="#DejaVuSans-47" transform="translate(430.859375 0)"/>
      </g>
     </g>
    </g>
   </g>
   <g id="matplotlib.axis_2">
    <g id="ytick_1">
     <g id="line2d_3">
      <path d="M 64.522344 303.077656 
L 333.961758 303.077656 
" clip-path="url(#p0d77e11a04)" style="fill: none; stroke: #b0b0b0; stroke-opacity: 0.3; stroke-width: 0.8; stroke-linecap: square"/>
     </g>
     <g id="line2d_4">
      <defs>
       <path id="m1174b5a927" d="M 0 0 
L -3.5 0 
" style="stroke: #000000; stroke-width: 0.8"/>
      </defs>
      <g>
       <use xlink:href="#m1174b5a927" x="64.522344" y="303.077656" style="stroke: #000000; stroke-width: 0.8"/>
      </g>
     </g>
     <g id="text_3">
      <!-- 0 -->
      <g transform="translate(51.159844 306.876484) scale(0.1 -0.1)">
       <defs>
        <path id="DejaVuSans-13" d="M 2034 4250 
Q 1547 4250 1301 3770 
Q 1056 3291 1056 2328 
Q 1056 1369 1301 889 
Q 1547 409 2034 409 
Q 2525 409 2770 889 
Q 3016 1369 3016 2328 
Q 3016 3291 2770 3770 
Q 2525 4250 2034 4250 
z
M 2034 4750 
Q 2819 4750 3233 4129 
Q 3647 3509 3647 2328 
Q 3647 1150 3233 529 
Q 2819 -91 2034 -91 
Q 1250 -91 836 529 
Q 422 1150 422 2328 
Q 422 3509 836 4129 
Q 1250 4750 2034 4750 
z
" transform="scale(0.015625)"/>
       </defs>
       <use xlink:href="#DejaVuSans-13"/>
      </g>
     </g>
    </g>
    <g id="ytick_2">
     <g id="line2d_5">
      <path d="M 64.522344 255.201975 
L 333.961758 255.201975 
" clip-path="url(#p0d77e11a04)" style="fill: none; stroke: #b0b0b0; stroke-opacity: 0.3; stroke-width: 0.8; stroke-linecap: square"/>
     </g>
     <g id="line2d_6">
      <g>
       <use xlink:href="#m1174b5a927" x="64.522344" y="255.201975" style="stroke: #000000; stroke-width: 0.8"/>
      </g>
     </g>
     <g id="text_4">
      <!-- 5000 -->
      <g transform="translate(32.072344 259.000803) scale(0.1 -0.1)">
       <defs>
        <path id="DejaVuSans-18" d="M 691 4666 
L 3169 4666 
L 3169 4134 
L 1269 4134 
L 1269 2991 
Q 1406 3038 1543 3061 
Q 1681 3084 1819 3084 
Q 2600 3084 3056 2656 
Q 3513 2228 3513 1497 
Q 3513 744 3044 326 
Q 2575 -91 1722 -91 
Q 1428 -91 1123 -41 
Q 819 9 494 109 
L 494 744 
Q 775 591 1075 516 
Q 1375 441 1709 441 
Q 2250 441 2565 725 
Q 2881 1009 2881 1497 
Q 2881 1984 2565 2268 
Q 2250 2553 1709 2553 
Q 1456 2553 1204 2497 
Q 953 2441 691 2322 
L 691 4666 
z
" transform="scale(0.015625)"/>
       </defs>
       <use xlink:href="#DejaVuSans-18"/>
       <use xlink:href="#DejaVuSans-13" transform="translate(63.625 0)"/>
       <use xlink:href="#DejaVuSans-13" transform="translate(127.25 0)"/>
       <use xlink:href="#DejaVuSans-13" transform="translate(190.875 0)"/>
      </g>
     </g>
    </g>
    <g id="ytick_3">
     <g id="line2d_7">
      <path d="M 64.522344 207.326294 
L 333.961758 207.326294 
" clip-path="url(#p0d77e11a04)" style="fill: none; stroke: #b0b0b0; stroke-opacity: 0.3; stroke-width: 0.8; stroke-linecap: square"/>
     </g>
     <g id="line2d_8">
      <g>
       <use xlink:href="#m1174b5a927" x="64.522344" y="207.326294" style="stroke: #000000; stroke-width: 0.8"/>
      </g>
     </g>
     <g id="text_5">
      <!-- 10000 -->
      <g transform="translate(25.709844 211.125123) scale(0.1 -0.1)">
       <defs>
        <path id="DejaVuSans-14" d="M 794 531 
L 1825 531 
L 1825 4091 
L 703 3866 
L 703 4441 
L 1819 4666 
L 2450 4666 
L 2450 531 
L 3481 531 
L 3481 0 
L 794 0 
L 794 531 
z
" transform="scale(0.015625)"/>
       </defs>
       <use xlink:href="#DejaVuSans-14"/>
       <use xlink:href="#DejaVuSans-13" transform="translate(63.625 0)"/>
       <use xlink:href="#DejaVuSans-13" transform="translate(127.25 0)"/>
       <use xlink:href="#DejaVuSans-13" transform="translate(190.875 0)"/>
       <use xlink:href="#DejaVuSans-13" transform="translate(254.5 0)"/>
      </g>
     </g>
    </g>
    <g id="ytick_4">
     <g id="line2d_9">
      <path d="M 64.522344 159.450614 
L 333.961758 159.450614 
" clip-path="url(#p0d77e11a04)" style="fill: none; stroke: #b0b0b0; stroke-opacity: 0.3; stroke-width: 0.8; stroke-linecap: square"/>
     </g>
     <g id="line2d_10">
      <g>
       <use xlink:href="#m1174b5a927" x="64.522344" y="159.450614" style="stroke: #000000; stroke-width: 0.8"/>
      </g>
     </g>
     <g id="text_6">
      <!-- 15000 -->
      <g transform="translate(25.709844 163.249442) scale(0.1 -0.1)">
       <use xlink:href="#DejaVuSans-14"/>
       <use xlink:href="#DejaVuSans-18" transform="translate(63.625 0)"/>
       <use xlink:href="#DejaVuSans-13" transform="translate(127.25 0)"/>
       <use xlink:href="#DejaVuSans-13" transform="translate(190.875 0)"/>
       <use xlink:href="#DejaVuSans-13" transform="translate(254.5 0)"/>
      </g>
     </g>
    </g>
    <g id="ytick_5">
     <g id="line2d_11">
      <path d="M 64.522344 111.574933 
L 333.961758 111.574933 
" clip-path="url(#p0d77e11a04)" style="fill: none; stroke: #b0b0b0; stroke-opacity: 0.3; stroke-width: 0.8; stroke-linecap: square"/>
     </g>
     <g id="line2d_12">
      <g>
       <use xlink:href="#m1174b5a927" x="64.522344" y="111.574933" style="stroke: #000000; stroke-width: 0.8"/>
      </g>
     </g>
     <g id="text_7">
      <!-- 20000 -->
      <g transform="translate(25.709844 115.373761) scale(0.1 -0.1)">
       <defs>
        <path id="DejaVuSans-15" d="M 1228 531 
L 3431 531 
L 3431 0 
L 469 0 
L 469 531 
Q 828 903 1448 1529 
Q 2069 2156 2228 2338 
Q 2531 2678 2651 2914 
Q 2772 3150 2772 3378 
Q 2772 3750 2511 3984 
Q 2250 4219 1831 4219 
Q 1534 4219 1204 4116 
Q 875 4013 500 3803 
L 500 4441 
Q 881 4594 1212 4672 
Q 1544 4750 1819 4750 
Q 2544 4750 2975 4387 
Q 3406 4025 3406 3419 
Q 3406 3131 3298 2873 
Q 3191 2616 2906 2266 
Q 2828 2175 2409 1742 
Q 1991 1309 1228 531 
z
" transform="scale(0.015625)"/>
       </defs>
       <use xlink:href="#DejaVuSans-15"/>
       <use xlink:href="#DejaVuSans-13" transform="translate(63.625 0)"/>
       <use xlink:href="#DejaVuSans-13" transform="translate(127.25 0)"/>
       <use xlink:href="#DejaVuSans-13" transform="translate(190.875 0)"/>
       <use xlink:href="#DejaVuSans-13" transform="translate(254.5 0)"/>
      </g>
     </g>
    </g>
    <g id="text_8">
     <!-- tokens -->
     <g transform="translate(19.3075 205.974953) rotate(-90) scale(0.1 -0.1)">
      <defs>
       <path id="DejaVuSans-4e" d="M 581 4863 
L 1159 4863 
L 1159 1991 
L 2875 3500 
L 3609 3500 
L 1753 1863 
L 3688 0 
L 2938 0 
L 1159 1709 
L 1159 0 
L 581 0 
L 581 4863 
z
" transform="scale(0.015625)"/>
       <path id="DejaVuSans-56" d="M 2834 3397 
L 2834 2853 
Q 2591 2978 2328 3040 
Q 2066 3103 1784 3103 
Q 1356 3103 1142 2972 
Q 928 2841 928 2578 
Q 928 2378 1081 2264 
Q 1234 2150 1697 2047 
L 1894 2003 
Q 2506 1872 2764 1633 
Q 3022 1394 3022 966 
Q 3022 478 2636 193 
Q 2250 -91 1575 -91 
Q 1294 -91 989 -36 
Q 684 19 347 128 
L 347 722 
Q 666 556 975 473 
Q 1284 391 1588 391 
Q 1994 391 2212 530 
Q 2431 669 2431 922 
Q 2431 1156 2273 1281 
Q 2116 1406 1581 1522 
L 1381 1569 
Q 847 1681 609 1914 
Q 372 2147 372 2553 
Q 372 3047 722 3315 
Q 1072 3584 1716 3584 
Q 2034 3584 2315 3537 
Q 2597 3491 2834 3397 
z
" transform="scale(0.015625)"/>
      </defs>
      <use xlink:href="#DejaVuSans-57"/>
      <use xlink:href="#DejaVuSans-52" transform="translate(39.203125 0)"/>
      <use xlink:href="#DejaVuSans-4e" transform="translate(100.390625 0)"/>
      <use xlink:href="#DejaVuSans-48" transform="translate(154.734375 0)"/>
      <use xlink:href="#DejaVuSans-51" transform="translate(216.265625 0)"/>
      <use xlink:href="#DejaVuSans-56" transform="translate(279.640625 0)"/>
     </g>
    </g>
   </g>
   <g id="patch_5">
    <path d="M 64.522344 303.077656 
L 64.522344 75.698813 
" style="fill: none; stroke: #000000; stroke-width: 0.8; stroke-linejoin: miter; stroke-linecap: square"/>
   </g>
   <g id="patch_6">
    <path d="M 333.961758 303.077656 
L 333.961758 75.698813 
" style="fill: none; stroke: #000000; stroke-width: 0.8; stroke-linejoin: miter; stroke-linecap: square"/>
   </g>
   <g id="patch_7">
    <path d="M 64.522344 303.077656 
L 333.961758 303.077656 
" style="fill: none; stroke: #000000; stroke-width: 0.8; stroke-linejoin: miter; stroke-linecap: square"/>
   </g>
   <g id="patch_8">
    <path d="M 64.522344 75.698813 
L 333.961758 75.698813 
" style="fill: none; stroke: #000000; stroke-width: 0.8; stroke-linejoin: miter; stroke-linecap: square"/>
   </g>
   <g id="text_9">
    <!-- 22,616 -->
    <g transform="translate(113.706482 84.124033) scale(0.1 -0.1)">
     <defs>
      <path id="DejaVuSans-f" d="M 750 794 
L 1409 794 
L 1409 256 
L 897 -744 
L 494 -744 
L 750 256 
L 750 794 
z
" transform="scale(0.015625)"/>
      <path id="DejaVuSans-19" d="M 2113 2584 
Q 1688 2584 1439 2293 
Q 1191 2003 1191 1497 
Q 1191 994 1439 701 
Q 1688 409 2113 409 
Q 2538 409 2786 701 
Q 3034 994 3034 1497 
Q 3034 2003 2786 2293 
Q 2538 2584 2113 2584 
z
M 3366 4563 
L 3366 3988 
Q 3128 4100 2886 4159 
Q 2644 4219 2406 4219 
Q 1781 4219 1451 3797 
Q 1122 3375 1075 2522 
Q 1259 2794 1537 2939 
Q 1816 3084 2150 3084 
Q 2853 3084 3261 2657 
Q 3669 2231 3669 1497 
Q 3669 778 3244 343 
Q 2819 -91 2113 -91 
Q 1303 -91 875 529 
Q 447 1150 447 2328 
Q 447 3434 972 4092 
Q 1497 4750 2381 4750 
Q 2619 4750 2861 4703 
Q 3103 4656 3366 4563 
z
" transform="scale(0.015625)"/>
     </defs>
     <use xlink:href="#DejaVuSans-15"/>
     <use xlink:href="#DejaVuSans-15" transform="translate(63.625 0)"/>
     <use xlink:href="#DejaVuSans-f" transform="translate(127.25 0)"/>
     <use xlink:href="#DejaVuSans-19" transform="translate(159.03125 0)"/>
     <use xlink:href="#DejaVuSans-14" transform="translate(222.65625 0)"/>
     <use xlink:href="#DejaVuSans-19" transform="translate(286.28125 0)"/>
    </g>
   </g>
   <g id="text_10">
    <!-- 7,643 -->
    <g transform="translate(252.968244 227.492547) scale(0.1 -0.1)">
     <defs>
      <path id="DejaVuSans-1a" d="M 525 4666 
L 3525 4666 
L 3525 4397 
L 1831 0 
L 1172 0 
L 2766 4134 
L 525 4134 
L 525 4666 
z
" transform="scale(0.015625)"/>
      <path id="DejaVuSans-17" d="M 2419 4116 
L 825 1625 
L 2419 1625 
L 2419 4116 
z
M 2253 4666 
L 3047 4666 
L 3047 1625 
L 3713 1625 
L 3713 1100 
L 3047 1100 
L 3047 0 
L 2419 0 
L 2419 1100 
L 313 1100 
L 313 1709 
L 2253 4666 
z
" transform="scale(0.015625)"/>
      <path id="DejaVuSans-16" d="M 2597 2516 
Q 3050 2419 3304 2112 
Q 3559 1806 3559 1356 
Q 3559 666 3084 287 
Q 2609 -91 1734 -91 
Q 1441 -91 1130 -33 
Q 819 25 488 141 
L 488 750 
Q 750 597 1062 519 
Q 1375 441 1716 441 
Q 2309 441 2620 675 
Q 2931 909 2931 1356 
Q 2931 1769 2642 2001 
Q 2353 2234 1838 2234 
L 1294 2234 
L 1294 2753 
L 1863 2753 
Q 2328 2753 2575 2939 
Q 2822 3125 2822 3475 
Q 2822 3834 2567 4026 
Q 2313 4219 1838 4219 
Q 1578 4219 1281 4162 
Q 984 4106 628 3988 
L 628 4550 
Q 988 4650 1302 4700 
Q 1616 4750 1894 4750 
Q 2613 4750 3031 4423 
Q 3450 4097 3450 3541 
Q 3450 3153 3228 2886 
Q 3006 2619 2597 2516 
z
" transform="scale(0.015625)"/>
     </defs>
     <use xlink:href="#DejaVuSans-1a"/>
     <use xlink:href="#DejaVuSans-f" transform="translate(63.625 0)"/>
     <use xlink:href="#DejaVuSans-19" transform="translate(95.40625 0)"/>
     <use xlink:href="#DejaVuSans-17" transform="translate(159.03125 0)"/>
     <use xlink:href="#DejaVuSans-16" transform="translate(222.65625 0)"/>
    </g>
   </g>
   <g id="text_11">
    <!--   -66% -->
    <g style="fill: #059669" transform="translate(267.282307 232.492547) scale(0.1 -0.1)">
     <defs>
      <path id="DejaVuSans-Bold-3" transform="scale(0.015625)"/>
      <path id="DejaVuSans-Bold-10" d="M 347 2297 
L 2309 2297 
L 2309 1388 
L 347 1388 
L 347 2297 
z
" transform="scale(0.015625)"/>
      <path id="DejaVuSans-Bold-19" d="M 2316 2303 
Q 2000 2303 1842 2098 
Q 1684 1894 1684 1484 
Q 1684 1075 1842 870 
Q 2000 666 2316 666 
Q 2634 666 2792 870 
Q 2950 1075 2950 1484 
Q 2950 1894 2792 2098 
Q 2634 2303 2316 2303 
z
M 3803 4544 
L 3803 3681 
Q 3506 3822 3243 3889 
Q 2981 3956 2731 3956 
Q 2194 3956 1894 3657 
Q 1594 3359 1544 2772 
Q 1750 2925 1990 3001 
Q 2231 3078 2516 3078 
Q 3231 3078 3670 2659 
Q 4109 2241 4109 1563 
Q 4109 813 3618 361 
Q 3128 -91 2303 -91 
Q 1394 -91 895 523 
Q 397 1138 397 2266 
Q 397 3422 980 4083 
Q 1563 4744 2578 4744 
Q 2900 4744 3203 4694 
Q 3506 4644 3803 4544 
z
" transform="scale(0.015625)"/>
      <path id="DejaVuSans-Bold-8" d="M 4959 1925 
Q 4738 1925 4616 1733 
Q 4494 1541 4494 1184 
Q 4494 825 4614 633 
Q 4734 441 4959 441 
Q 5184 441 5303 633 
Q 5422 825 5422 1184 
Q 5422 1541 5301 1733 
Q 5181 1925 4959 1925 
z
M 4959 2450 
Q 5541 2450 5875 2112 
Q 6209 1775 6209 1184 
Q 6209 594 5875 251 
Q 5541 -91 4959 -91 
Q 4378 -91 4042 251 
Q 3706 594 3706 1184 
Q 3706 1772 4042 2111 
Q 4378 2450 4959 2450 
z
M 2094 -91 
L 1403 -91 
L 4319 4750 
L 5013 4750 
L 2094 -91 
z
M 1453 4750 
Q 2034 4750 2367 4411 
Q 2700 4072 2700 3481 
Q 2700 2891 2367 2550 
Q 2034 2209 1453 2209 
Q 872 2209 539 2550 
Q 206 2891 206 3481 
Q 206 4072 539 4411 
Q 872 4750 1453 4750 
z
M 1453 4225 
Q 1228 4225 1106 4031 
Q 984 3838 984 3481 
Q 984 3122 1106 2926 
Q 1228 2731 1453 2731 
Q 1678 2731 1798 2926 
Q 1919 3122 1919 3481 
Q 1919 3838 1797 4031 
Q 1675 4225 1453 4225 
z
" transform="scale(0.015625)"/>
     </defs>
     <use xlink:href="#DejaVuSans-Bold-3"/>
     <use xlink:href="#DejaVuSans-Bold-3" transform="translate(34.8125 0)"/>
     <use xlink:href="#DejaVuSans-Bold-10" transform="translate(69.625 0)"/>
     <use xlink:href="#DejaVuSans-Bold-19" transform="translate(111.125 0)"/>
     <use xlink:href="#DejaVuSans-Bold-19" transform="translate(180.703125 0)"/>
     <use xlink:href="#DejaVuSans-Bold-8" transform="translate(250.28125 0)"/>
    </g>
   </g>
   <g id="text_12">
    <!-- Total tokens (lower = cheaper) -->
    <g transform="translate(107.146738 69.698813) scale(0.12 -0.12)">
     <defs>
      <path id="DejaVuSans-37" d="M -19 4666 
L 3928 4666 
L 3928 4134 
L 2272 4134 
L 2272 0 
L 1638 0 
L 1638 4134 
L -19 4134 
L -19 4666 
z
" transform="scale(0.015625)"/>
      <path id="DejaVuSans-4f" d="M 603 4863 
L 1178 4863 
L 1178 0 
L 603 0 
L 603 4863 
z
" transform="scale(0.015625)"/>
      <path id="DejaVuSans-3" transform="scale(0.015625)"/>
      <path id="DejaVuSans-b" d="M 1984 4856 
Q 1566 4138 1362 3434 
Q 1159 2731 1159 2009 
Q 1159 1288 1364 580 
Q 1569 -128 1984 -844 
L 1484 -844 
Q 1016 -109 783 600 
Q 550 1309 550 2009 
Q 550 2706 781 3412 
Q 1013 4119 1484 4856 
L 1984 4856 
z
" transform="scale(0.015625)"/>
      <path id="DejaVuSans-5a" d="M 269 3500 
L 844 3500 
L 1563 769 
L 2278 3500 
L 2956 3500 
L 3675 769 
L 4391 3500 
L 4966 3500 
L 4050 0 
L 3372 0 
L 2619 2869 
L 1863 0 
L 1184 0 
L 269 3500 
z
" transform="scale(0.015625)"/>
      <path id="DejaVuSans-55" d="M 2631 2963 
Q 2534 3019 2420 3045 
Q 2306 3072 2169 3072 
Q 1681 3072 1420 2755 
Q 1159 2438 1159 1844 
L 1159 0 
L 581 0 
L 581 3500 
L 1159 3500 
L 1159 2956 
Q 1341 3275 1631 3429 
Q 1922 3584 2338 3584 
Q 2397 3584 2469 3576 
Q 2541 3569 2628 3553 
L 2631 2963 
z
" transform="scale(0.015625)"/>
      <path id="DejaVuSans-20" d="M 678 2906 
L 4684 2906 
L 4684 2381 
L 678 2381 
L 678 2906 
z
M 678 1631 
L 4684 1631 
L 4684 1100 
L 678 1100 
L 678 1631 
z
" transform="scale(0.015625)"/>
      <path id="DejaVuSans-46" d="M 3122 3366 
L 3122 2828 
Q 2878 2963 2633 3030 
Q 2388 3097 2138 3097 
Q 1578 3097 1268 2742 
Q 959 2388 959 1747 
Q 959 1106 1268 751 
Q 1578 397 2138 397 
Q 2388 397 2633 464 
Q 2878 531 3122 666 
L 3122 134 
Q 2881 22 2623 -34 
Q 2366 -91 2075 -91 
Q 1284 -91 818 406 
Q 353 903 353 1747 
Q 353 2603 823 3093 
Q 1294 3584 2113 3584 
Q 2378 3584 2631 3529 
Q 2884 3475 3122 3366 
z
" transform="scale(0.015625)"/>
      <path id="DejaVuSans-4b" d="M 3513 2113 
L 3513 0 
L 2938 0 
L 2938 2094 
Q 2938 2591 2744 2837 
Q 2550 3084 2163 3084 
Q 1697 3084 1428 2787 
Q 1159 2491 1159 1978 
L 1159 0 
L 581 0 
L 581 4863 
L 1159 4863 
L 1159 2956 
Q 1366 3272 1645 3428 
Q 1925 3584 2291 3584 
Q 2894 3584 3203 3211 
Q 3513 2838 3513 2113 
z
" transform="scale(0.015625)"/>
      <path id="DejaVuSans-c" d="M 513 4856 
L 1013 4856 
Q 1481 4119 1714 3412 
Q 1947 2706 1947 2009 
Q 1947 1309 1714 600 
Q 1481 -109 1013 -844 
L 513 -844 
Q 928 -128 1133 580 
Q 1338 1288 1338 2009 
Q 1338 2731 1133 3434 
Q 928 4138 513 4856 
z
" transform="scale(0.015625)"/>
     </defs>
     <use xlink:href="#DejaVuSans-37"/>
     <use xlink:href="#DejaVuSans-52" transform="translate(44.09375 0)"/>
     <use xlink:href="#DejaVuSans-57" transform="translate(105.28125 0)"/>
     <use xlink:href="#DejaVuSans-44" transform="translate(144.484375 0)"/>
     <use xlink:href="#DejaVuSans-4f" transform="translate(205.765625 0)"/>
     <use xlink:href="#DejaVuSans-3" transform="translate(233.546875 0)"/>
     <use xlink:href="#DejaVuSans-57" transform="translate(265.328125 0)"/>
     <use xlink:href="#DejaVuSans-52" transform="translate(304.53125 0)"/>
     <use xlink:href="#DejaVuSans-4e" transform="translate(365.71875 0)"/>
     <use xlink:href="#DejaVuSans-48" transform="translate(420.0625 0)"/>
     <use xlink:href="#DejaVuSans-51" transform="translate(481.59375 0)"/>
     <use xlink:href="#DejaVuSans-56" transform="translate(544.96875 0)"/>
     <use xlink:href="#DejaVuSans-3" transform="translate(597.0625 0)"/>
     <use xlink:href="#DejaVuSans-b" transform="translate(628.84375 0)"/>
     <use xlink:href="#DejaVuSans-4f" transform="translate(667.859375 0)"/>
     <use xlink:href="#DejaVuSans-52" transform="translate(695.640625 0)"/>
     <use xlink:href="#DejaVuSans-5a" transform="translate(756.828125 0)"/>
     <use xlink:href="#DejaVuSans-48" transform="translate(838.609375 0)"/>
     <use xlink:href="#DejaVuSans-55" transform="translate(900.140625 0)"/>
     <use xlink:href="#DejaVuSans-3" transform="translate(941.25 0)"/>
     <use xlink:href="#DejaVuSans-20" transform="translate(973.03125 0)"/>
     <use xlink:href="#DejaVuSans-3" transform="translate(1056.828125 0)"/>
     <use xlink:href="#DejaVuSans-46" transform="translate(1088.609375 0)"/>
     <use xlink:href="#DejaVuSans-4b" transform="translate(1143.59375 0)"/>
     <use xlink:href="#DejaVuSans-48" transform="translate(1206.96875 0)"/>
     <use xlink:href="#DejaVuSans-44" transform="translate(1268.5 0)"/>
     <use xlink:href="#DejaVuSans-53" transform="translate(1329.78125 0)"/>
     <use xlink:href="#DejaVuSans-48" transform="translate(1393.265625 0)"/>
     <use xlink:href="#DejaVuSans-55" transform="translate(1454.796875 0)"/>
     <use xlink:href="#DejaVuSans-c" transform="translate(1495.90625 0)"/>
    </g>
   </g>
  </g>
  <g id="axes_2">
   <g id="patch_9">
    <path d="M 381.601758 303.077656 
L 651.041172 303.077656 
L 651.041172 75.698813 
L 381.601758 75.698813 
z
" style="fill: #ffffff"/>
   </g>
   <g id="patch_10">
    <path d="M 393.849004 303.077656 
L 502.713414 303.077656 
L 502.713414 86.526376 
L 393.849004 86.526376 
z
" clip-path="url(#p9f29a5483d)" style="fill: #ea580c"/>
   </g>
   <g id="patch_11">
    <path d="M 529.929516 303.077656 
L 638.793926 303.077656 
L 638.793926 138.886537 
L 529.929516 138.886537 
z
" clip-path="url(#p9f29a5483d)" style="fill: #059669"/>
   </g>
   <g id="matplotlib.axis_3">
    <g id="xtick_3">
     <g id="line2d_13">
      <g>
       <use xlink:href="#m4f46ab4cfd" x="448.281209" y="303.077656" style="stroke: #000000; stroke-width: 0.8"/>
      </g>
     </g>
     <g id="text_13">
      <!-- naive -->
      <g transform="translate(434.623396 317.676094) scale(0.1 -0.1)">
       <use xlink:href="#DejaVuSans-51"/>
       <use xlink:href="#DejaVuSans-44" transform="translate(63.375 0)"/>
       <use xlink:href="#DejaVuSans-4c" transform="translate(124.65625 0)"/>
       <use xlink:href="#DejaVuSans-59" transform="translate(152.4375 0)"/>
       <use xlink:href="#DejaVuSans-48" transform="translate(211.625 0)"/>
      </g>
     </g>
    </g>
    <g id="xtick_4">
     <g id="line2d_14">
      <g>
       <use xlink:href="#m4f46ab4cfd" x="584.361721" y="303.077656" style="stroke: #000000; stroke-width: 0.8"/>
      </g>
     </g>
     <g id="text_14">
      <!-- optimized -->
      <g transform="translate(559.644533 317.676094) scale(0.1 -0.1)">
       <use xlink:href="#DejaVuSans-52"/>
       <use xlink:href="#DejaVuSans-53" transform="translate(61.1875 0)"/>
       <use xlink:href="#DejaVuSans-57" transform="translate(124.671875 0)"/>
       <use xlink:href="#DejaVuSans-4c" transform="translate(163.875 0)"/>
       <use xlink:href="#DejaVuSans-50" transform="translate(191.65625 0)"/>
       <use xlink:href="#DejaVuSans-4c" transform="translate(289.0625 0)"/>
       <use xlink:href="#DejaVuSans-5d" transform="translate(316.84375 0)"/>
       <use xlink:href="#DejaVuSans-48" transform="translate(369.328125 0)"/>
       <use xlink:href="#DejaVuSans-47" transform="translate(430.859375 0)"/>
      </g>
     </g>
    </g>
   </g>
   <g id="matplotlib.axis_4">
    <g id="ytick_6">
     <g id="line2d_15">
      <path d="M 381.601758 303.077656 
L 651.041172 303.077656 
" clip-path="url(#p9f29a5483d)" style="fill: none; stroke: #b0b0b0; stroke-opacity: 0.3; stroke-width: 0.8; stroke-linecap: square"/>
     </g>
     <g id="line2d_16">
      <g>
       <use xlink:href="#m1174b5a927" x="381.601758" y="303.077656" style="stroke: #000000; stroke-width: 0.8"/>
      </g>
     </g>
     <g id="text_15">
      <!-- 0 -->
      <g transform="translate(368.239258 306.876484) scale(0.1 -0.1)">
       <use xlink:href="#DejaVuSans-13"/>
      </g>
     </g>
    </g>
    <g id="ytick_7">
     <g id="line2d_17">
      <path d="M 381.601758 270.75657 
L 651.041172 270.75657 
" clip-path="url(#p9f29a5483d)" style="fill: none; stroke: #b0b0b0; stroke-opacity: 0.3; stroke-width: 0.8; stroke-linecap: square"/>
     </g>
     <g id="line2d_18">
      <g>
       <use xlink:href="#m1174b5a927" x="381.601758" y="270.75657" style="stroke: #000000; stroke-width: 0.8"/>
      </g>
     </g>
     <g id="text_16">
      <!-- 5 -->
      <g transform="translate(368.239258 274.555398) scale(0.1 -0.1)">
       <use xlink:href="#DejaVuSans-18"/>
      </g>
     </g>
    </g>
    <g id="ytick_8">
     <g id="line2d_19">
      <path d="M 381.601758 238.435483 
L 651.041172 238.435483 
" clip-path="url(#p9f29a5483d)" style="fill: none; stroke: #b0b0b0; stroke-opacity: 0.3; stroke-width: 0.8; stroke-linecap: square"/>
     </g>
     <g id="line2d_20">
      <g>
       <use xlink:href="#m1174b5a927" x="381.601758" y="238.435483" style="stroke: #000000; stroke-width: 0.8"/>
      </g>
     </g>
     <g id="text_17">
      <!-- 10 -->
      <g transform="translate(361.876758 242.234311) scale(0.1 -0.1)">
       <use xlink:href="#DejaVuSans-14"/>
       <use xlink:href="#DejaVuSans-13" transform="translate(63.625 0)"/>
      </g>
     </g>
    </g>
    <g id="ytick_9">
     <g id="line2d_21">
      <path d="M 381.601758 206.114397 
L 651.041172 206.114397 
" clip-path="url(#p9f29a5483d)" style="fill: none; stroke: #b0b0b0; stroke-opacity: 0.3; stroke-width: 0.8; stroke-linecap: square"/>
     </g>
     <g id="line2d_22">
      <g>
       <use xlink:href="#m1174b5a927" x="381.601758" y="206.114397" style="stroke: #000000; stroke-width: 0.8"/>
      </g>
     </g>
     <g id="text_18">
      <!-- 15 -->
      <g transform="translate(361.876758 209.913225) scale(0.1 -0.1)">
       <use xlink:href="#DejaVuSans-14"/>
       <use xlink:href="#DejaVuSans-18" transform="translate(63.625 0)"/>
      </g>
     </g>
    </g>
    <g id="ytick_10">
     <g id="line2d_23">
      <path d="M 381.601758 173.79331 
L 651.041172 173.79331 
" clip-path="url(#p9f29a5483d)" style="fill: none; stroke: #b0b0b0; stroke-opacity: 0.3; stroke-width: 0.8; stroke-linecap: square"/>
     </g>
     <g id="line2d_24">
      <g>
       <use xlink:href="#m1174b5a927" x="381.601758" y="173.79331" style="stroke: #000000; stroke-width: 0.8"/>
      </g>
     </g>
     <g id="text_19">
      <!-- 20 -->
      <g transform="translate(361.876758 177.592138) scale(0.1 -0.1)">
       <use xlink:href="#DejaVuSans-15"/>
       <use xlink:href="#DejaVuSans-13" transform="translate(63.625 0)"/>
      </g>
     </g>
    </g>
    <g id="ytick_11">
     <g id="line2d_25">
      <path d="M 381.601758 141.472224 
L 651.041172 141.472224 
" clip-path="url(#p9f29a5483d)" style="fill: none; stroke: #b0b0b0; stroke-opacity: 0.3; stroke-width: 0.8; stroke-linecap: square"/>
     </g>
     <g id="line2d_26">
      <g>
       <use xlink:href="#m1174b5a927" x="381.601758" y="141.472224" style="stroke: #000000; stroke-width: 0.8"/>
      </g>
     </g>
     <g id="text_20">
      <!-- 25 -->
      <g transform="translate(361.876758 145.271052) scale(0.1 -0.1)">
       <use xlink:href="#DejaVuSans-15"/>
       <use xlink:href="#DejaVuSans-18" transform="translate(63.625 0)"/>
      </g>
     </g>
    </g>
    <g id="ytick_12">
     <g id="line2d_27">
      <path d="M 381.601758 109.151137 
L 651.041172 109.151137 
" clip-path="url(#p9f29a5483d)" style="fill: none; stroke: #b0b0b0; stroke-opacity: 0.3; stroke-width: 0.8; stroke-linecap: square"/>
     </g>
     <g id="line2d_28">
      <g>
       <use xlink:href="#m1174b5a927" x="381.601758" y="109.151137" style="stroke: #000000; stroke-width: 0.8"/>
      </g>
     </g>
     <g id="text_21">
      <!-- 30 -->
      <g transform="translate(361.876758 112.949965) scale(0.1 -0.1)">
       <use xlink:href="#DejaVuSans-16"/>
       <use xlink:href="#DejaVuSans-13" transform="translate(63.625 0)"/>
      </g>
     </g>
    </g>
    <g id="ytick_13">
     <g id="line2d_29">
      <path d="M 381.601758 76.830051 
L 651.041172 76.830051 
" clip-path="url(#p9f29a5483d)" style="fill: none; stroke: #b0b0b0; stroke-opacity: 0.3; stroke-width: 0.8; stroke-linecap: square"/>
     </g>
     <g id="line2d_30">
      <g>
       <use xlink:href="#m1174b5a927" x="381.601758" y="76.830051" style="stroke: #000000; stroke-width: 0.8"/>
      </g>
     </g>
     <g id="text_22">
      <!-- 35 -->
      <g transform="translate(361.876758 80.628879) scale(0.1 -0.1)">
       <use xlink:href="#DejaVuSans-16"/>
       <use xlink:href="#DejaVuSans-18" transform="translate(63.625 0)"/>
      </g>
     </g>
    </g>
    <g id="text_23">
     <!-- seconds -->
     <g transform="translate(355.474414 209.825734) rotate(-90) scale(0.1 -0.1)">
      <use xlink:href="#DejaVuSans-56"/>
      <use xlink:href="#DejaVuSans-48" transform="translate(52.09375 0)"/>
      <use xlink:href="#DejaVuSans-46" transform="translate(113.625 0)"/>
      <use xlink:href="#DejaVuSans-52" transform="translate(168.609375 0)"/>
      <use xlink:href="#DejaVuSans-51" transform="translate(229.796875 0)"/>
      <use xlink:href="#DejaVuSans-47" transform="translate(293.171875 0)"/>
      <use xlink:href="#DejaVuSans-56" transform="translate(356.65625 0)"/>
     </g>
    </g>
   </g>
   <g id="patch_12">
    <path d="M 381.601758 303.077656 
L 381.601758 75.698813 
" style="fill: none; stroke: #000000; stroke-width: 0.8; stroke-linejoin: miter; stroke-linecap: square"/>
   </g>
   <g id="patch_13">
    <path d="M 651.041172 303.077656 
L 651.041172 75.698813 
" style="fill: none; stroke: #000000; stroke-width: 0.8; stroke-linejoin: miter; stroke-linecap: square"/>
   </g>
   <g id="patch_14">
    <path d="M 381.601758 303.077656 
L 651.041172 303.077656 
" style="fill: none; stroke: #000000; stroke-width: 0.8; stroke-linejoin: miter; stroke-linecap: square"/>
   </g>
   <g id="patch_15">
    <path d="M 381.601758 75.698813 
L 651.041172 75.698813 
" style="fill: none; stroke: #000000; stroke-width: 0.8; stroke-linejoin: miter; stroke-linecap: square"/>
   </g>
   <g id="text_24">
    <!-- 33.5s -->
    <g transform="translate(434.543709 84.124033) scale(0.1 -0.1)">
     <defs>
      <path id="DejaVuSans-11" d="M 684 794 
L 1344 794 
L 1344 0 
L 684 0 
L 684 794 
z
" transform="scale(0.015625)"/>
     </defs>
     <use xlink:href="#DejaVuSans-16"/>
     <use xlink:href="#DejaVuSans-16" transform="translate(63.625 0)"/>
     <use xlink:href="#DejaVuSans-11" transform="translate(127.25 0)"/>
     <use xlink:href="#DejaVuSans-18" transform="translate(159.03125 0)"/>
     <use xlink:href="#DejaVuSans-56" transform="translate(222.65625 0)"/>
    </g>
   </g>
   <g id="text_25">
    <!-- 25.4s -->
    <g transform="translate(570.624221 136.484193) scale(0.1 -0.1)">
     <use xlink:href="#DejaVuSans-15"/>
     <use xlink:href="#DejaVuSans-18" transform="translate(63.625 0)"/>
     <use xlink:href="#DejaVuSans-11" transform="translate(127.25 0)"/>
     <use xlink:href="#DejaVuSans-17" transform="translate(159.03125 0)"/>
     <use xlink:href="#DejaVuSans-56" transform="translate(222.65625 0)"/>
    </g>
   </g>
   <g id="text_26">
    <!-- LLM wall-clock (s) -->
    <g transform="translate(463.344277 69.698813) scale(0.12 -0.12)">
     <defs>
      <path id="DejaVuSans-2f" d="M 628 4666 
L 1259 4666 
L 1259 531 
L 3531 531 
L 3531 0 
L 628 0 
L 628 4666 
z
" transform="scale(0.015625)"/>
      <path id="DejaVuSans-30" d="M 628 4666 
L 1569 4666 
L 2759 1491 
L 3956 4666 
L 4897 4666 
L 4897 0 
L 4281 0 
L 4281 4097 
L 3078 897 
L 2444 897 
L 1241 4097 
L 1241 0 
L 628 0 
L 628 4666 
z
" transform="scale(0.015625)"/>
      <path id="DejaVuSans-10" d="M 313 2009 
L 1997 2009 
L 1997 1497 
L 313 1497 
L 313 2009 
z
" transform="scale(0.015625)"/>
     </defs>
     <use xlink:href="#DejaVuSans-2f"/>
     <use xlink:href="#DejaVuSans-2f" transform="translate(55.71875 0)"/>
     <use xlink:href="#DejaVuSans-30" transform="translate(111.4375 0)"/>
     <use xlink:href="#DejaVuSans-3" transform="translate(197.71875 0)"/>
     <use xlink:href="#DejaVuSans-5a" transform="translate(229.5 0)"/>
     <use xlink:href="#DejaVuSans-44" transform="translate(311.28125 0)"/>
     <use xlink:href="#DejaVuSans-4f" transform="translate(372.5625 0)"/>
     <use xlink:href="#DejaVuSans-4f" transform="translate(400.34375 0)"/>
     <use xlink:href="#DejaVuSans-10" transform="translate(428.125 0)"/>
     <use xlink:href="#DejaVuSans-46" transform="translate(464.203125 0)"/>
     <use xlink:href="#DejaVuSans-4f" transform="translate(519.1875 0)"/>
     <use xlink:href="#DejaVuSans-52" transform="translate(546.96875 0)"/>
     <use xlink:href="#DejaVuSans-46" transform="translate(608.15625 0)"/>
     <use xlink:href="#DejaVuSans-4e" transform="translate(663.140625 0)"/>
     <use xlink:href="#DejaVuSans-3" transform="translate(721.046875 0)"/>
     <use xlink:href="#DejaVuSans-b" transform="translate(752.828125 0)"/>
     <use xlink:href="#DejaVuSans-56" transform="translate(791.84375 0)"/>
     <use xlink:href="#DejaVuSans-c" transform="translate(843.9375 0)"/>
    </g>
   </g>
  </g>
  <g id="axes_3">
   <g id="patch_16">
    <path d="M 698.681172 303.077656 
L 968.120586 303.077656 
L 968.120586 75.698813 
L 698.681172 75.698813 
z
" style="fill: #ffffff"/>
   </g>
   <g id="patch_17">
    <path d="M 710.928418 303.077656 
L 819.792828 303.077656 
L 819.792828 86.526376 
L 710.928418 86.526376 
z
" clip-path="url(#p6f51742a74)" style="fill: #ea580c"/>
   </g>
   <g id="patch_18">
    <path d="M 847.00893 303.077656 
L 955.87334 303.077656 
L 955.87334 140.664196 
L 847.00893 140.664196 
z
" clip-path="url(#p6f51742a74)" style="fill: #059669"/>
   </g>
   <g id="matplotlib.axis_5">
    <g id="xtick_5">
     <g id="line2d_31">
      <g>
       <use xlink:href="#m4f46ab4cfd" x="765.360623" y="303.077656" style="stroke: #000000; stroke-width: 0.8"/>
      </g>
     </g>
     <g id="text_27">
      <!-- naive -->
      <g transform="translate(751.70281 317.676094) scale(0.1 -0.1)">
       <use xlink:href="#DejaVuSans-51"/>
       <use xlink:href="#DejaVuSans-44" transform="translate(63.375 0)"/>
       <use xlink:href="#DejaVuSans-4c" transform="translate(124.65625 0)"/>
       <use xlink:href="#DejaVuSans-59" transform="translate(152.4375 0)"/>
       <use xlink:href="#DejaVuSans-48" transform="translate(211.625 0)"/>
      </g>
     </g>
    </g>
    <g id="xtick_6">
     <g id="line2d_32">
      <g>
       <use xlink:href="#m4f46ab4cfd" x="901.441135" y="303.077656" style="stroke: #000000; stroke-width: 0.8"/>
      </g>
     </g>
     <g id="text_28">
      <!-- optimized -->
      <g transform="translate(876.723947 317.676094) scale(0.1 -0.1)">
       <use xlink:href="#DejaVuSans-52"/>
       <use xlink:href="#DejaVuSans-53" transform="translate(61.1875 0)"/>
       <use xlink:href="#DejaVuSans-57" transform="translate(124.671875 0)"/>
       <use xlink:href="#DejaVuSans-4c" transform="translate(163.875 0)"/>
       <use xlink:href="#DejaVuSans-50" transform="translate(191.65625 0)"/>
       <use xlink:href="#DejaVuSans-4c" transform="translate(289.0625 0)"/>
       <use xlink:href="#DejaVuSans-5d" transform="translate(316.84375 0)"/>
       <use xlink:href="#DejaVuSans-48" transform="translate(369.328125 0)"/>
       <use xlink:href="#DejaVuSans-47" transform="translate(430.859375 0)"/>
      </g>
     </g>
    </g>
   </g>
   <g id="matplotlib.axis_6">
    <g id="ytick_14">
     <g id="line2d_33">
      <path d="M 698.681172 303.077656 
L 968.120586 303.077656 
" clip-path="url(#p6f51742a74)" style="fill: none; stroke: #b0b0b0; stroke-opacity: 0.3; stroke-width: 0.8; stroke-linecap: square"/>
     </g>
     <g id="line2d_34">
      <g>
       <use xlink:href="#m1174b5a927" x="698.681172" y="303.077656" style="stroke: #000000; stroke-width: 0.8"/>
      </g>
     </g>
     <g id="text_29">
      <!-- 0.0 -->
      <g transform="translate(675.778047 306.876484) scale(0.1 -0.1)">
       <use xlink:href="#DejaVuSans-13"/>
       <use xlink:href="#DejaVuSans-11" transform="translate(63.625 0)"/>
       <use xlink:href="#DejaVuSans-13" transform="translate(95.40625 0)"/>
      </g>
     </g>
    </g>
    <g id="ytick_15">
     <g id="line2d_35">
      <path d="M 698.681172 276.008746 
L 968.120586 276.008746 
" clip-path="url(#p6f51742a74)" style="fill: none; stroke: #b0b0b0; stroke-opacity: 0.3; stroke-width: 0.8; stroke-linecap: square"/>
     </g>
     <g id="line2d_36">
      <g>
       <use xlink:href="#m1174b5a927" x="698.681172" y="276.008746" style="stroke: #000000; stroke-width: 0.8"/>
      </g>
     </g>
     <g id="text_30">
      <!-- 0.5 -->
      <g transform="translate(675.778047 279.807574) scale(0.1 -0.1)">
       <use xlink:href="#DejaVuSans-13"/>
       <use xlink:href="#DejaVuSans-11" transform="translate(63.625 0)"/>
       <use xlink:href="#DejaVuSans-18" transform="translate(95.40625 0)"/>
      </g>
     </g>
    </g>
    <g id="ytick_16">
     <g id="line2d_37">
      <path d="M 698.681172 248.939836 
L 968.120586 248.939836 
" clip-path="url(#p6f51742a74)" style="fill: none; stroke: #b0b0b0; stroke-opacity: 0.3; stroke-width: 0.8; stroke-linecap: square"/>
     </g>
     <g id="line2d_38">
      <g>
       <use xlink:href="#m1174b5a927" x="698.681172" y="248.939836" style="stroke: #000000; stroke-width: 0.8"/>
      </g>
     </g>
     <g id="text_31">
      <!-- 1.0 -->
      <g transform="translate(675.778047 252.738664) scale(0.1 -0.1)">
       <use xlink:href="#DejaVuSans-14"/>
       <use xlink:href="#DejaVuSans-11" transform="translate(63.625 0)"/>
       <use xlink:href="#DejaVuSans-13" transform="translate(95.40625 0)"/>
      </g>
     </g>
    </g>
    <g id="ytick_17">
     <g id="line2d_39">
      <path d="M 698.681172 221.870926 
L 968.120586 221.870926 
" clip-path="url(#p6f51742a74)" style="fill: none; stroke: #b0b0b0; stroke-opacity: 0.3; stroke-width: 0.8; stroke-linecap: square"/>
     </g>
     <g id="line2d_40">
      <g>
       <use xlink:href="#m1174b5a927" x="698.681172" y="221.870926" style="stroke: #000000; stroke-width: 0.8"/>
      </g>
     </g>
     <g id="text_32">
      <!-- 1.5 -->
      <g transform="translate(675.778047 225.669754) scale(0.1 -0.1)">
       <use xlink:href="#DejaVuSans-14"/>
       <use xlink:href="#DejaVuSans-11" transform="translate(63.625 0)"/>
       <use xlink:href="#DejaVuSans-18" transform="translate(95.40625 0)"/>
      </g>
     </g>
    </g>
    <g id="ytick_18">
     <g id="line2d_41">
      <path d="M 698.681172 194.802016 
L 968.120586 194.802016 
" clip-path="url(#p6f51742a74)" style="fill: none; stroke: #b0b0b0; stroke-opacity: 0.3; stroke-width: 0.8; stroke-linecap: square"/>
     </g>
     <g id="line2d_42">
      <g>
       <use xlink:href="#m1174b5a927" x="698.681172" y="194.802016" style="stroke: #000000; stroke-width: 0.8"/>
      </g>
     </g>
     <g id="text_33">
      <!-- 2.0 -->
      <g transform="translate(675.778047 198.600844) scale(0.1 -0.1)">
       <use xlink:href="#DejaVuSans-15"/>
       <use xlink:href="#DejaVuSans-11" transform="translate(63.625 0)"/>
       <use xlink:href="#DejaVuSans-13" transform="translate(95.40625 0)"/>
      </g>
     </g>
    </g>
    <g id="ytick_19">
     <g id="line2d_43">
      <path d="M 698.681172 167.733106 
L 968.120586 167.733106 
" clip-path="url(#p6f51742a74)" style="fill: none; stroke: #b0b0b0; stroke-opacity: 0.3; stroke-width: 0.8; stroke-linecap: square"/>
     </g>
     <g id="line2d_44">
      <g>
       <use xlink:href="#m1174b5a927" x="698.681172" y="167.733106" style="stroke: #000000; stroke-width: 0.8"/>
      </g>
     </g>
     <g id="text_34">
      <!-- 2.5 -->
      <g transform="translate(675.778047 171.531935) scale(0.1 -0.1)">
       <use xlink:href="#DejaVuSans-15"/>
       <use xlink:href="#DejaVuSans-11" transform="translate(63.625 0)"/>
       <use xlink:href="#DejaVuSans-18" transform="translate(95.40625 0)"/>
      </g>
     </g>
    </g>
    <g id="ytick_20">
     <g id="line2d_45">
      <path d="M 698.681172 140.664196 
L 968.120586 140.664196 
" clip-path="url(#p6f51742a74)" style="fill: none; stroke: #b0b0b0; stroke-opacity: 0.3; stroke-width: 0.8; stroke-linecap: square"/>
     </g>
     <g id="line2d_46">
      <g>
       <use xlink:href="#m1174b5a927" x="698.681172" y="140.664196" style="stroke: #000000; stroke-width: 0.8"/>
      </g>
     </g>
     <g id="text_35">
      <!-- 3.0 -->
      <g transform="translate(675.778047 144.463025) scale(0.1 -0.1)">
       <use xlink:href="#DejaVuSans-16"/>
       <use xlink:href="#DejaVuSans-11" transform="translate(63.625 0)"/>
       <use xlink:href="#DejaVuSans-13" transform="translate(95.40625 0)"/>
      </g>
     </g>
    </g>
    <g id="ytick_21">
     <g id="line2d_47">
      <path d="M 698.681172 113.595286 
L 968.120586 113.595286 
" clip-path="url(#p6f51742a74)" style="fill: none; stroke: #b0b0b0; stroke-opacity: 0.3; stroke-width: 0.8; stroke-linecap: square"/>
     </g>
     <g id="line2d_48">
      <g>
       <use xlink:href="#m1174b5a927" x="698.681172" y="113.595286" style="stroke: #000000; stroke-width: 0.8"/>
      </g>
     </g>
     <g id="text_36">
      <!-- 3.5 -->
      <g transform="translate(675.778047 117.394115) scale(0.1 -0.1)">
       <use xlink:href="#DejaVuSans-16"/>
       <use xlink:href="#DejaVuSans-11" transform="translate(63.625 0)"/>
       <use xlink:href="#DejaVuSans-18" transform="translate(95.40625 0)"/>
      </g>
     </g>
    </g>
    <g id="ytick_22">
     <g id="line2d_49">
      <path d="M 698.681172 86.526376 
L 968.120586 86.526376 
" clip-path="url(#p6f51742a74)" style="fill: none; stroke: #b0b0b0; stroke-opacity: 0.3; stroke-width: 0.8; stroke-linecap: square"/>
     </g>
     <g id="line2d_50">
      <g>
       <use xlink:href="#m1174b5a927" x="698.681172" y="86.526376" style="stroke: #000000; stroke-width: 0.8"/>
      </g>
     </g>
     <g id="text_37">
      <!-- 4.0 -->
      <g transform="translate(675.778047 90.325205) scale(0.1 -0.1)">
       <use xlink:href="#DejaVuSans-17"/>
       <use xlink:href="#DejaVuSans-11" transform="translate(63.625 0)"/>
       <use xlink:href="#DejaVuSans-13" transform="translate(95.40625 0)"/>
      </g>
     </g>
    </g>
    <g id="text_38">
     <!-- count -->
     <g transform="translate(669.375703 203.494484) rotate(-90) scale(0.1 -0.1)">
      <defs>
       <path id="DejaVuSans-58" d="M 544 1381 
L 544 3500 
L 1119 3500 
L 1119 1403 
Q 1119 906 1312 657 
Q 1506 409 1894 409 
Q 2359 409 2629 706 
Q 2900 1003 2900 1516 
L 2900 3500 
L 3475 3500 
L 3475 0 
L 2900 0 
L 2900 538 
Q 2691 219 2414 64 
Q 2138 -91 1772 -91 
Q 1169 -91 856 284 
Q 544 659 544 1381 
z
M 1991 3584 
L 1991 3584 
z
" transform="scale(0.015625)"/>
      </defs>
      <use xlink:href="#DejaVuSans-46"/>
      <use xlink:href="#DejaVuSans-52" transform="translate(54.984375 0)"/>
      <use xlink:href="#DejaVuSans-58" transform="translate(116.171875 0)"/>
      <use xlink:href="#DejaVuSans-51" transform="translate(179.546875 0)"/>
      <use xlink:href="#DejaVuSans-57" transform="translate(242.921875 0)"/>
     </g>
    </g>
   </g>
   <g id="patch_19">
    <path d="M 698.681172 303.077656 
L 698.681172 75.698813 
" style="fill: none; stroke: #000000; stroke-width: 0.8; stroke-linejoin: miter; stroke-linecap: square"/>
   </g>
   <g id="patch_20">
    <path d="M 968.120586 303.077656 
L 968.120586 75.698813 
" style="fill: none; stroke: #000000; stroke-width: 0.8; stroke-linejoin: miter; stroke-linecap: square"/>
   </g>
   <g id="patch_21">
    <path d="M 698.681172 303.077656 
L 968.120586 303.077656 
" style="fill: none; stroke: #000000; stroke-width: 0.8; stroke-linejoin: miter; stroke-linecap: square"/>
   </g>
   <g id="patch_22">
    <path d="M 698.681172 75.698813 
L 968.120586 75.698813 
" style="fill: none; stroke: #000000; stroke-width: 0.8; stroke-linejoin: miter; stroke-linecap: square"/>
   </g>
   <g id="text_39">
    <!-- 4 -->
    <g transform="translate(762.179373 84.124033) scale(0.1 -0.1)">
     <use xlink:href="#DejaVuSans-17"/>
    </g>
   </g>
   <g id="text_40">
    <!-- 3 -->
    <g transform="translate(898.259885 138.261853) scale(0.1 -0.1)">
     <use xlink:href="#DejaVuSans-16"/>
    </g>
   </g>
   <g id="text_41">
    <!-- LLM calls -->
    <g transform="translate(806.195566 69.698813) scale(0.12 -0.12)">
     <use xlink:href="#DejaVuSans-2f"/>
     <use xlink:href="#DejaVuSans-2f" transform="translate(55.71875 0)"/>
     <use xlink:href="#DejaVuSans-30" transform="translate(111.4375 0)"/>
     <use xlink:href="#DejaVuSans-3" transform="translate(197.71875 0)"/>
     <use xlink:href="#DejaVuSans-46" transform="translate(229.5 0)"/>
     <use xlink:href="#DejaVuSans-44" transform="translate(284.484375 0)"/>
     <use xlink:href="#DejaVuSans-4f" transform="translate(345.765625 0)"/>
     <use xlink:href="#DejaVuSans-4f" transform="translate(373.546875 0)"/>
     <use xlink:href="#DejaVuSans-56" transform="translate(401.328125 0)"/>
    </g>
   </g>
  </g>
  <g id="axes_4">
   <g id="patch_23">
    <path d="M 1015.760586 303.077656 
L 1285.2 303.077656 
L 1285.2 75.698813 
L 1015.760586 75.698813 
z
" style="fill: #ffffff"/>
   </g>
   <g id="patch_24">
    <path d="M 1028.007832 303.077656 
L 1136.872242 303.077656 
L 1136.872242 92.54169 
L 1028.007832 92.54169 
z
" clip-path="url(#p686180dad6)" style="fill: #ea580c"/>
   </g>
   <g id="patch_25">
    <path d="M 1164.088344 303.077656 
L 1272.952754 303.077656 
L 1272.952754 260.970463 
L 1164.088344 260.970463 
z
" clip-path="url(#p686180dad6)" style="fill: #dc2626"/>
   </g>
   <g id="matplotlib.axis_7">
    <g id="xtick_7">
     <g id="line2d_51">
      <g>
       <use xlink:href="#m4f46ab4cfd" x="1082.440037" y="303.077656" style="stroke: #000000; stroke-width: 0.8"/>
      </g>
     </g>
     <g id="text_42">
      <!-- naive -->
      <g transform="translate(1068.782224 317.676094) scale(0.1 -0.1)">
       <use xlink:href="#DejaVuSans-51"/>
       <use xlink:href="#DejaVuSans-44" transform="translate(63.375 0)"/>
       <use xlink:href="#DejaVuSans-4c" transform="translate(124.65625 0)"/>
       <use xlink:href="#DejaVuSans-59" transform="translate(152.4375 0)"/>
       <use xlink:href="#DejaVuSans-48" transform="translate(211.625 0)"/>
      </g>
     </g>
    </g>
    <g id="xtick_8">
     <g id="line2d_52">
      <g>
       <use xlink:href="#m4f46ab4cfd" x="1218.520549" y="303.077656" style="stroke: #000000; stroke-width: 0.8"/>
      </g>
     </g>
     <g id="text_43">
      <!-- optimized -->
      <g transform="translate(1193.803362 317.676094) scale(0.1 -0.1)">
       <use xlink:href="#DejaVuSans-52"/>
       <use xlink:href="#DejaVuSans-53" transform="translate(61.1875 0)"/>
       <use xlink:href="#DejaVuSans-57" transform="translate(124.671875 0)"/>
       <use xlink:href="#DejaVuSans-4c" transform="translate(163.875 0)"/>
       <use xlink:href="#DejaVuSans-50" transform="translate(191.65625 0)"/>
       <use xlink:href="#DejaVuSans-4c" transform="translate(289.0625 0)"/>
       <use xlink:href="#DejaVuSans-5d" transform="translate(316.84375 0)"/>
       <use xlink:href="#DejaVuSans-48" transform="translate(369.328125 0)"/>
       <use xlink:href="#DejaVuSans-47" transform="translate(430.859375 0)"/>
      </g>
     </g>
    </g>
   </g>
   <g id="matplotlib.axis_8">
    <g id="ytick_23">
     <g id="line2d_53">
      <path d="M 1015.760586 303.077656 
L 1285.2 303.077656 
" clip-path="url(#p686180dad6)" style="fill: none; stroke: #b0b0b0; stroke-opacity: 0.3; stroke-width: 0.8; stroke-linecap: square"/>
     </g>
     <g id="line2d_54">
      <g>
       <use xlink:href="#m1174b5a927" x="1015.760586" y="303.077656" style="stroke: #000000; stroke-width: 0.8"/>
      </g>
     </g>
     <g id="text_44">
      <!-- 0 -->
      <g transform="translate(1002.398086 306.876484) scale(0.1 -0.1)">
       <use xlink:href="#DejaVuSans-13"/>
      </g>
     </g>
    </g>
    <g id="ytick_24">
     <g id="line2d_55">
      <path d="M 1015.760586 260.970463 
L 1285.2 260.970463 
" clip-path="url(#p686180dad6)" style="fill: none; stroke: #b0b0b0; stroke-opacity: 0.3; stroke-width: 0.8; stroke-linecap: square"/>
     </g>
     <g id="line2d_56">
      <g>
       <use xlink:href="#m1174b5a927" x="1015.760586" y="260.970463" style="stroke: #000000; stroke-width: 0.8"/>
      </g>
     </g>
     <g id="text_45">
      <!-- 1 -->
      <g transform="translate(1002.398086 264.769291) scale(0.1 -0.1)">
       <use xlink:href="#DejaVuSans-14"/>
      </g>
     </g>
    </g>
    <g id="ytick_25">
     <g id="line2d_57">
      <path d="M 1015.760586 218.86327 
L 1285.2 218.86327 
" clip-path="url(#p686180dad6)" style="fill: none; stroke: #b0b0b0; stroke-opacity: 0.3; stroke-width: 0.8; stroke-linecap: square"/>
     </g>
     <g id="line2d_58">
      <g>
       <use xlink:href="#m1174b5a927" x="1015.760586" y="218.86327" style="stroke: #000000; stroke-width: 0.8"/>
      </g>
     </g>
     <g id="text_46">
      <!-- 2 -->
      <g transform="translate(1002.398086 222.662098) scale(0.1 -0.1)">
       <use xlink:href="#DejaVuSans-15"/>
      </g>
     </g>
    </g>
    <g id="ytick_26">
     <g id="line2d_59">
      <path d="M 1015.760586 176.756076 
L 1285.2 176.756076 
" clip-path="url(#p686180dad6)" style="fill: none; stroke: #b0b0b0; stroke-opacity: 0.3; stroke-width: 0.8; stroke-linecap: square"/>
     </g>
     <g id="line2d_60">
      <g>
       <use xlink:href="#m1174b5a927" x="1015.760586" y="176.756076" style="stroke: #000000; stroke-width: 0.8"/>
      </g>
     </g>
     <g id="text_47">
      <!-- 3 -->
      <g transform="translate(1002.398086 180.554905) scale(0.1 -0.1)">
       <use xlink:href="#DejaVuSans-16"/>
      </g>
     </g>
    </g>
    <g id="ytick_27">
     <g id="line2d_61">
      <path d="M 1015.760586 134.648883 
L 1285.2 134.648883 
" clip-path="url(#p686180dad6)" style="fill: none; stroke: #b0b0b0; stroke-opacity: 0.3; stroke-width: 0.8; stroke-linecap: square"/>
     </g>
     <g id="line2d_62">
      <g>
       <use xlink:href="#m1174b5a927" x="1015.760586" y="134.648883" style="stroke: #000000; stroke-width: 0.8"/>
      </g>
     </g>
     <g id="text_48">
      <!-- 4 -->
      <g transform="translate(1002.398086 138.447711) scale(0.1 -0.1)">
       <use xlink:href="#DejaVuSans-17"/>
      </g>
     </g>
    </g>
    <g id="ytick_28">
     <g id="line2d_63">
      <path d="M 1015.760586 92.54169 
L 1285.2 92.54169 
" clip-path="url(#p686180dad6)" style="fill: none; stroke: #b0b0b0; stroke-opacity: 0.3; stroke-width: 0.8; stroke-linecap: square"/>
     </g>
     <g id="line2d_64">
      <g>
       <use xlink:href="#m1174b5a927" x="1015.760586" y="92.54169" style="stroke: #000000; stroke-width: 0.8"/>
      </g>
     </g>
     <g id="text_49">
      <!-- 5 -->
      <g transform="translate(1002.398086 96.340518) scale(0.1 -0.1)">
       <use xlink:href="#DejaVuSans-18"/>
      </g>
     </g>
    </g>
    <g id="text_50">
     <!-- tests passing (of 5) -->
     <g transform="translate(995.995742 237.443703) rotate(-90) scale(0.1 -0.1)">
      <defs>
       <path id="DejaVuSans-4a" d="M 2906 1791 
Q 2906 2416 2648 2759 
Q 2391 3103 1925 3103 
Q 1463 3103 1205 2759 
Q 947 2416 947 1791 
Q 947 1169 1205 825 
Q 1463 481 1925 481 
Q 2391 481 2648 825 
Q 2906 1169 2906 1791 
z
M 3481 434 
Q 3481 -459 3084 -895 
Q 2688 -1331 1869 -1331 
Q 1566 -1331 1297 -1286 
Q 1028 -1241 775 -1147 
L 775 -588 
Q 1028 -725 1275 -790 
Q 1522 -856 1778 -856 
Q 2344 -856 2625 -561 
Q 2906 -266 2906 331 
L 2906 616 
Q 2728 306 2450 153 
Q 2172 0 1784 0 
Q 1141 0 747 490 
Q 353 981 353 1791 
Q 353 2603 747 3093 
Q 1141 3584 1784 3584 
Q 2172 3584 2450 3431 
Q 2728 3278 2906 2969 
L 2906 3500 
L 3481 3500 
L 3481 434 
z
" transform="scale(0.015625)"/>
       <path id="DejaVuSans-49" d="M 2375 4863 
L 2375 4384 
L 1825 4384 
Q 1516 4384 1395 4259 
Q 1275 4134 1275 3809 
L 1275 3500 
L 2222 3500 
L 2222 3053 
L 1275 3053 
L 1275 0 
L 697 0 
L 697 3053 
L 147 3053 
L 147 3500 
L 697 3500 
L 697 3744 
Q 697 4328 969 4595 
Q 1241 4863 1831 4863 
L 2375 4863 
z
" transform="scale(0.015625)"/>
      </defs>
      <use xlink:href="#DejaVuSans-57"/>
      <use xlink:href="#DejaVuSans-48" transform="translate(39.203125 0)"/>
      <use xlink:href="#DejaVuSans-56" transform="translate(100.734375 0)"/>
      <use xlink:href="#DejaVuSans-57" transform="translate(152.828125 0)"/>
      <use xlink:href="#DejaVuSans-56" transform="translate(192.03125 0)"/>
      <use xlink:href="#DejaVuSans-3" transform="translate(244.125 0)"/>
      <use xlink:href="#DejaVuSans-53" transform="translate(275.90625 0)"/>
      <use xlink:href="#DejaVuSans-44" transform="translate(339.390625 0)"/>
      <use xlink:href="#DejaVuSans-56" transform="translate(400.671875 0)"/>
      <use xlink:href="#DejaVuSans-56" transform="translate(452.765625 0)"/>
      <use xlink:href="#DejaVuSans-4c" transform="translate(504.859375 0)"/>
      <use xlink:href="#DejaVuSans-51" transform="translate(532.640625 0)"/>
      <use xlink:href="#DejaVuSans-4a" transform="translate(596.015625 0)"/>
      <use xlink:href="#DejaVuSans-3" transform="translate(659.5 0)"/>
      <use xlink:href="#DejaVuSans-b" transform="translate(691.28125 0)"/>
      <use xlink:href="#DejaVuSans-52" transform="translate(730.296875 0)"/>
      <use xlink:href="#DejaVuSans-49" transform="translate(791.484375 0)"/>
      <use xlink:href="#DejaVuSans-3" transform="translate(826.6875 0)"/>
      <use xlink:href="#DejaVuSans-18" transform="translate(858.46875 0)"/>
      <use xlink:href="#DejaVuSans-c" transform="translate(922.09375 0)"/>
     </g>
    </g>
   </g>
   <g id="line2d_65">
    <path d="M 1015.760586 92.54169 
L 1285.2 92.54169 
" clip-path="url(#p686180dad6)" style="fill: none; stroke-dasharray: 3.7,1.6; stroke-dashoffset: 0; stroke: #808080"/>
   </g>
   <g id="patch_26">
    <path d="M 1015.760586 303.077656 
L 1015.760586 75.698813 
" style="fill: none; stroke: #000000; stroke-width: 0.8; stroke-linejoin: miter; stroke-linecap: square"/>
   </g>
   <g id="patch_27">
    <path d="M 1285.2 303.077656 
L 1285.2 75.698813 
" style="fill: none; stroke: #000000; stroke-width: 0.8; stroke-linejoin: miter; stroke-linecap: square"/>
   </g>
   <g id="patch_28">
    <path d="M 1015.760586 303.077656 
L 1285.2 303.077656 
" style="fill: none; stroke: #000000; stroke-width: 0.8; stroke-linejoin: miter; stroke-linecap: square"/>
   </g>
   <g id="patch_29">
    <path d="M 1015.760586 75.698813 
L 1285.2 75.698813 
" style="fill: none; stroke: #000000; stroke-width: 0.8; stroke-linejoin: miter; stroke-linecap: square"/>
   </g>
   <g id="text_51">
    <!-- 5/5 -->
    <g transform="translate(1073.655662 90.139346) scale(0.1 -0.1)">
     <defs>
      <path id="DejaVuSans-Bold-18" d="M 678 4666 
L 3669 4666 
L 3669 3781 
L 1638 3781 
L 1638 3059 
Q 1775 3097 1914 3117 
Q 2053 3138 2203 3138 
Q 3056 3138 3531 2711 
Q 4006 2284 4006 1522 
Q 4006 766 3489 337 
Q 2972 -91 2053 -91 
Q 1656 -91 1267 -14 
Q 878 63 494 219 
L 494 1166 
Q 875 947 1217 837 
Q 1559 728 1863 728 
Q 2300 728 2551 942 
Q 2803 1156 2803 1522 
Q 2803 1891 2551 2103 
Q 2300 2316 1863 2316 
Q 1603 2316 1309 2248 
Q 1016 2181 678 2041 
L 678 4666 
z
" transform="scale(0.015625)"/>
      <path id="DejaVuSans-Bold-12" d="M 1644 4666 
L 2338 4666 
L 691 -594 
L 0 -594 
L 1644 4666 
z
" transform="scale(0.015625)"/>
     </defs>
     <use xlink:href="#DejaVuSans-Bold-18"/>
     <use xlink:href="#DejaVuSans-Bold-12" transform="translate(69.578125 0)"/>
     <use xlink:href="#DejaVuSans-Bold-18" transform="translate(106.109375 0)"/>
    </g>
   </g>
   <g id="text_52">
    <!-- 1/5 -->
    <g transform="translate(1209.736174 258.568119) scale(0.1 -0.1)">
     <defs>
      <path id="DejaVuSans-Bold-14" d="M 750 831 
L 1813 831 
L 1813 3847 
L 722 3622 
L 722 4441 
L 1806 4666 
L 2950 4666 
L 2950 831 
L 4013 831 
L 4013 0 
L 750 0 
L 750 831 
z
" transform="scale(0.015625)"/>
     </defs>
     <use xlink:href="#DejaVuSans-Bold-14"/>
     <use xlink:href="#DejaVuSans-Bold-12" transform="translate(69.578125 0)"/>
     <use xlink:href="#DejaVuSans-Bold-18" transform="translate(106.109375 0)"/>
    </g>
   </g>
   <g id="text_53">
    <!-- Hardening tests fixed (higher = correct) -->
    <g transform="translate(1030.560918 69.698813) scale(0.12 -0.12)">
     <defs>
      <path id="DejaVuSans-2b" d="M 628 4666 
L 1259 4666 
L 1259 2753 
L 3553 2753 
L 3553 4666 
L 4184 4666 
L 4184 0 
L 3553 0 
L 3553 2222 
L 1259 2222 
L 1259 0 
L 628 0 
L 628 4666 
z
" transform="scale(0.015625)"/>
      <path id="DejaVuSans-13af" d="M 3431 3500 
L 3431 0 
L 2853 0 
L 2853 3053 
L 1275 3053 
L 1275 0 
L 697 0 
L 697 3053 
L 147 3053 
L 147 3500 
L 697 3500 
L 697 3744 
Q 697 4316 967 4589 
Q 1238 4863 1797 4863 
L 2375 4863 
L 2375 4384 
L 1825 4384 
Q 1516 4384 1395 4259 
Q 1275 4134 1275 3809 
L 1275 3500 
L 3431 3500 
z
M 2853 4856 
L 3431 4856 
L 3431 4128 
L 2853 4128 
L 2853 4856 
z
" transform="scale(0.015625)"/>
      <path id="DejaVuSans-5b" d="M 3513 3500 
L 2247 1797 
L 3578 0 
L 2900 0 
L 1881 1375 
L 863 0 
L 184 0 
L 1544 1831 
L 300 3500 
L 978 3500 
L 1906 2253 
L 2834 3500 
L 3513 3500 
z
" transform="scale(0.015625)"/>
     </defs>
     <use xlink:href="#DejaVuSans-2b"/>
     <use xlink:href="#DejaVuSans-44" transform="translate(75.203125 0)"/>
     <use xlink:href="#DejaVuSans-55" transform="translate(136.484375 0)"/>
     <use xlink:href="#DejaVuSans-47" transform="translate(175.84375 0)"/>
     <use xlink:href="#DejaVuSans-48" transform="translate(239.328125 0)"/>
     <use xlink:href="#DejaVuSans-51" transform="translate(300.859375 0)"/>
     <use xlink:href="#DejaVuSans-4c" transform="translate(364.234375 0)"/>
     <use xlink:href="#DejaVuSans-51" transform="translate(392.015625 0)"/>
     <use xlink:href="#DejaVuSans-4a" transform="translate(455.390625 0)"/>
     <use xlink:href="#DejaVuSans-3" transform="translate(518.875 0)"/>
     <use xlink:href="#DejaVuSans-57" transform="translate(550.65625 0)"/>
     <use xlink:href="#DejaVuSans-48" transform="translate(589.859375 0)"/>
     <use xlink:href="#DejaVuSans-56" transform="translate(651.390625 0)"/>
     <use xlink:href="#DejaVuSans-57" transform="translate(703.484375 0)"/>
     <use xlink:href="#DejaVuSans-56" transform="translate(742.6875 0)"/>
     <use xlink:href="#DejaVuSans-3" transform="translate(794.78125 0)"/>
     <use xlink:href="#DejaVuSans-13af" transform="translate(826.5625 0)"/>
     <use xlink:href="#DejaVuSans-5b" transform="translate(889.546875 0)"/>
     <use xlink:href="#DejaVuSans-48" transform="translate(945.65625 0)"/>
     <use xlink:href="#DejaVuSans-47" transform="translate(1007.1875 0)"/>
     <use xlink:href="#DejaVuSans-3" transform="translate(1070.671875 0)"/>
     <use xlink:href="#DejaVuSans-b" transform="translate(1102.453125 0)"/>
     <use xlink:href="#DejaVuSans-4b" transform="translate(1141.46875 0)"/>
     <use xlink:href="#DejaVuSans-4c" transform="translate(1204.84375 0)"/>
     <use xlink:href="#DejaVuSans-4a" transform="translate(1232.625 0)"/>
     <use xlink:href="#DejaVuSans-4b" transform="translate(1296.109375 0)"/>
     <use xlink:href="#DejaVuSans-48" transform="translate(1359.484375 0)"/>
     <use xlink:href="#DejaVuSans-55" transform="translate(1421.015625 0)"/>
     <use xlink:href="#DejaVuSans-3" transform="translate(1462.125 0)"/>
     <use xlink:href="#DejaVuSans-20" transform="translate(1493.90625 0)"/>
     <use xlink:href="#DejaVuSans-3" transform="translate(1577.703125 0)"/>
     <use xlink:href="#DejaVuSans-46" transform="translate(1609.484375 0)"/>
     <use xlink:href="#DejaVuSans-52" transform="translate(1664.46875 0)"/>
     <use xlink:href="#DejaVuSans-55" transform="translate(1725.65625 0)"/>
     <use xlink:href="#DejaVuSans-55" transform="translate(1765.015625 0)"/>
     <use xlink:href="#DejaVuSans-48" transform="translate(1803.921875 0)"/>
     <use xlink:href="#DejaVuSans-46" transform="translate(1865.453125 0)"/>
     <use xlink:href="#DejaVuSans-57" transform="translate(1920.4375 0)"/>
     <use xlink:href="#DejaVuSans-c" transform="translate(1959.640625 0)"/>
    </g>
   </g>
  </g>
  <g id="text_54">
   <!-- Naive vs optimized graph - same task, gemini-3.1-flash-lite  (cost is not the only axis) -->
   <g transform="translate(357.504375 15.742125) scale(0.12 -0.12)">
    <defs>
     <path id="DejaVuSans-Bold-31" d="M 588 4666 
L 1931 4666 
L 3628 1466 
L 3628 4666 
L 4769 4666 
L 4769 0 
L 3425 0 
L 1728 3200 
L 1728 0 
L 588 0 
L 588 4666 
z
" transform="scale(0.015625)"/>
     <path id="DejaVuSans-Bold-44" d="M 2106 1575 
Q 1756 1575 1579 1456 
Q 1403 1338 1403 1106 
Q 1403 894 1545 773 
Q 1688 653 1941 653 
Q 2256 653 2472 879 
Q 2688 1106 2688 1447 
L 2688 1575 
L 2106 1575 
z
M 3816 1997 
L 3816 0 
L 2688 0 
L 2688 519 
Q 2463 200 2181 54 
Q 1900 -91 1497 -91 
Q 953 -91 614 226 
Q 275 544 275 1050 
Q 275 1666 698 1953 
Q 1122 2241 2028 2241 
L 2688 2241 
L 2688 2328 
Q 2688 2594 2478 2717 
Q 2269 2841 1825 2841 
Q 1466 2841 1156 2769 
Q 847 2697 581 2553 
L 581 3406 
Q 941 3494 1303 3539 
Q 1666 3584 2028 3584 
Q 2975 3584 3395 3211 
Q 3816 2838 3816 1997 
z
" transform="scale(0.015625)"/>
     <path id="DejaVuSans-Bold-4c" d="M 538 3500 
L 1656 3500 
L 1656 0 
L 538 0 
L 538 3500 
z
M 538 4863 
L 1656 4863 
L 1656 3950 
L 538 3950 
L 538 4863 
z
" transform="scale(0.015625)"/>
     <path id="DejaVuSans-Bold-59" d="M 97 3500 
L 1216 3500 
L 2088 1081 
L 2956 3500 
L 4078 3500 
L 2700 0 
L 1472 0 
L 97 3500 
z
" transform="scale(0.015625)"/>
     <path id="DejaVuSans-Bold-48" d="M 4031 1759 
L 4031 1441 
L 1416 1441 
Q 1456 1047 1700 850 
Q 1944 653 2381 653 
Q 2734 653 3104 758 
Q 3475 863 3866 1075 
L 3866 213 
Q 3469 63 3072 -14 
Q 2675 -91 2278 -91 
Q 1328 -91 801 392 
Q 275 875 275 1747 
Q 275 2603 792 3093 
Q 1309 3584 2216 3584 
Q 3041 3584 3536 3087 
Q 4031 2591 4031 1759 
z
M 2881 2131 
Q 2881 2450 2695 2645 
Q 2509 2841 2209 2841 
Q 1884 2841 1681 2658 
Q 1478 2475 1428 2131 
L 2881 2131 
z
" transform="scale(0.015625)"/>
     <path id="DejaVuSans-Bold-56" d="M 3272 3391 
L 3272 2541 
Q 2913 2691 2578 2766 
Q 2244 2841 1947 2841 
Q 1628 2841 1473 2761 
Q 1319 2681 1319 2516 
Q 1319 2381 1436 2309 
Q 1553 2238 1856 2203 
L 2053 2175 
Q 2913 2066 3209 1816 
Q 3506 1566 3506 1031 
Q 3506 472 3093 190 
Q 2681 -91 1863 -91 
Q 1516 -91 1145 -36 
Q 775 19 384 128 
L 384 978 
Q 719 816 1070 734 
Q 1422 653 1784 653 
Q 2113 653 2278 743 
Q 2444 834 2444 1013 
Q 2444 1163 2330 1236 
Q 2216 1309 1875 1350 
L 1678 1375 
Q 931 1469 631 1722 
Q 331 1975 331 2491 
Q 331 3047 712 3315 
Q 1094 3584 1881 3584 
Q 2191 3584 2531 3537 
Q 2872 3491 3272 3391 
z
" transform="scale(0.015625)"/>
     <path id="DejaVuSans-Bold-52" d="M 2203 2784 
Q 1831 2784 1636 2517 
Q 1441 2250 1441 1747 
Q 1441 1244 1636 976 
Q 1831 709 2203 709 
Q 2569 709 2762 976 
Q 2956 1244 2956 1747 
Q 2956 2250 2762 2517 
Q 2569 2784 2203 2784 
z
M 2203 3584 
Q 3106 3584 3614 3096 
Q 4122 2609 4122 1747 
Q 4122 884 3614 396 
Q 3106 -91 2203 -91 
Q 1297 -91 786 396 
Q 275 884 275 1747 
Q 275 2609 786 3096 
Q 1297 3584 2203 3584 
z
" transform="scale(0.015625)"/>
     <path id="DejaVuSans-Bold-53" d="M 1656 506 
L 1656 -1331 
L 538 -1331 
L 538 3500 
L 1656 3500 
L 1656 2988 
Q 1888 3294 2169 3439 
Q 2450 3584 2816 3584 
Q 3463 3584 3878 3070 
Q 4294 2556 4294 1747 
Q 4294 938 3878 423 
Q 3463 -91 2816 -91 
Q 2450 -91 2169 54 
Q 1888 200 1656 506 
z
M 2400 2772 
Q 2041 2772 1848 2508 
Q 1656 2244 1656 1747 
Q 1656 1250 1848 986 
Q 2041 722 2400 722 
Q 2759 722 2948 984 
Q 3138 1247 3138 1747 
Q 3138 2247 2948 2509 
Q 2759 2772 2400 2772 
z
" transform="scale(0.015625)"/>
     <path id="DejaVuSans-Bold-57" d="M 1759 4494 
L 1759 3500 
L 2913 3500 
L 2913 2700 
L 1759 2700 
L 1759 1216 
Q 1759 972 1856 886 
Q 1953 800 2241 800 
L 2816 800 
L 2816 0 
L 1856 0 
Q 1194 0 917 276 
Q 641 553 641 1216 
L 641 2700 
L 84 2700 
L 84 3500 
L 641 3500 
L 641 4494 
L 1759 4494 
z
" transform="scale(0.015625)"/>
     <path id="DejaVuSans-Bold-50" d="M 3781 2919 
Q 3994 3244 4286 3414 
Q 4578 3584 4928 3584 
Q 5531 3584 5847 3212 
Q 6163 2841 6163 2131 
L 6163 0 
L 5038 0 
L 5038 1825 
Q 5041 1866 5042 1909 
Q 5044 1953 5044 2034 
Q 5044 2406 4934 2573 
Q 4825 2741 4581 2741 
Q 4263 2741 4089 2478 
Q 3916 2216 3909 1719 
L 3909 0 
L 2784 0 
L 2784 1825 
Q 2784 2406 2684 2573 
Q 2584 2741 2328 2741 
Q 2006 2741 1831 2477 
Q 1656 2213 1656 1722 
L 1656 0 
L 531 0 
L 531 3500 
L 1656 3500 
L 1656 2988 
Q 1863 3284 2130 3434 
Q 2397 3584 2719 3584 
Q 3081 3584 3359 3409 
Q 3638 3234 3781 2919 
z
" transform="scale(0.015625)"/>
     <path id="DejaVuSans-Bold-5d" d="M 366 3500 
L 3419 3500 
L 3419 2719 
L 1575 800 
L 3419 800 
L 3419 0 
L 288 0 
L 288 781 
L 2131 2700 
L 366 2700 
L 366 3500 
z
" transform="scale(0.015625)"/>
     <path id="DejaVuSans-Bold-47" d="M 2919 2988 
L 2919 4863 
L 4044 4863 
L 4044 0 
L 2919 0 
L 2919 506 
Q 2688 197 2409 53 
Q 2131 -91 1766 -91 
Q 1119 -91 703 423 
Q 288 938 288 1747 
Q 288 2556 703 3070 
Q 1119 3584 1766 3584 
Q 2128 3584 2408 3439 
Q 2688 3294 2919 2988 
z
M 2181 722 
Q 2541 722 2730 984 
Q 2919 1247 2919 1747 
Q 2919 2247 2730 2509 
Q 2541 2772 2181 2772 
Q 1825 2772 1636 2509 
Q 1447 2247 1447 1747 
Q 1447 1247 1636 984 
Q 1825 722 2181 722 
z
" transform="scale(0.015625)"/>
     <path id="DejaVuSans-Bold-4a" d="M 2919 594 
Q 2688 288 2409 144 
Q 2131 0 1766 0 
Q 1125 0 706 504 
Q 288 1009 288 1791 
Q 288 2575 706 3076 
Q 1125 3578 1766 3578 
Q 2131 3578 2409 3434 
Q 2688 3291 2919 2981 
L 2919 3500 
L 4044 3500 
L 4044 353 
Q 4044 -491 3511 -936 
Q 2978 -1381 1966 -1381 
Q 1638 -1381 1331 -1331 
Q 1025 -1281 716 -1178 
L 716 -306 
Q 1009 -475 1290 -558 
Q 1572 -641 1856 -641 
Q 2406 -641 2662 -400 
Q 2919 -159 2919 353 
L 2919 594 
z
M 2181 2772 
Q 1834 2772 1640 2515 
Q 1447 2259 1447 1791 
Q 1447 1309 1634 1061 
Q 1822 813 2181 813 
Q 2531 813 2725 1069 
Q 2919 1325 2919 1791 
Q 2919 2259 2725 2515 
Q 2531 2772 2181 2772 
z
" transform="scale(0.015625)"/>
     <path id="DejaVuSans-Bold-55" d="M 3138 2547 
Q 2991 2616 2845 2648 
Q 2700 2681 2553 2681 
Q 2122 2681 1889 2404 
Q 1656 2128 1656 1613 
L 1656 0 
L 538 0 
L 538 3500 
L 1656 3500 
L 1656 2925 
Q 1872 3269 2151 3426 
Q 2431 3584 2822 3584 
Q 2878 3584 2943 3579 
Q 3009 3575 3134 3559 
L 3138 2547 
z
" transform="scale(0.015625)"/>
     <path id="DejaVuSans-Bold-4b" d="M 4056 2131 
L 4056 0 
L 2931 0 
L 2931 347 
L 2931 1625 
Q 2931 2084 2911 2256 
Q 2891 2428 2841 2509 
Q 2775 2619 2662 2680 
Q 2550 2741 2406 2741 
Q 2056 2741 1856 2470 
Q 1656 2200 1656 1722 
L 1656 0 
L 538 0 
L 538 4863 
L 1656 4863 
L 1656 2988 
Q 1909 3294 2193 3439 
Q 2478 3584 2822 3584 
Q 3428 3584 3742 3212 
Q 4056 2841 4056 2131 
z
" transform="scale(0.015625)"/>
     <path id="DejaVuSans-Bold-4e" d="M 538 4863 
L 1656 4863 
L 1656 2216 
L 2944 3500 
L 4244 3500 
L 2534 1894 
L 4378 0 
L 3022 0 
L 1656 1459 
L 1656 0 
L 538 0 
L 538 4863 
z
" transform="scale(0.015625)"/>
     <path id="DejaVuSans-Bold-f" d="M 653 1209 
L 1778 1209 
L 1778 256 
L 1006 -909 
L 341 -909 
L 653 256 
L 653 1209 
z
" transform="scale(0.015625)"/>
     <path id="DejaVuSans-Bold-51" d="M 4056 2131 
L 4056 0 
L 2931 0 
L 2931 347 
L 2931 1631 
Q 2931 2084 2911 2256 
Q 2891 2428 2841 2509 
Q 2775 2619 2662 2680 
Q 2550 2741 2406 2741 
Q 2056 2741 1856 2470 
Q 1656 2200 1656 1722 
L 1656 0 
L 538 0 
L 538 3500 
L 1656 3500 
L 1656 2988 
Q 1909 3294 2193 3439 
Q 2478 3584 2822 3584 
Q 3428 3584 3742 3212 
Q 4056 2841 4056 2131 
z
" transform="scale(0.015625)"/>
     <path id="DejaVuSans-Bold-16" d="M 2981 2516 
Q 3453 2394 3698 2092 
Q 3944 1791 3944 1325 
Q 3944 631 3412 270 
Q 2881 -91 1863 -91 
Q 1503 -91 1142 -33 
Q 781 25 428 141 
L 428 1069 
Q 766 900 1098 814 
Q 1431 728 1753 728 
Q 2231 728 2486 893 
Q 2741 1059 2741 1369 
Q 2741 1688 2480 1852 
Q 2219 2016 1709 2016 
L 1228 2016 
L 1228 2791 
L 1734 2791 
Q 2188 2791 2409 2933 
Q 2631 3075 2631 3366 
Q 2631 3634 2415 3781 
Q 2200 3928 1806 3928 
Q 1516 3928 1219 3862 
Q 922 3797 628 3669 
L 628 4550 
Q 984 4650 1334 4700 
Q 1684 4750 2022 4750 
Q 2931 4750 3382 4451 
Q 3834 4153 3834 3553 
Q 3834 3144 3618 2883 
Q 3403 2622 2981 2516 
z
" transform="scale(0.015625)"/>
     <path id="DejaVuSans-Bold-11" d="M 653 1209 
L 1778 1209 
L 1778 0 
L 653 0 
L 653 1209 
z
" transform="scale(0.015625)"/>
     <path id="DejaVuSans-Bold-13ac" d="M 1984 4863 
L 4206 4863 
L 4206 0 
L 3078 0 
L 3078 4128 
L 2222 4128 
Q 1984 4128 1890 4042 
Q 1797 3956 1797 3744 
L 1797 3500 
L 2675 3500 
L 2675 2700 
L 1797 2700 
L 1797 0 
L 678 0 
L 678 2700 
L 122 2700 
L 122 3500 
L 678 3500 
L 678 3744 
Q 678 4316 997 4589 
Q 1316 4863 1984 4863 
z
" transform="scale(0.015625)"/>
     <path id="DejaVuSans-Bold-4f" d="M 538 4863 
L 1656 4863 
L 1656 0 
L 538 0 
L 538 4863 
z
" transform="scale(0.015625)"/>
     <path id="DejaVuSans-Bold-b" d="M 2413 -844 
L 1484 -844 
Q 1006 -72 778 623 
Q 550 1319 550 2003 
Q 550 2688 779 3389 
Q 1009 4091 1484 4856 
L 2413 4856 
Q 2013 4116 1813 3408 
Q 1613 2700 1613 2009 
Q 1613 1319 1811 609 
Q 2009 -100 2413 -844 
z
" transform="scale(0.015625)"/>
     <path id="DejaVuSans-Bold-46" d="M 3366 3391 
L 3366 2478 
Q 3138 2634 2908 2709 
Q 2678 2784 2431 2784 
Q 1963 2784 1702 2511 
Q 1441 2238 1441 1747 
Q 1441 1256 1702 982 
Q 1963 709 2431 709 
Q 2694 709 2930 787 
Q 3166 866 3366 1019 
L 3366 103 
Q 3103 6 2833 -42 
Q 2563 -91 2291 -91 
Q 1344 -91 809 395 
Q 275 881 275 1747 
Q 275 2613 809 3098 
Q 1344 3584 2291 3584 
Q 2566 3584 2833 3536 
Q 3100 3488 3366 3391 
z
" transform="scale(0.015625)"/>
     <path id="DejaVuSans-Bold-5c" d="M 78 3500 
L 1197 3500 
L 2138 1125 
L 2938 3500 
L 4056 3500 
L 2584 -331 
Q 2363 -916 2067 -1148 
Q 1772 -1381 1288 -1381 
L 641 -1381 
L 641 -647 
L 991 -647 
Q 1275 -647 1404 -556 
Q 1534 -466 1606 -231 
L 1638 -134 
L 78 3500 
z
" transform="scale(0.015625)"/>
     <path id="DejaVuSans-Bold-5b" d="M 1422 1791 
L 159 3500 
L 1344 3500 
L 2059 2463 
L 2784 3500 
L 3969 3500 
L 2706 1797 
L 4031 0 
L 2847 0 
L 2059 1106 
L 1281 0 
L 97 0 
L 1422 1791 
z
" transform="scale(0.015625)"/>
     <path id="DejaVuSans-Bold-c" d="M 513 -844 
Q 913 -100 1113 609 
Q 1313 1319 1313 2009 
Q 1313 2700 1113 3408 
Q 913 4116 513 4856 
L 1441 4856 
Q 1916 4091 2145 3389 
Q 2375 2688 2375 2003 
Q 2375 1319 2147 623 
Q 1919 -72 1441 -844 
L 513 -844 
z
" transform="scale(0.015625)"/>
    </defs>
    <use xlink:href="#DejaVuSans-Bold-31"/>
    <use xlink:href="#DejaVuSans-Bold-44" transform="translate(83.6875 0)"/>
    <use xlink:href="#DejaVuSans-Bold-4c" transform="translate(151.171875 0)"/>
    <use xlink:href="#DejaVuSans-Bold-59" transform="translate(185.453125 0)"/>
    <use xlink:href="#DejaVuSans-Bold-48" transform="translate(250.640625 0)"/>
    <use xlink:href="#DejaVuSans-Bold-3" transform="translate(318.46875 0)"/>
    <use xlink:href="#DejaVuSans-Bold-59" transform="translate(353.28125 0)"/>
    <use xlink:href="#DejaVuSans-Bold-56" transform="translate(418.46875 0)"/>
    <use xlink:href="#DejaVuSans-Bold-3" transform="translate(477.984375 0)"/>
    <use xlink:href="#DejaVuSans-Bold-52" transform="translate(512.796875 0)"/>
    <use xlink:href="#DejaVuSans-Bold-53" transform="translate(581.5 0)"/>
    <use xlink:href="#DejaVuSans-Bold-57" transform="translate(653.078125 0)"/>
    <use xlink:href="#DejaVuSans-Bold-4c" transform="translate(700.875 0)"/>
    <use xlink:href="#DejaVuSans-Bold-50" transform="translate(735.15625 0)"/>
    <use xlink:href="#DejaVuSans-Bold-4c" transform="translate(839.359375 0)"/>
    <use xlink:href="#DejaVuSans-Bold-5d" transform="translate(873.640625 0)"/>
    <use xlink:href="#DejaVuSans-Bold-48" transform="translate(931.84375 0)"/>
    <use xlink:href="#DejaVuSans-Bold-47" transform="translate(999.671875 0)"/>
    <use xlink:href="#DejaVuSans-Bold-3" transform="translate(1071.25 0)"/>
    <use xlink:href="#DejaVuSans-Bold-4a" transform="translate(1106.0625 0)"/>
    <use xlink:href="#DejaVuSans-Bold-55" transform="translate(1177.640625 0)"/>
    <use xlink:href="#DejaVuSans-Bold-44" transform="translate(1226.953125 0)"/>
    <use xlink:href="#DejaVuSans-Bold-53" transform="translate(1294.4375 0)"/>
    <use xlink:href="#DejaVuSans-Bold-4b" transform="translate(1366.015625 0)"/>
    <use xlink:href="#DejaVuSans-Bold-3" transform="translate(1437.203125 0)"/>
    <use xlink:href="#DejaVuSans-Bold-10" transform="translate(1472.015625 0)"/>
    <use xlink:href="#DejaVuSans-Bold-3" transform="translate(1513.515625 0)"/>
    <use xlink:href="#DejaVuSans-Bold-56" transform="translate(1548.328125 0)"/>
    <use xlink:href="#DejaVuSans-Bold-44" transform="translate(1607.84375 0)"/>
    <use xlink:href="#DejaVuSans-Bold-50" transform="translate(1675.328125 0)"/>
    <use xlink:href="#DejaVuSans-Bold-48" transform="translate(1779.53125 0)"/>
    <use xlink:href="#DejaVuSans-Bold-3" transform="translate(1847.359375 0)"/>
    <use xlink:href="#DejaVuSans-Bold-57" transform="translate(1882.171875 0)"/>
    <use xlink:href="#DejaVuSans-Bold-44" transform="translate(1929.96875 0)"/>
    <use xlink:href="#DejaVuSans-Bold-56" transform="translate(1997.453125 0)"/>
    <use xlink:href="#DejaVuSans-Bold-4e" transform="translate(2056.96875 0)"/>
    <use xlink:href="#DejaVuSans-Bold-f" transform="translate(2123.46875 0)"/>
    <use xlink:href="#DejaVuSans-Bold-3" transform="translate(2161.453125 0)"/>
    <use xlink:href="#DejaVuSans-Bold-4a" transform="translate(2196.265625 0)"/>
    <use xlink:href="#DejaVuSans-Bold-48" transform="translate(2267.84375 0)"/>
    <use xlink:href="#DejaVuSans-Bold-50" transform="translate(2335.671875 0)"/>
    <use xlink:href="#DejaVuSans-Bold-4c" transform="translate(2439.875 0)"/>
    <use xlink:href="#DejaVuSans-Bold-51" transform="translate(2474.15625 0)"/>
    <use xlink:href="#DejaVuSans-Bold-4c" transform="translate(2545.34375 0)"/>
    <use xlink:href="#DejaVuSans-Bold-10" transform="translate(2579.625 0)"/>
    <use xlink:href="#DejaVuSans-Bold-16" transform="translate(2621.125 0)"/>
    <use xlink:href="#DejaVuSans-Bold-11" transform="translate(2690.703125 0)"/>
    <use xlink:href="#DejaVuSans-Bold-14" transform="translate(2728.6875 0)"/>
    <use xlink:href="#DejaVuSans-Bold-10" transform="translate(2798.265625 0)"/>
    <use xlink:href="#DejaVuSans-Bold-13ac" transform="translate(2839.765625 0)"/>
    <use xlink:href="#DejaVuSans-Bold-44" transform="translate(2913.890625 0)"/>
    <use xlink:href="#DejaVuSans-Bold-56" transform="translate(2981.375 0)"/>
    <use xlink:href="#DejaVuSans-Bold-4b" transform="translate(3040.890625 0)"/>
    <use xlink:href="#DejaVuSans-Bold-10" transform="translate(3112.078125 0)"/>
    <use xlink:href="#DejaVuSans-Bold-4f" transform="translate(3153.578125 0)"/>
    <use xlink:href="#DejaVuSans-Bold-4c" transform="translate(3187.859375 0)"/>
    <use xlink:href="#DejaVuSans-Bold-57" transform="translate(3222.140625 0)"/>
    <use xlink:href="#DejaVuSans-Bold-48" transform="translate(3269.9375 0)"/>
    <use xlink:href="#DejaVuSans-Bold-3" transform="translate(3337.765625 0)"/>
    <use xlink:href="#DejaVuSans-Bold-3" transform="translate(3372.578125 0)"/>
    <use xlink:href="#DejaVuSans-Bold-b" transform="translate(3407.390625 0)"/>
    <use xlink:href="#DejaVuSans-Bold-46" transform="translate(3453.09375 0)"/>
    <use xlink:href="#DejaVuSans-Bold-52" transform="translate(3512.375 0)"/>
    <use xlink:href="#DejaVuSans-Bold-56" transform="translate(3581.078125 0)"/>
    <use xlink:href="#DejaVuSans-Bold-57" transform="translate(3640.59375 0)"/>
    <use xlink:href="#DejaVuSans-Bold-3" transform="translate(3688.390625 0)"/>
    <use xlink:href="#DejaVuSans-Bold-4c" transform="translate(3723.203125 0)"/>
    <use xlink:href="#DejaVuSans-Bold-56" transform="translate(3757.484375 0)"/>
    <use xlink:href="#DejaVuSans-Bold-3" transform="translate(3817 0)"/>
    <use xlink:href="#DejaVuSans-Bold-51" transform="translate(3851.8125 0)"/>
    <use xlink:href="#DejaVuSans-Bold-52" transform="translate(3923 0)"/>
    <use xlink:href="#DejaVuSans-Bold-57" transform="translate(3991.703125 0)"/>
    <use xlink:href="#DejaVuSans-Bold-3" transform="translate(4039.5 0)"/>
    <use xlink:href="#DejaVuSans-Bold-57" transform="translate(4074.3125 0)"/>
    <use xlink:href="#DejaVuSans-Bold-4b" transform="translate(4122.109375 0)"/>
    <use xlink:href="#DejaVuSans-Bold-48" transform="translate(4193.296875 0)"/>
    <use xlink:href="#DejaVuSans-Bold-3" transform="translate(4261.125 0)"/>
    <use xlink:href="#DejaVuSans-Bold-52" transform="translate(4295.9375 0)"/>
    <use xlink:href="#DejaVuSans-Bold-51" transform="translate(4364.640625 0)"/>
    <use xlink:href="#DejaVuSans-Bold-4f" transform="translate(4435.828125 0)"/>
    <use xlink:href="#DejaVuSans-Bold-5c" transform="translate(4470.109375 0)"/>
    <use xlink:href="#DejaVuSans-Bold-3" transform="translate(4535.296875 0)"/>
    <use xlink:href="#DejaVuSans-Bold-44" transform="translate(4570.109375 0)"/>
    <use xlink:href="#DejaVuSans-Bold-5b" transform="translate(4637.59375 0)"/>
    <use xlink:href="#DejaVuSans-Bold-4c" transform="translate(4702.09375 0)"/>
    <use xlink:href="#DejaVuSans-Bold-56" transform="translate(4736.375 0)"/>
    <use xlink:href="#DejaVuSans-Bold-c" transform="translate(4795.890625 0)"/>
   </g>
  </g>
 </g>
 <defs>
  <clipPath id="p0d77e11a04">
   <rect x="64.522344" y="75.698813" width="269.439414" height="227.378844"/>
  </clipPath>
  <clipPath id="p9f29a5483d">
   <rect x="381.601758" y="75.698813" width="269.439414" height="227.378844"/>
  </clipPath>
  <clipPath id="p6f51742a74">
   <rect x="698.681172" y="75.698813" width="269.439414" height="227.378844"/>
  </clipPath>
  <clipPath id="p686180dad6">
   <rect x="1015.760586" y="75.698813" width="269.439414" height="227.378844"/>
  </clipPath>
 </defs>
</svg>
