<?xml version="1.0" encoding="utf-8" standalone="no"?>
<!DOCTYPE svg PUBLIC "-//W3C//DTD SVG 1.1//EN"
  "http://www.w3.org/Graphics/SVG/1.1/DTD/svg11.dtd">
<svg xmlns:xlink="http://www.w3.org/1999/xlink" width="899.98875pt" height="416.848898pt" viewBox="0 0 899.98875 416.848898" xmlns="http://www.w3.org/2000/svg" version="1.1">
 <metadata>
  <rdf:RDF xmlns:dc="http://purl.org/dc/elements/1.1/" xmlns:cc="http://creativecommons.org/ns#" xmlns:rdf="http://www.w3.org/1999/02/22-rdf-syntax-ns#">
   <cc:Work>
    <dc:type rdf:resource="http://purl.org/dc/dcmitype/StillImage"/>
    <dc:date>2026-07-01T01:17:19.063011</dc:date>
    <dc:format>image/svg+xml</dc:format>
    <dc:creator>
     <cc:Agent>
      <dc:title>Matplotlib v3.11.0, https://matplotlib.org/</dc:title>
     </cc:Agent>
    </dc:creator>
   </cc:Work>
  </rdf:RDF>
 </metadata>
 <defs>
  <style type="text/css">*{stroke-linejoin: round; stroke-linecap: butt}</style>
 </defs>
 <g id="figure_1">
  <g id="patch_1">
   <path d="M 0 416.848898 
L 899.98875 416.848898 
L 899.98875 0 
L 0 0 
z
" style="fill: #ffffff"/>
  </g>
  <g id="axes_1">
   <g id="patch_2">
    <path d="M 37.42875 384.408 
L 422.726047 384.408 
L 422.726047 80.856 
L 37.42875 80.856 
z
" style="fill: #ffffff"/>
   </g>
   <g id="matplotlib.axis_1">
    <g id="xtick_1">
     <g id="line2d_1"/>
     <g id="text_1">
      <!-- Naive -->
      <g style="fill: #1a1d23" transform="translate(78.655415 396.321818) scale(0.11 -0.11)">
       <defs>
        <path id="Helvetica-31" d="M 488 4591 
L 1222 4591 
L 3541 872 
L 3541 4591 
L 4131 4591 
L 4131 0 
L 3434 0 
L 1081 3716 
L 1081 0 
L 488 0 
L 488 4591 
z
M 2269 4591 
L 2269 4591 
z
" transform="scale(0.015625)"/>
        <path id="Helvetica-44" d="M 844 891 
Q 844 647 1022 506 
Q 1200 366 1444 366 
Q 1741 366 2019 503 
Q 2488 731 2488 1250 
L 2488 1703 
Q 2384 1638 2221 1594 
Q 2059 1550 1903 1531 
L 1563 1488 
Q 1256 1447 1103 1359 
Q 844 1213 844 891 
z
M 2206 2028 
Q 2400 2053 2466 2191 
Q 2503 2266 2503 2406 
Q 2503 2694 2298 2823 
Q 2094 2953 1713 2953 
Q 1272 2953 1088 2716 
Q 984 2584 953 2325 
L 428 2325 
Q 444 2944 830 3186 
Q 1216 3428 1725 3428 
Q 2316 3428 2684 3203 
Q 3050 2978 3050 2503 
L 3050 575 
Q 3050 488 3086 434 
Q 3122 381 3238 381 
Q 3275 381 3322 386 
Q 3369 391 3422 400 
L 3422 -16 
Q 3291 -53 3222 -62 
Q 3153 -72 3034 -72 
Q 2744 -72 2613 134 
Q 2544 244 2516 444 
Q 2344 219 2022 53 
Q 1700 -113 1313 -113 
Q 847 -113 551 170 
Q 256 453 256 878 
Q 256 1344 547 1600 
Q 838 1856 1309 1916 
L 2206 2028 
z
M 1741 3428 
L 1741 3428 
z
" transform="scale(0.015625)"/>
        <path id="Helvetica-4c" d="M 413 3331 
L 984 3331 
L 984 0 
L 413 0 
L 413 3331 
z
M 413 4591 
L 984 4591 
L 984 3953 
L 413 3953 
L 413 4591 
z
" transform="scale(0.015625)"/>
        <path id="Helvetica-59" d="M 688 3347 
L 1581 622 
L 2516 3347 
L 3131 3347 
L 1869 0 
L 1269 0 
L 34 3347 
L 688 3347 
z
" transform="scale(0.015625)"/>
        <path id="Helvetica-48" d="M 1806 3422 
Q 2163 3422 2497 3255 
Q 2831 3088 3006 2822 
Q 3175 2569 3231 2231 
Q 3281 2000 3281 1494 
L 828 1494 
Q 844 984 1069 676 
Q 1294 369 1766 369 
Q 2206 369 2469 659 
Q 2619 828 2681 1050 
L 3234 1050 
Q 3213 866 3089 639 
Q 2966 413 2813 269 
Q 2556 19 2178 -69 
Q 1975 -119 1719 -119 
Q 1094 -119 659 336 
Q 225 791 225 1609 
Q 225 2416 662 2919 
Q 1100 3422 1806 3422 
z
M 2703 1941 
Q 2669 2306 2544 2525 
Q 2313 2931 1772 2931 
Q 1384 2931 1121 2651 
Q 859 2372 844 1941 
L 2703 1941 
z
M 1753 3428 
L 1753 3428 
z
" transform="scale(0.015625)"/>
       </defs>
       <use xlink:href="#Helvetica-31"/>
       <use xlink:href="#Helvetica-44" transform="translate(72.21875 0)"/>
       <use xlink:href="#Helvetica-4c" transform="translate(127.828125 0)"/>
       <use xlink:href="#Helvetica-59" transform="translate(150.046875 0)"/>
       <use xlink:href="#Helvetica-48" transform="translate(200.046875 0)"/>
      </g>
      <!-- (full context) -->
      <g style="fill: #1a1d23" transform="translate(62.763852 406.768596) scale(0.11 -0.11)">
       <defs>
        <path id="Helvetica-b" d="M 1894 4666 
Q 1403 3713 1256 3263 
Q 1034 2578 1034 1681 
Q 1034 775 1288 25 
Q 1444 -438 1903 -1306 
L 1525 -1306 
Q 1069 -594 959 -397 
Q 850 -200 722 138 
Q 547 600 478 1125 
Q 444 1397 444 1644 
Q 444 2569 734 3291 
Q 919 3750 1503 4666 
L 1894 4666 
z
" transform="scale(0.015625)"/>
        <path id="Helvetica-49" d="M 553 3856 
Q 566 4206 675 4369 
Q 872 4656 1434 4656 
Q 1488 4656 1544 4653 
Q 1600 4650 1672 4644 
L 1672 4131 
Q 1584 4138 1545 4139 
Q 1506 4141 1472 4141 
Q 1216 4141 1166 4008 
Q 1116 3875 1116 3331 
L 1672 3331 
L 1672 2888 
L 1109 2888 
L 1109 0 
L 553 0 
L 553 2888 
L 88 2888 
L 88 3331 
L 553 3331 
L 553 3856 
z
" transform="scale(0.015625)"/>
        <path id="Helvetica-58" d="M 975 3347 
L 975 1125 
Q 975 869 1056 706 
Q 1206 406 1616 406 
Q 2203 406 2416 931 
Q 2531 1213 2531 1703 
L 2531 3347 
L 3094 3347 
L 3094 0 
L 2563 0 
L 2569 494 
Q 2459 303 2297 172 
Q 1975 -91 1516 -91 
Q 800 -91 541 388 
Q 400 644 400 1072 
L 400 3347 
L 975 3347 
z
M 1747 3428 
L 1747 3428 
z
" transform="scale(0.015625)"/>
        <path id="Helvetica-4f" d="M 428 4591 
L 991 4591 
L 991 0 
L 428 0 
L 428 4591 
z
" transform="scale(0.015625)"/>
        <path id="Helvetica-3" transform="scale(0.015625)"/>
        <path id="Helvetica-46" d="M 1703 3444 
Q 2269 3444 2623 3169 
Q 2978 2894 3050 2222 
L 2503 2222 
Q 2453 2531 2275 2736 
Q 2097 2941 1703 2941 
Q 1166 2941 934 2416 
Q 784 2075 784 1575 
Q 784 1072 996 728 
Q 1209 384 1666 384 
Q 2016 384 2220 598 
Q 2425 813 2503 1184 
L 3050 1184 
Q 2956 519 2581 211 
Q 2206 -97 1622 -97 
Q 966 -97 575 383 
Q 184 863 184 1581 
Q 184 2463 612 2953 
Q 1041 3444 1703 3444 
z
M 1616 3428 
L 1616 3428 
z
" transform="scale(0.015625)"/>
        <path id="Helvetica-52" d="M 1741 363 
Q 2300 363 2508 786 
Q 2716 1209 2716 1728 
Q 2716 2197 2566 2491 
Q 2328 2953 1747 2953 
Q 1231 2953 997 2559 
Q 763 2166 763 1609 
Q 763 1075 997 719 
Q 1231 363 1741 363 
z
M 1763 3444 
Q 2409 3444 2856 3012 
Q 3303 2581 3303 1744 
Q 3303 934 2909 406 
Q 2516 -122 1688 -122 
Q 997 -122 590 345 
Q 184 813 184 1600 
Q 184 2444 612 2944 
Q 1041 3444 1763 3444 
z
M 1744 3428 
L 1744 3428 
z
" transform="scale(0.015625)"/>
        <path id="Helvetica-51" d="M 413 3347 
L 947 3347 
L 947 2872 
Q 1184 3166 1450 3294 
Q 1716 3422 2041 3422 
Q 2753 3422 3003 2925 
Q 3141 2653 3141 2147 
L 3141 0 
L 2569 0 
L 2569 2109 
Q 2569 2416 2478 2603 
Q 2328 2916 1934 2916 
Q 1734 2916 1606 2875 
Q 1375 2806 1200 2600 
Q 1059 2434 1017 2257 
Q 975 2081 975 1753 
L 975 0 
L 413 0 
L 413 3347 
z
M 1734 3428 
L 1734 3428 
z
" transform="scale(0.015625)"/>
        <path id="Helvetica-57" d="M 525 4281 
L 1094 4281 
L 1094 3347 
L 1628 3347 
L 1628 2888 
L 1094 2888 
L 1094 703 
Q 1094 528 1213 469 
Q 1278 434 1431 434 
Q 1472 434 1519 436 
Q 1566 438 1628 444 
L 1628 0 
Q 1531 -28 1426 -40 
Q 1322 -53 1200 -53 
Q 806 -53 665 148 
Q 525 350 525 672 
L 525 2888 
L 72 2888 
L 72 3347 
L 525 3347 
L 525 4281 
z
" transform="scale(0.015625)"/>
        <path id="Helvetica-5b" d="M 94 3347 
L 822 3347 
L 1591 2169 
L 2369 3347 
L 3053 3331 
L 1925 1716 
L 3103 0 
L 2384 0 
L 1553 1256 
L 747 0 
L 34 0 
L 1213 1716 
L 94 3347 
z
" transform="scale(0.015625)"/>
        <path id="Helvetica-c" d="M 222 -1306 
Q 719 -338 863 106 
Q 1081 778 1081 1681 
Q 1081 2584 828 3334 
Q 672 3797 213 4666 
L 591 4666 
Q 1072 3897 1173 3717 
Q 1275 3538 1394 3222 
Q 1544 2831 1608 2450 
Q 1672 2069 1672 1716 
Q 1672 791 1378 66 
Q 1194 -400 613 -1306 
L 222 -1306 
z
" transform="scale(0.015625)"/>
       </defs>
       <use xlink:href="#Helvetica-b"/>
       <use xlink:href="#Helvetica-49" transform="translate(33.296875 0)"/>
       <use xlink:href="#Helvetica-58" transform="translate(61.078125 0)"/>
       <use xlink:href="#Helvetica-4f" transform="translate(116.6875 0)"/>
       <use xlink:href="#Helvetica-4f" transform="translate(138.90625 0)"/>
       <use xlink:href="#Helvetica-3" transform="translate(161.125 0)"/>
       <use xlink:href="#Helvetica-46" transform="translate(188.90625 0)"/>
       <use xlink:href="#Helvetica-52" transform="translate(238.90625 0)"/>
       <use xlink:href="#Helvetica-51" transform="translate(294.515625 0)"/>
       <use xlink:href="#Helvetica-57" transform="translate(350.125 0)"/>
       <use xlink:href="#Helvetica-48" transform="translate(377.90625 0)"/>
       <use xlink:href="#Helvetica-5b" transform="translate(433.515625 0)"/>
       <use xlink:href="#Helvetica-57" transform="translate(483.515625 0)"/>
       <use xlink:href="#Helvetica-c" transform="translate(511.296875 0)"/>
      </g>
     </g>
    </g>
    <g id="xtick_2">
     <g id="line2d_2"/>
     <g id="text_2">
      <!-- Optimized -->
      <g style="fill: #1a1d23" transform="translate(205.320524 396.321818) scale(0.11 -0.11)">
       <defs>
        <path id="Helvetica-32" d="M 2469 4716 
Q 3684 4716 4269 3934 
Q 4725 3325 4725 2375 
Q 4725 1347 4203 666 
Q 3591 -134 2456 -134 
Q 1397 -134 791 566 
Q 250 1241 250 2272 
Q 250 3203 713 3866 
Q 1306 4716 2469 4716 
z
M 2531 422 
Q 3353 422 3720 1011 
Q 4088 1600 4088 2366 
Q 4088 3175 3664 3669 
Q 3241 4163 2506 4163 
Q 1794 4163 1344 3673 
Q 894 3184 894 2231 
Q 894 1469 1280 945 
Q 1666 422 2531 422 
z
M 2488 4716 
L 2488 4716 
z
" transform="scale(0.015625)"/>
        <path id="Helvetica-53" d="M 1825 378 
Q 2219 378 2480 708 
Q 2741 1038 2741 1694 
Q 2741 2094 2625 2381 
Q 2406 2934 1825 2934 
Q 1241 2934 1025 2350 
Q 909 2038 909 1556 
Q 909 1169 1025 897 
Q 1244 378 1825 378 
z
M 369 3331 
L 916 3331 
L 916 2888 
Q 1084 3116 1284 3241 
Q 1569 3428 1953 3428 
Q 2522 3428 2919 2992 
Q 3316 2556 3316 1747 
Q 3316 653 2744 184 
Q 2381 -113 1900 -113 
Q 1522 -113 1266 53 
Q 1116 147 931 375 
L 931 -1334 
L 369 -1334 
L 369 3331 
z
" transform="scale(0.015625)"/>
        <path id="Helvetica-50" d="M 413 3347 
L 969 3347 
L 969 2872 
Q 1169 3119 1331 3231 
Q 1609 3422 1963 3422 
Q 2363 3422 2606 3225 
Q 2744 3113 2856 2894 
Q 3044 3163 3297 3292 
Q 3550 3422 3866 3422 
Q 4541 3422 4784 2934 
Q 4916 2672 4916 2228 
L 4916 0 
L 4331 0 
L 4331 2325 
Q 4331 2659 4164 2784 
Q 3997 2909 3756 2909 
Q 3425 2909 3186 2687 
Q 2947 2466 2947 1947 
L 2947 0 
L 2375 0 
L 2375 2184 
Q 2375 2525 2294 2681 
Q 2166 2916 1816 2916 
Q 1497 2916 1236 2669 
Q 975 2422 975 1775 
L 975 0 
L 413 0 
L 413 3347 
z
" transform="scale(0.015625)"/>
        <path id="Helvetica-5d" d="M 163 444 
L 2147 2844 
L 309 2844 
L 309 3347 
L 2903 3347 
L 2903 2888 
L 931 503 
L 2963 503 
L 2963 0 
L 163 0 
L 163 444 
z
M 1609 3428 
L 1609 3428 
z
" transform="scale(0.015625)"/>
        <path id="Helvetica-47" d="M 769 1634 
Q 769 1097 997 734 
Q 1225 372 1728 372 
Q 2119 372 2370 708 
Q 2622 1044 2622 1672 
Q 2622 2306 2362 2611 
Q 2103 2916 1722 2916 
Q 1297 2916 1033 2591 
Q 769 2266 769 1634 
z
M 1616 3406 
Q 2000 3406 2259 3244 
Q 2409 3150 2600 2916 
L 2600 4606 
L 3141 4606 
L 3141 0 
L 2634 0 
L 2634 466 
Q 2438 156 2169 18 
Q 1900 -119 1553 -119 
Q 994 -119 584 351 
Q 175 822 175 1603 
Q 175 2334 548 2870 
Q 922 3406 1616 3406 
z
" transform="scale(0.015625)"/>
       </defs>
       <use xlink:href="#Helvetica-32"/>
       <use xlink:href="#Helvetica-53" transform="translate(77.78125 0)"/>
       <use xlink:href="#Helvetica-57" transform="translate(133.390625 0)"/>
       <use xlink:href="#Helvetica-4c" transform="translate(161.171875 0)"/>
       <use xlink:href="#Helvetica-50" transform="translate(183.390625 0)"/>
       <use xlink:href="#Helvetica-4c" transform="translate(266.6875 0)"/>
       <use xlink:href="#Helvetica-5d" transform="translate(288.90625 0)"/>
       <use xlink:href="#Helvetica-48" transform="translate(338.90625 0)"/>
       <use xlink:href="#Helvetica-47" transform="translate(394.515625 0)"/>
      </g>
      <!-- (scoped context) -->
      <g style="fill: #1a1d23" transform="translate(189.421227 407.192268) scale(0.11 -0.11)">
       <defs>
        <path id="Helvetica-56" d="M 747 1050 
Q 772 769 888 619 
Q 1100 347 1625 347 
Q 1938 347 2175 483 
Q 2413 619 2413 903 
Q 2413 1119 2222 1231 
Q 2100 1300 1741 1391 
L 1294 1503 
Q 866 1609 663 1741 
Q 300 1969 300 2372 
Q 300 2847 642 3140 
Q 984 3434 1563 3434 
Q 2319 3434 2653 2991 
Q 2863 2709 2856 2384 
L 2325 2384 
Q 2309 2575 2191 2731 
Q 1997 2953 1519 2953 
Q 1200 2953 1036 2831 
Q 872 2709 872 2509 
Q 872 2291 1088 2159 
Q 1213 2081 1456 2022 
L 1828 1931 
Q 2434 1784 2641 1647 
Q 2969 1431 2969 969 
Q 2969 522 2630 197 
Q 2291 -128 1597 -128 
Q 850 -128 539 211 
Q 228 550 206 1050 
L 747 1050 
z
M 1578 3428 
L 1578 3428 
z
" transform="scale(0.015625)"/>
       </defs>
       <use xlink:href="#Helvetica-b"/>
       <use xlink:href="#Helvetica-56" transform="translate(33.296875 0)"/>
       <use xlink:href="#Helvetica-46" transform="translate(83.296875 0)"/>
       <use xlink:href="#Helvetica-52" transform="translate(133.296875 0)"/>
       <use xlink:href="#Helvetica-53" transform="translate(188.90625 0)"/>
       <use xlink:href="#Helvetica-48" transform="translate(244.515625 0)"/>
       <use xlink:href="#Helvetica-47" transform="translate(300.125 0)"/>
       <use xlink:href="#Helvetica-3" transform="translate(355.734375 0)"/>
       <use xlink:href="#Helvetica-46" transform="translate(383.515625 0)"/>
       <use xlink:href="#Helvetica-52" transform="translate(433.515625 0)"/>
       <use xlink:href="#Helvetica-51" transform="translate(489.125 0)"/>
       <use xlink:href="#Helvetica-57" transform="translate(544.734375 0)"/>
       <use xlink:href="#Helvetica-48" transform="translate(572.515625 0)"/>
       <use xlink:href="#Helvetica-5b" transform="translate(628.125 0)"/>
       <use xlink:href="#Helvetica-57" transform="translate(678.125 0)"/>
       <use xlink:href="#Helvetica-c" transform="translate(705.90625 0)"/>
      </g>
     </g>
    </g>
    <g id="xtick_3">
     <g id="line2d_3"/>
     <g id="text_3">
      <!-- Balanced -->
      <g style="fill: #1a1d23" transform="translate(344.505008 396.321818) scale(0.11 -0.11)">
       <defs>
        <path id="Helvetica-25" d="M 2213 2650 
Q 2606 2650 2825 2759 
Q 3169 2931 3169 3378 
Q 3169 3828 2803 3984 
Q 2597 4072 2191 4072 
L 1081 4072 
L 1081 2650 
L 2213 2650 
z
M 2422 531 
Q 2994 531 3238 863 
Q 3391 1072 3391 1369 
Q 3391 1869 2944 2050 
Q 2706 2147 2316 2147 
L 1081 2147 
L 1081 531 
L 2422 531 
z
M 472 4591 
L 2444 4591 
Q 3250 4591 3591 4109 
Q 3791 3825 3791 3453 
Q 3791 3019 3544 2741 
Q 3416 2594 3175 2472 
Q 3528 2338 3703 2169 
Q 4013 1869 4013 1341 
Q 4013 897 3734 538 
Q 3319 0 2413 0 
L 472 0 
L 472 4591 
z
" transform="scale(0.015625)"/>
       </defs>
       <use xlink:href="#Helvetica-25"/>
       <use xlink:href="#Helvetica-44" transform="translate(66.703125 0)"/>
       <use xlink:href="#Helvetica-4f" transform="translate(122.3125 0)"/>
       <use xlink:href="#Helvetica-44" transform="translate(144.53125 0)"/>
       <use xlink:href="#Helvetica-51" transform="translate(200.140625 0)"/>
       <use xlink:href="#Helvetica-46" transform="translate(255.75 0)"/>
       <use xlink:href="#Helvetica-48" transform="translate(305.75 0)"/>
       <use xlink:href="#Helvetica-47" transform="translate(361.359375 0)"/>
      </g>
      <!-- (targeted edits) -->
      <g style="fill: #1a1d23" transform="translate(330.450789 406.768596) scale(0.11 -0.11)">
       <defs>
        <path id="Helvetica-55" d="M 428 3347 
L 963 3347 
L 963 2769 
Q 1028 2938 1284 3180 
Q 1541 3422 1875 3422 
Q 1891 3422 1928 3419 
Q 1966 3416 2056 3406 
L 2056 2813 
Q 2006 2822 1964 2825 
Q 1922 2828 1872 2828 
Q 1447 2828 1219 2554 
Q 991 2281 991 1925 
L 991 0 
L 428 0 
L 428 3347 
z
" transform="scale(0.015625)"/>
        <path id="Helvetica-4a" d="M 1594 3406 
Q 1988 3406 2281 3213 
Q 2441 3103 2606 2894 
L 2606 3316 
L 3125 3316 
L 3125 272 
Q 3125 -366 2938 -734 
Q 2588 -1416 1616 -1416 
Q 1075 -1416 706 -1173 
Q 338 -931 294 -416 
L 866 -416 
Q 906 -641 1028 -763 
Q 1219 -950 1628 -950 
Q 2275 -950 2475 -494 
Q 2594 -225 2584 466 
Q 2416 209 2178 84 
Q 1941 -41 1550 -41 
Q 1006 -41 598 345 
Q 191 731 191 1622 
Q 191 2463 602 2934 
Q 1013 3406 1594 3406 
z
M 2606 1688 
Q 2606 2309 2350 2609 
Q 2094 2909 1697 2909 
Q 1103 2909 884 2353 
Q 769 2056 769 1575 
Q 769 1009 998 714 
Q 1228 419 1616 419 
Q 2222 419 2469 966 
Q 2606 1275 2606 1688 
z
M 1659 3428 
L 1659 3428 
z
" transform="scale(0.015625)"/>
       </defs>
       <use xlink:href="#Helvetica-b"/>
       <use xlink:href="#Helvetica-57" transform="translate(33.296875 0)"/>
       <use xlink:href="#Helvetica-44" transform="translate(61.078125 0)"/>
       <use xlink:href="#Helvetica-55" transform="translate(116.6875 0)"/>
       <use xlink:href="#Helvetica-4a" transform="translate(149.984375 0)"/>
       <use xlink:href="#Helvetica-48" transform="translate(205.59375 0)"/>
       <use xlink:href="#Helvetica-57" transform="translate(261.203125 0)"/>
       <use xlink:href="#Helvetica-48" transform="translate(288.984375 0)"/>
       <use xlink:href="#Helvetica-47" transform="translate(344.59375 0)"/>
       <use xlink:href="#Helvetica-3" transform="translate(400.203125 0)"/>
       <use xlink:href="#Helvetica-48" transform="translate(427.984375 0)"/>
       <use xlink:href="#Helvetica-47" transform="translate(483.59375 0)"/>
       <use xlink:href="#Helvetica-4c" transform="translate(539.203125 0)"/>
       <use xlink:href="#Helvetica-57" transform="translate(561.421875 0)"/>
       <use xlink:href="#Helvetica-56" transform="translate(589.203125 0)"/>
       <use xlink:href="#Helvetica-c" transform="translate(639.203125 0)"/>
      </g>
     </g>
    </g>
   </g>
   <g id="matplotlib.axis_2">
    <g id="ytick_1">
     <g id="line2d_4">
      <path d="M 37.42875 384.408 
L 422.726047 384.408 
" clip-path="url(#pf7eb39bce1)" style="fill: none; stroke: #e6e9ee; stroke-linecap: square"/>
     </g>
     <g id="line2d_5"/>
     <g id="text_4">
      <!-- 0 -->
      <g style="fill: #1a1d23" transform="translate(27.811719 388.533) scale(0.11 -0.11)">
       <defs>
        <path id="Helvetica-13" d="M 1731 4475 
Q 2600 4475 2988 3759 
Q 3288 3206 3288 2244 
Q 3288 1331 3016 734 
Q 2622 -122 1728 -122 
Q 922 -122 528 578 
Q 200 1163 200 2147 
Q 200 2909 397 3456 
Q 766 4475 1731 4475 
z
M 1725 391 
Q 2163 391 2422 778 
Q 2681 1166 2681 2222 
Q 2681 2984 2493 3476 
Q 2306 3969 1766 3969 
Q 1269 3969 1039 3501 
Q 809 3034 809 2125 
Q 809 1441 956 1025 
Q 1181 391 1725 391 
z
" transform="scale(0.015625)"/>
       </defs>
       <use xlink:href="#Helvetica-13"/>
      </g>
     </g>
    </g>
    <g id="ytick_2">
     <g id="line2d_6">
      <path d="M 37.42875 326.032615 
L 422.726047 326.032615 
" clip-path="url(#pf7eb39bce1)" style="fill: none; stroke: #e6e9ee; stroke-linecap: square"/>
     </g>
     <g id="line2d_7"/>
     <g id="text_5">
      <!-- 5 -->
      <g style="fill: #1a1d23" transform="translate(27.811719 330.157615) scale(0.11 -0.11)">
       <defs>
        <path id="Helvetica-18" d="M 791 1141 
Q 847 659 1238 475 
Q 1438 381 1700 381 
Q 2200 381 2440 700 
Q 2681 1019 2681 1406 
Q 2681 1875 2395 2131 
Q 2109 2388 1709 2388 
Q 1419 2388 1211 2275 
Q 1003 2163 856 1963 
L 369 1991 
L 709 4400 
L 3034 4400 
L 3034 3856 
L 1131 3856 
L 941 2613 
Q 1097 2731 1238 2791 
Q 1488 2894 1816 2894 
Q 2431 2894 2859 2497 
Q 3288 2100 3288 1491 
Q 3288 856 2895 371 
Q 2503 -113 1644 -113 
Q 1097 -113 676 195 
Q 256 503 206 1141 
L 791 1141 
z
" transform="scale(0.015625)"/>
       </defs>
       <use xlink:href="#Helvetica-18"/>
      </g>
     </g>
    </g>
    <g id="ytick_3">
     <g id="line2d_8">
      <path d="M 37.42875 267.657231 
L 422.726047 267.657231 
" clip-path="url(#pf7eb39bce1)" style="fill: none; stroke: #e6e9ee; stroke-linecap: square"/>
     </g>
     <g id="line2d_9"/>
     <g id="text_6">
      <!-- 10 -->
      <g style="fill: #1a1d23" transform="translate(21.694688 271.782231) scale(0.11 -0.11)">
       <defs>
        <path id="Helvetica-14" d="M 613 3169 
L 613 3600 
Q 1222 3659 1462 3798 
Q 1703 3938 1822 4456 
L 2266 4456 
L 2266 0 
L 1666 0 
L 1666 3169 
L 613 3169 
z
" transform="scale(0.015625)"/>
       </defs>
       <use xlink:href="#Helvetica-14"/>
       <use xlink:href="#Helvetica-13" transform="translate(55.609375 0)"/>
      </g>
     </g>
    </g>
    <g id="ytick_4">
     <g id="line2d_10">
      <path d="M 37.42875 209.281846 
L 422.726047 209.281846 
" clip-path="url(#pf7eb39bce1)" style="fill: none; stroke: #e6e9ee; stroke-linecap: square"/>
     </g>
     <g id="line2d_11"/>
     <g id="text_7">
      <!-- 15 -->
      <g style="fill: #1a1d23" transform="translate(21.694688 213.406846) scale(0.11 -0.11)">
       <use xlink:href="#Helvetica-14"/>
       <use xlink:href="#Helvetica-18" transform="translate(55.609375 0)"/>
      </g>
     </g>
    </g>
    <g id="ytick_5">
     <g id="line2d_12">
      <path d="M 37.42875 150.906462 
L 422.726047 150.906462 
" clip-path="url(#pf7eb39bce1)" style="fill: none; stroke: #e6e9ee; stroke-linecap: square"/>
     </g>
     <g id="line2d_13"/>
     <g id="text_8">
      <!-- 20 -->
      <g style="fill: #1a1d23" transform="translate(21.694688 155.031462) scale(0.11 -0.11)">
       <defs>
        <path id="Helvetica-15" d="M 200 0 
Q 231 578 439 1006 
Q 647 1434 1250 1784 
L 1850 2131 
Q 2253 2366 2416 2531 
Q 2672 2791 2672 3125 
Q 2672 3516 2437 3745 
Q 2203 3975 1813 3975 
Q 1234 3975 1013 3538 
Q 894 3303 881 2888 
L 309 2888 
Q 319 3472 525 3841 
Q 891 4491 1816 4491 
Q 2584 4491 2939 4075 
Q 3294 3659 3294 3150 
Q 3294 2613 2916 2231 
Q 2697 2009 2131 1694 
L 1703 1456 
Q 1397 1288 1222 1134 
Q 909 863 828 531 
L 3272 531 
L 3272 0 
L 200 0 
z
" transform="scale(0.015625)"/>
       </defs>
       <use xlink:href="#Helvetica-15"/>
       <use xlink:href="#Helvetica-13" transform="translate(55.609375 0)"/>
      </g>
     </g>
    </g>
    <g id="ytick_6">
     <g id="line2d_14">
      <path d="M 37.42875 92.531077 
L 422.726047 92.531077 
" clip-path="url(#pf7eb39bce1)" style="fill: none; stroke: #e6e9ee; stroke-linecap: square"/>
     </g>
     <g id="line2d_15"/>
     <g id="text_9">
      <!-- 25 -->
      <g style="fill: #1a1d23" transform="translate(21.694688 96.656077) scale(0.11 -0.11)">
       <use xlink:href="#Helvetica-15"/>
       <use xlink:href="#Helvetica-18" transform="translate(55.609375 0)"/>
      </g>
     </g>
    </g>
    <g id="text_10">
     <!-- Total tokens  (thousands) -->
     <g style="fill: #1a1d23" transform="translate(15.45 294.078172) rotate(-90) scale(0.11 -0.11)">
      <defs>
       <path id="Helvetica-37" d="M 3828 4591 
L 3828 4044 
L 2281 4044 
L 2281 0 
L 1650 0 
L 1650 4044 
L 103 4044 
L 103 4591 
L 3828 4591 
z
" transform="scale(0.015625)"/>
       <path id="Helvetica-4e" d="M 400 4591 
L 941 4591 
L 941 1925 
L 2384 3347 
L 3103 3347 
L 1822 2094 
L 3175 0 
L 2456 0 
L 1413 1688 
L 941 1256 
L 941 0 
L 400 0 
L 400 4591 
z
" transform="scale(0.015625)"/>
       <path id="Helvetica-4b" d="M 413 4606 
L 975 4606 
L 975 2894 
Q 1175 3147 1334 3250 
Q 1606 3428 2013 3428 
Q 2741 3428 3000 2919 
Q 3141 2641 3141 2147 
L 3141 0 
L 2563 0 
L 2563 2109 
Q 2563 2478 2469 2650 
Q 2316 2925 1894 2925 
Q 1544 2925 1259 2684 
Q 975 2444 975 1775 
L 975 0 
L 413 0 
L 413 4606 
z
" transform="scale(0.015625)"/>
      </defs>
      <use xlink:href="#Helvetica-37"/>
      <use xlink:href="#Helvetica-52" transform="translate(50 0)"/>
      <use xlink:href="#Helvetica-57" transform="translate(105.609375 0)"/>
      <use xlink:href="#Helvetica-44" transform="translate(133.390625 0)"/>
      <use xlink:href="#Helvetica-4f" transform="translate(189 0)"/>
      <use xlink:href="#Helvetica-3" transform="translate(211.21875 0)"/>
      <use xlink:href="#Helvetica-57" transform="translate(239 0)"/>
      <use xlink:href="#Helvetica-52" transform="translate(266.78125 0)"/>
      <use xlink:href="#Helvetica-4e" transform="translate(322.390625 0)"/>
      <use xlink:href="#Helvetica-48" transform="translate(372.390625 0)"/>
      <use xlink:href="#Helvetica-51" transform="translate(428 0)"/>
      <use xlink:href="#Helvetica-56" transform="translate(483.609375 0)"/>
      <use xlink:href="#Helvetica-3" transform="translate(533.609375 0)"/>
      <use xlink:href="#Helvetica-3" transform="translate(561.390625 0)"/>
      <use xlink:href="#Helvetica-b" transform="translate(589.171875 0)"/>
      <use xlink:href="#Helvetica-57" transform="translate(622.46875 0)"/>
      <use xlink:href="#Helvetica-4b" transform="translate(650.25 0)"/>
      <use xlink:href="#Helvetica-52" transform="translate(705.859375 0)"/>
      <use xlink:href="#Helvetica-58" transform="translate(761.46875 0)"/>
      <use xlink:href="#Helvetica-56" transform="translate(817.078125 0)"/>
      <use xlink:href="#Helvetica-44" transform="translate(867.078125 0)"/>
      <use xlink:href="#Helvetica-51" transform="translate(922.6875 0)"/>
      <use xlink:href="#Helvetica-47" transform="translate(978.296875 0)"/>
      <use xlink:href="#Helvetica-56" transform="translate(1033.90625 0)"/>
      <use xlink:href="#Helvetica-c" transform="translate(1083.90625 0)"/>
     </g>
    </g>
   </g>
   <g id="patch_3">
    <path d="M 54.942264 384.408 
L 130.490753 384.408 
L 130.490753 122.395924 
L 54.942264 122.395924 
z
" clip-path="url(#pf7eb39bce1)" style="fill: #2a9d8f"/>
   </g>
   <g id="patch_4">
    <path d="M 192.303154 384.408 
L 267.851643 384.408 
L 267.851643 295.035286 
L 192.303154 295.035286 
z
" clip-path="url(#pf7eb39bce1)" style="fill: #e9a12e"/>
   </g>
   <g id="patch_5">
    <path d="M 329.664044 384.408 
L 405.212534 384.408 
L 405.212534 326.557994 
L 329.664044 326.557994 
z
" clip-path="url(#pf7eb39bce1)" style="fill: #d1495b"/>
   </g>
   <g id="patch_6">
    <path d="M 37.42875 384.408 
L 37.42875 80.856 
" style="fill: none; stroke: #5a6472; stroke-width: 0.9; stroke-linejoin: miter; stroke-linecap: square"/>
   </g>
   <g id="patch_7">
    <path d="M 37.42875 384.408 
L 422.726047 384.408 
" style="fill: none; stroke: #5a6472; stroke-width: 0.9; stroke-linejoin: miter; stroke-linecap: square"/>
   </g>
   <g id="text_11">
    <!-- 22.4k -->
    <g style="fill: #1a1d23" transform="translate(79.580024 117.109221) scale(0.105 -0.105)">
     <defs>
      <path id="Helvetica-Bold-15" d="M 2225 3609 
Q 2066 3800 1769 3800 
Q 1363 3800 1216 3497 
Q 1131 3322 1116 2941 
L 250 2941 
Q 272 3519 459 3875 
Q 816 4553 1725 4553 
Q 2444 4553 2869 4154 
Q 3294 3756 3294 3100 
Q 3294 2597 2994 2206 
Q 2797 1947 2347 1628 
L 1991 1375 
Q 1656 1138 1532 1031 
Q 1409 925 1325 784 
L 3303 784 
L 3303 0 
L 200 0 
Q 213 488 409 891 
Q 600 1344 1309 1850 
Q 1925 2291 2106 2481 
Q 2384 2778 2384 3131 
Q 2384 3419 2225 3609 
z
" transform="scale(0.015625)"/>
      <path id="Helvetica-Bold-11" d="M 400 931 
L 1347 931 
L 1347 0 
L 400 0 
L 400 931 
z
" transform="scale(0.015625)"/>
      <path id="Helvetica-Bold-17" d="M 3347 1672 
L 3347 975 
L 2834 975 
L 2834 0 
L 1963 0 
L 1963 975 
L 169 975 
L 169 1753 
L 1834 4503 
L 2834 4503 
L 2834 1672 
L 3347 1672 
z
M 828 1672 
L 1963 1672 
L 1963 3628 
L 828 1672 
z
" transform="scale(0.015625)"/>
      <path id="Helvetica-Bold-4e" d="M 3541 0 
L 2466 0 
L 1650 1456 
L 1281 1072 
L 1281 0 
L 406 0 
L 406 4591 
L 1281 4591 
L 1281 2109 
L 2391 3391 
L 3494 3391 
L 2303 2088 
L 3541 0 
z
" transform="scale(0.015625)"/>
     </defs>
     <use xlink:href="#Helvetica-Bold-15"/>
     <use xlink:href="#Helvetica-Bold-15" transform="translate(55.609375 0)"/>
     <use xlink:href="#Helvetica-Bold-11" transform="translate(111.21875 0)"/>
     <use xlink:href="#Helvetica-Bold-17" transform="translate(139 0)"/>
     <use xlink:href="#Helvetica-Bold-4e" transform="translate(194.609375 0)"/>
    </g>
   </g>
   <g id="text_12">
    <!-- 7.7k -->
    <g style="fill: #1a1d23" transform="translate(219.860406 289.748583) scale(0.105 -0.105)">
     <defs>
      <path id="Helvetica-Bold-1a" d="M 2819 3075 
Q 2463 2569 2222 2031 
Q 2031 1609 1878 1000 
Q 1725 391 1725 0 
L 800 0 
Q 841 1219 1600 2534 
Q 2091 3350 2422 3672 
L 163 3672 
L 175 4472 
L 3375 4472 
L 3375 3775 
Q 3175 3578 2819 3075 
z
" transform="scale(0.015625)"/>
     </defs>
     <use xlink:href="#Helvetica-Bold-1a"/>
     <use xlink:href="#Helvetica-Bold-11" transform="translate(55.609375 0)"/>
     <use xlink:href="#Helvetica-Bold-1a" transform="translate(83.390625 0)"/>
     <use xlink:href="#Helvetica-Bold-4e" transform="translate(139 0)"/>
    </g>
   </g>
   <g id="text_13">
    <!-- 5.0k -->
    <g style="fill: #1a1d23" transform="translate(357.221297 321.271291) scale(0.105 -0.105)">
     <defs>
      <path id="Helvetica-Bold-18" d="M 1706 2250 
Q 1544 2250 1425 2209 
Q 1216 2134 1109 1931 
L 309 1969 
L 628 4472 
L 3125 4472 
L 3125 3716 
L 1272 3716 
L 1109 2725 
Q 1316 2859 1431 2903 
Q 1625 2975 1903 2975 
Q 2466 2975 2884 2597 
Q 3303 2219 3303 1497 
Q 3303 869 2900 375 
Q 2497 -119 1694 -119 
Q 1047 -119 631 228 
Q 216 575 169 1213 
L 1056 1213 
Q 1109 922 1259 764 
Q 1409 606 1697 606 
Q 2028 606 2201 839 
Q 2375 1072 2375 1425 
Q 2375 1772 2212 2011 
Q 2050 2250 1706 2250 
z
" transform="scale(0.015625)"/>
      <path id="Helvetica-Bold-13" d="M 1763 -113 
Q 897 -113 548 493 
Q 200 1100 200 2222 
Q 200 3344 548 3953 
Q 897 4563 1763 4563 
Q 2628 4563 2978 3953 
Q 3325 3344 3325 2222 
Q 3325 1100 2976 493 
Q 2628 -113 1763 -113 
z
M 2284 1028 
Q 2406 1441 2406 2222 
Q 2406 3041 2282 3434 
Q 2159 3828 1763 3828 
Q 1366 3828 1237 3434 
Q 1109 3041 1109 2222 
Q 1109 1441 1237 1027 
Q 1366 613 1763 613 
Q 2159 613 2284 1028 
z
" transform="scale(0.015625)"/>
     </defs>
     <use xlink:href="#Helvetica-Bold-18"/>
     <use xlink:href="#Helvetica-Bold-11" transform="translate(55.609375 0)"/>
     <use xlink:href="#Helvetica-Bold-13" transform="translate(83.390625 0)"/>
     <use xlink:href="#Helvetica-Bold-4e" transform="translate(139 0)"/>
    </g>
   </g>
   <g id="text_14">
    <!-- -66% -->
    <g style="fill: #ffffff" transform="translate(217.238336 342.912073) scale(0.11 -0.11)">
     <defs>
      <path id="Helvetica-Bold-10" d="M 147 2206 
L 1941 2206 
L 1941 1363 
L 147 1363 
L 147 2206 
z
" transform="scale(0.015625)"/>
      <path id="Helvetica-Bold-19" d="M 1956 2941 
Q 2559 2941 2945 2531 
Q 3331 2122 3331 1484 
Q 3331 850 2953 365 
Q 2575 -119 1778 -119 
Q 922 -119 516 597 
Q 200 1156 200 2041 
Q 200 2559 244 2884 
Q 322 3463 547 3847 
Q 741 4175 1055 4375 
Q 1369 4575 1806 4575 
Q 2438 4575 2813 4251 
Q 3188 3928 3234 3391 
L 2347 3391 
Q 2347 3500 2263 3631 
Q 2119 3844 1828 3844 
Q 1394 3844 1209 3356 
Q 1109 3088 1072 2563 
Q 1238 2759 1456 2850 
Q 1675 2941 1956 2941 
z
M 1356 2091 
Q 1094 1888 1094 1434 
Q 1094 1069 1291 837 
Q 1488 606 1791 606 
Q 2088 606 2258 829 
Q 2428 1053 2428 1409 
Q 2428 1806 2234 2017 
Q 2041 2228 1759 2228 
Q 1531 2228 1356 2091 
z
" transform="scale(0.015625)"/>
      <path id="Helvetica-Bold-8" d="M 3184 1072 
Q 3184 1556 3525 1897 
Q 3866 2234 4347 2234 
Q 4828 2234 5168 1893 
Q 5509 1553 5509 1072 
Q 5509 591 5168 250 
Q 4828 -91 4347 -91 
Q 3866 -91 3525 250 
Q 3184 591 3184 1072 
z
M 488 2525 
Q 147 2866 147 3347 
Q 147 3828 487 4168 
Q 828 4509 1309 4509 
Q 1791 4509 2131 4168 
Q 2472 3828 2472 3347 
Q 2472 2866 2133 2525 
Q 1794 2184 1309 2184 
Q 828 2184 488 2525 
z
M 1800 -119 
L 1316 -119 
L 3850 4531 
L 4325 4531 
L 1800 -119 
z
M 3997 722 
Q 4141 575 4347 575 
Q 4553 575 4698 720 
Q 4844 866 4844 1072 
Q 4844 1278 4698 1423 
Q 4553 1569 4347 1569 
Q 4141 1569 3995 1423 
Q 3850 1278 3850 1072 
Q 3850 866 3997 722 
z
M 959 2997 
Q 1103 2850 1309 2850 
Q 1516 2850 1661 2995 
Q 1806 3141 1806 3347 
Q 1806 3553 1661 3698 
Q 1516 3844 1309 3844 
Q 1103 3844 958 3698 
Q 813 3553 813 3347 
Q 813 3141 959 2997 
z
" transform="scale(0.015625)"/>
     </defs>
     <use xlink:href="#Helvetica-Bold-10"/>
     <use xlink:href="#Helvetica-Bold-19" transform="translate(33.296875 0)"/>
     <use xlink:href="#Helvetica-Bold-19" transform="translate(88.90625 0)"/>
     <use xlink:href="#Helvetica-Bold-8" transform="translate(144.515625 0)"/>
    </g>
   </g>
   <g id="text_15">
    <!-- -78% -->
    <g style="fill: #ffffff" transform="translate(354.599226 358.673427) scale(0.11 -0.11)">
     <defs>
      <path id="Helvetica-Bold-1b" d="M 559 284 
Q 169 684 169 1256 
Q 169 1638 342 1947 
Q 516 2256 850 2413 
Q 522 2631 423 2886 
Q 325 3141 325 3363 
Q 325 3856 697 4204 
Q 1069 4553 1747 4553 
Q 2425 4553 2797 4204 
Q 3169 3856 3169 3363 
Q 3169 3141 3070 2886 
Q 2972 2631 2644 2444 
Q 2978 2256 3147 1947 
Q 3316 1638 3316 1256 
Q 3316 684 2892 282 
Q 2469 -119 1709 -119 
Q 950 -119 559 284 
z
M 1094 1316 
Q 1094 981 1267 797 
Q 1441 613 1747 613 
Q 2053 613 2226 797 
Q 2400 981 2400 1316 
Q 2400 1663 2223 1842 
Q 2047 2022 1747 2022 
Q 1447 2022 1270 1842 
Q 1094 1663 1094 1316 
z
M 1328 2859 
Q 1478 2703 1747 2703 
Q 2019 2703 2167 2859 
Q 2316 3016 2316 3263 
Q 2316 3531 2167 3682 
Q 2019 3834 1747 3834 
Q 1478 3834 1326 3682 
Q 1175 3531 1175 3263 
Q 1175 3016 1328 2859 
z
" transform="scale(0.015625)"/>
     </defs>
     <use xlink:href="#Helvetica-Bold-10"/>
     <use xlink:href="#Helvetica-Bold-1a" transform="translate(33.296875 0)"/>
     <use xlink:href="#Helvetica-Bold-1b" transform="translate(88.90625 0)"/>
     <use xlink:href="#Helvetica-Bold-8" transform="translate(144.515625 0)"/>
    </g>
   </g>
   <g id="text_16">
    <!-- Cheaper rightward -->
    <g style="fill: #5a6472" transform="translate(179.278844 70.856) scale(0.115 -0.115)">
     <defs>
      <path id="Helvetica-Bold-26" d="M 3738 344 
Q 3222 -128 2419 -128 
Q 1425 -128 856 509 
Q 288 1150 288 2266 
Q 288 3472 934 4125 
Q 1497 4694 2366 4694 
Q 3528 4694 4066 3931 
Q 4363 3503 4384 3072 
L 3422 3072 
Q 3328 3403 3181 3572 
Q 2919 3872 2403 3872 
Q 1878 3872 1575 3448 
Q 1272 3025 1272 2250 
Q 1272 1475 1592 1089 
Q 1913 703 2406 703 
Q 2913 703 3178 1034 
Q 3325 1213 3422 1569 
L 4375 1569 
Q 4250 816 3738 344 
z
" transform="scale(0.015625)"/>
      <path id="Helvetica-Bold-4b" d="M 3494 2000 
L 3494 0 
L 2584 0 
L 2584 2072 
Q 2584 2347 2491 2516 
Q 2369 2753 2028 2753 
Q 1675 2753 1492 2517 
Q 1309 2281 1309 1844 
L 1309 0 
L 422 0 
L 422 4591 
L 1309 4591 
L 1309 2963 
Q 1503 3259 1758 3376 
Q 2013 3494 2294 3494 
Q 2609 3494 2867 3384 
Q 3125 3275 3291 3050 
Q 3431 2859 3462 2657 
Q 3494 2456 3494 2000 
z
" transform="scale(0.015625)"/>
      <path id="Helvetica-Bold-48" d="M 3331 1000 
Q 3297 697 3016 384 
Q 2578 -113 1791 -113 
Q 1141 -113 644 306 
Q 147 725 147 1669 
Q 147 2553 595 3025 
Q 1044 3497 1759 3497 
Q 2184 3497 2525 3337 
Q 2866 3178 3088 2834 
Q 3288 2531 3347 2131 
Q 3381 1897 3375 1456 
L 1044 1456 
Q 1063 944 1366 738 
Q 1550 609 1809 609 
Q 2084 609 2256 766 
Q 2350 850 2422 1000 
L 3331 1000 
z
M 2450 2044 
Q 2428 2397 2236 2580 
Q 2044 2763 1759 2763 
Q 1450 2763 1279 2569 
Q 1109 2375 1066 2044 
L 2450 2044 
z
" transform="scale(0.015625)"/>
      <path id="Helvetica-Bold-44" d="M 544 3038 
Q 897 3488 1756 3488 
Q 2316 3488 2750 3266 
Q 3184 3044 3184 2428 
L 3184 866 
Q 3184 703 3191 472 
Q 3200 297 3244 234 
Q 3288 172 3375 131 
L 3375 0 
L 2406 0 
Q 2366 103 2350 193 
Q 2334 284 2325 400 
Q 2141 200 1900 59 
Q 1613 -106 1250 -106 
Q 788 -106 486 158 
Q 184 422 184 906 
Q 184 1534 669 1816 
Q 934 1969 1450 2034 
L 1753 2072 
Q 2000 2103 2106 2150 
Q 2297 2231 2297 2403 
Q 2297 2613 2151 2692 
Q 2006 2772 1725 2772 
Q 1409 2772 1278 2616 
Q 1184 2500 1153 2303 
L 294 2303 
Q 322 2750 544 3038 
z
M 1206 644 
Q 1331 541 1513 541 
Q 1800 541 2042 709 
Q 2284 878 2294 1325 
L 2294 1656 
Q 2209 1603 2123 1570 
Q 2038 1538 1888 1509 
L 1688 1472 
Q 1406 1422 1284 1350 
Q 1078 1228 1078 972 
Q 1078 744 1206 644 
z
" transform="scale(0.015625)"/>
      <path id="Helvetica-Bold-53" d="M 3269 3041 
Q 3681 2600 3681 1747 
Q 3681 847 3276 375 
Q 2872 -97 2234 -97 
Q 1828 -97 1559 106 
Q 1413 219 1272 434 
L 1272 -1341 
L 391 -1341 
L 391 3406 
L 1244 3406 
L 1244 2903 
Q 1388 3125 1550 3253 
Q 1847 3481 2256 3481 
Q 2853 3481 3269 3041 
z
M 2763 1703 
Q 2763 2097 2583 2400 
Q 2403 2703 2000 2703 
Q 1516 2703 1334 2244 
Q 1241 2000 1241 1625 
Q 1241 1031 1556 791 
Q 1744 650 2000 650 
Q 2372 650 2567 937 
Q 2763 1225 2763 1703 
z
" transform="scale(0.015625)"/>
      <path id="Helvetica-Bold-55" d="M 2128 2584 
Q 1591 2584 1406 2234 
Q 1303 2038 1303 1628 
L 1303 0 
L 406 0 
L 406 3406 
L 1256 3406 
L 1256 2813 
Q 1463 3153 1616 3278 
Q 1866 3488 2266 3488 
Q 2291 3488 2308 3486 
Q 2325 3484 2384 3481 
L 2384 2569 
Q 2300 2578 2234 2581 
Q 2169 2584 2128 2584 
z
" transform="scale(0.015625)"/>
      <path id="Helvetica-Bold-3" transform="scale(0.015625)"/>
      <path id="Helvetica-Bold-4c" d="M 1331 3406 
L 1331 0 
L 428 0 
L 428 3406 
L 1331 3406 
z
M 1331 4634 
L 1331 3813 
L 428 3813 
L 428 4634 
L 1331 4634 
z
" transform="scale(0.015625)"/>
      <path id="Helvetica-Bold-4a" d="M 1378 -597 
Q 1522 -719 1863 -719 
Q 2344 -719 2506 -397 
Q 2613 -191 2613 297 
L 2613 516 
Q 2484 297 2338 188 
Q 2072 -16 1647 -16 
Q 991 -16 598 445 
Q 206 906 206 1694 
Q 206 2453 584 2970 
Q 963 3488 1656 3488 
Q 1913 3488 2103 3409 
Q 2428 3275 2628 2916 
L 2628 3406 
L 3494 3406 
L 3494 175 
Q 3494 -484 3272 -819 
Q 2891 -1394 1809 -1394 
Q 1156 -1394 743 -1137 
Q 331 -881 288 -372 
L 1256 -372 
Q 1294 -528 1378 -597 
z
M 1228 1163 
Q 1409 731 1878 731 
Q 2191 731 2406 967 
Q 2622 1203 2622 1719 
Q 2622 2203 2417 2456 
Q 2213 2709 1869 2709 
Q 1400 2709 1222 2269 
Q 1128 2034 1128 1691 
Q 1128 1394 1228 1163 
z
" transform="scale(0.015625)"/>
      <path id="Helvetica-Bold-57" d="M 1975 634 
L 1975 -31 
L 1553 -47 
Q 922 -69 691 172 
Q 541 325 541 644 
L 541 2741 
L 66 2741 
L 66 3375 
L 541 3375 
L 541 4325 
L 1422 4325 
L 1422 3375 
L 1975 3375 
L 1975 2741 
L 1422 2741 
L 1422 941 
Q 1422 731 1475 679 
Q 1528 628 1800 628 
Q 1841 628 1886 629 
Q 1931 631 1975 634 
z
" transform="scale(0.015625)"/>
      <path id="Helvetica-Bold-5a" d="M 3000 0 
L 2466 2481 
L 1925 0 
L 1000 0 
L 44 3406 
L 1000 3406 
L 1531 963 
L 2022 3406 
L 2925 3406 
L 3444 953 
L 3975 3406 
L 4903 3406 
L 3916 0 
L 3000 0 
z
" transform="scale(0.015625)"/>
      <path id="Helvetica-Bold-47" d="M 3516 4600 
L 3516 0 
L 2650 0 
L 2650 472 
Q 2459 169 2215 31 
Q 1972 -106 1609 -106 
Q 1013 -106 605 376 
Q 197 859 197 1616 
Q 197 2488 598 2988 
Q 1000 3488 1672 3488 
Q 1981 3488 2222 3352 
Q 2463 3216 2613 2975 
L 2613 4600 
L 3516 4600 
z
M 1116 1681 
Q 1116 1209 1303 928 
Q 1488 644 1866 644 
Q 2244 644 2441 925 
Q 2638 1206 2638 1653 
Q 2638 2278 2322 2547 
Q 2128 2709 1872 2709 
Q 1481 2709 1298 2414 
Q 1116 2119 1116 1681 
z
" transform="scale(0.015625)"/>
     </defs>
     <use xlink:href="#Helvetica-Bold-26"/>
     <use xlink:href="#Helvetica-Bold-4b" transform="translate(72.21875 0)"/>
     <use xlink:href="#Helvetica-Bold-48" transform="translate(133.296875 0)"/>
     <use xlink:href="#Helvetica-Bold-44" transform="translate(188.90625 0)"/>
     <use xlink:href="#Helvetica-Bold-53" transform="translate(244.515625 0)"/>
     <use xlink:href="#Helvetica-Bold-48" transform="translate(305.59375 0)"/>
     <use xlink:href="#Helvetica-Bold-55" transform="translate(361.203125 0)"/>
     <use xlink:href="#Helvetica-Bold-3" transform="translate(400.125 0)"/>
     <use xlink:href="#Helvetica-Bold-55" transform="translate(427.90625 0)"/>
     <use xlink:href="#Helvetica-Bold-4c" transform="translate(466.828125 0)"/>
     <use xlink:href="#Helvetica-Bold-4a" transform="translate(494.609375 0)"/>
     <use xlink:href="#Helvetica-Bold-4b" transform="translate(555.6875 0)"/>
     <use xlink:href="#Helvetica-Bold-57" transform="translate(616.765625 0)"/>
     <use xlink:href="#Helvetica-Bold-5a" transform="translate(650.0625 0)"/>
     <use xlink:href="#Helvetica-Bold-44" transform="translate(727.84375 0)"/>
     <use xlink:href="#Helvetica-Bold-55" transform="translate(783.453125 0)"/>
     <use xlink:href="#Helvetica-Bold-47" transform="translate(822.375 0)"/>
    </g>
   </g>
  </g>
  <g id="axes_2">
   <g id="patch_8">
    <path d="M 507.491453 384.408 
L 892.78875 384.408 
L 892.78875 80.856 
L 507.491453 80.856 
z
" style="fill: #ffffff"/>
   </g>
   <g id="matplotlib.axis_3">
    <g id="xtick_4">
     <g id="line2d_16"/>
     <g id="text_17">
      <!-- Naive -->
      <g style="fill: #1a1d23" transform="translate(548.718117 396.321818) scale(0.11 -0.11)">
       <use xlink:href="#Helvetica-31"/>
       <use xlink:href="#Helvetica-44" transform="translate(72.21875 0)"/>
       <use xlink:href="#Helvetica-4c" transform="translate(127.828125 0)"/>
       <use xlink:href="#Helvetica-59" transform="translate(150.046875 0)"/>
       <use xlink:href="#Helvetica-48" transform="translate(200.046875 0)"/>
      </g>
      <!-- (full context) -->
      <g style="fill: #1a1d23" transform="translate(532.826555 406.768596) scale(0.11 -0.11)">
       <use xlink:href="#Helvetica-b"/>
       <use xlink:href="#Helvetica-49" transform="translate(33.296875 0)"/>
       <use xlink:href="#Helvetica-58" transform="translate(61.078125 0)"/>
       <use xlink:href="#Helvetica-4f" transform="translate(116.6875 0)"/>
       <use xlink:href="#Helvetica-4f" transform="translate(138.90625 0)"/>
       <use xlink:href="#Helvetica-3" transform="translate(161.125 0)"/>
       <use xlink:href="#Helvetica-46" transform="translate(188.90625 0)"/>
       <use xlink:href="#Helvetica-52" transform="translate(238.90625 0)"/>
       <use xlink:href="#Helvetica-51" transform="translate(294.515625 0)"/>
       <use xlink:href="#Helvetica-57" transform="translate(350.125 0)"/>
       <use xlink:href="#Helvetica-48" transform="translate(377.90625 0)"/>
       <use xlink:href="#Helvetica-5b" transform="translate(433.515625 0)"/>
       <use xlink:href="#Helvetica-57" transform="translate(483.515625 0)"/>
       <use xlink:href="#Helvetica-c" transform="translate(511.296875 0)"/>
      </g>
     </g>
    </g>
    <g id="xtick_5">
     <g id="line2d_17"/>
     <g id="text_18">
      <!-- Optimized -->
      <g style="fill: #1a1d23" transform="translate(675.383226 396.321818) scale(0.11 -0.11)">
       <use xlink:href="#Helvetica-32"/>
       <use xlink:href="#Helvetica-53" transform="translate(77.78125 0)"/>
       <use xlink:href="#Helvetica-57" transform="translate(133.390625 0)"/>
       <use xlink:href="#Helvetica-4c" transform="translate(161.171875 0)"/>
       <use xlink:href="#Helvetica-50" transform="translate(183.390625 0)"/>
       <use xlink:href="#Helvetica-4c" transform="translate(266.6875 0)"/>
       <use xlink:href="#Helvetica-5d" transform="translate(288.90625 0)"/>
       <use xlink:href="#Helvetica-48" transform="translate(338.90625 0)"/>
       <use xlink:href="#Helvetica-47" transform="translate(394.515625 0)"/>
      </g>
      <!-- (scoped context) -->
      <g style="fill: #1a1d23" transform="translate(659.483929 407.192268) scale(0.11 -0.11)">
       <use xlink:href="#Helvetica-b"/>
       <use xlink:href="#Helvetica-56" transform="translate(33.296875 0)"/>
       <use xlink:href="#Helvetica-46" transform="translate(83.296875 0)"/>
       <use xlink:href="#Helvetica-52" transform="translate(133.296875 0)"/>
       <use xlink:href="#Helvetica-53" transform="translate(188.90625 0)"/>
       <use xlink:href="#Helvetica-48" transform="translate(244.515625 0)"/>
       <use xlink:href="#Helvetica-47" transform="translate(300.125 0)"/>
       <use xlink:href="#Helvetica-3" transform="translate(355.734375 0)"/>
       <use xlink:href="#Helvetica-46" transform="translate(383.515625 0)"/>
       <use xlink:href="#Helvetica-52" transform="translate(433.515625 0)"/>
       <use xlink:href="#Helvetica-51" transform="translate(489.125 0)"/>
       <use xlink:href="#Helvetica-57" transform="translate(544.734375 0)"/>
       <use xlink:href="#Helvetica-48" transform="translate(572.515625 0)"/>
       <use xlink:href="#Helvetica-5b" transform="translate(628.125 0)"/>
       <use xlink:href="#Helvetica-57" transform="translate(678.125 0)"/>
       <use xlink:href="#Helvetica-c" transform="translate(705.90625 0)"/>
      </g>
     </g>
    </g>
    <g id="xtick_6">
     <g id="line2d_18"/>
     <g id="text_19">
      <!-- Balanced -->
      <g style="fill: #1a1d23" transform="translate(814.56771 396.321818) scale(0.11 -0.11)">
       <use xlink:href="#Helvetica-25"/>
       <use xlink:href="#Helvetica-44" transform="translate(66.703125 0)"/>
       <use xlink:href="#Helvetica-4f" transform="translate(122.3125 0)"/>
       <use xlink:href="#Helvetica-44" transform="translate(144.53125 0)"/>
       <use xlink:href="#Helvetica-51" transform="translate(200.140625 0)"/>
       <use xlink:href="#Helvetica-46" transform="translate(255.75 0)"/>
       <use xlink:href="#Helvetica-48" transform="translate(305.75 0)"/>
       <use xlink:href="#Helvetica-47" transform="translate(361.359375 0)"/>
      </g>
      <!-- (targeted edits) -->
      <g style="fill: #1a1d23" transform="translate(800.513492 406.768596) scale(0.11 -0.11)">
       <use xlink:href="#Helvetica-b"/>
       <use xlink:href="#Helvetica-57" transform="translate(33.296875 0)"/>
       <use xlink:href="#Helvetica-44" transform="translate(61.078125 0)"/>
       <use xlink:href="#Helvetica-55" transform="translate(116.6875 0)"/>
       <use xlink:href="#Helvetica-4a" transform="translate(149.984375 0)"/>
       <use xlink:href="#Helvetica-48" transform="translate(205.59375 0)"/>
       <use xlink:href="#Helvetica-57" transform="translate(261.203125 0)"/>
       <use xlink:href="#Helvetica-48" transform="translate(288.984375 0)"/>
       <use xlink:href="#Helvetica-47" transform="translate(344.59375 0)"/>
       <use xlink:href="#Helvetica-3" transform="translate(400.203125 0)"/>
       <use xlink:href="#Helvetica-48" transform="translate(427.984375 0)"/>
       <use xlink:href="#Helvetica-47" transform="translate(483.59375 0)"/>
       <use xlink:href="#Helvetica-4c" transform="translate(539.203125 0)"/>
       <use xlink:href="#Helvetica-57" transform="translate(561.421875 0)"/>
       <use xlink:href="#Helvetica-56" transform="translate(589.203125 0)"/>
       <use xlink:href="#Helvetica-c" transform="translate(639.203125 0)"/>
      </g>
     </g>
    </g>
   </g>
   <g id="matplotlib.axis_4">
    <g id="ytick_7">
     <g id="line2d_19">
      <path d="M 507.491453 384.408 
L 892.78875 384.408 
" clip-path="url(#p2c8e5016d8)" style="fill: none; stroke: #e6e9ee; stroke-linecap: square"/>
     </g>
     <g id="line2d_20"/>
     <g id="text_20">
      <!-- 0 -->
      <g style="fill: #1a1d23" transform="translate(497.874421 388.533) scale(0.11 -0.11)">
       <use xlink:href="#Helvetica-13"/>
      </g>
     </g>
    </g>
    <g id="ytick_8">
     <g id="line2d_21">
      <path d="M 507.491453 330.202286 
L 892.78875 330.202286 
" clip-path="url(#p2c8e5016d8)" style="fill: none; stroke: #e6e9ee; stroke-linecap: square"/>
     </g>
     <g id="line2d_22"/>
     <g id="text_21">
      <!-- 1 -->
      <g style="fill: #1a1d23" transform="translate(497.874421 334.327286) scale(0.11 -0.11)">
       <use xlink:href="#Helvetica-14"/>
      </g>
     </g>
    </g>
    <g id="ytick_9">
     <g id="line2d_23">
      <path d="M 507.491453 275.996571 
L 892.78875 275.996571 
" clip-path="url(#p2c8e5016d8)" style="fill: none; stroke: #e6e9ee; stroke-linecap: square"/>
     </g>
     <g id="line2d_24"/>
     <g id="text_22">
      <!-- 2 -->
      <g style="fill: #1a1d23" transform="translate(497.874421 280.121571) scale(0.11 -0.11)">
       <use xlink:href="#Helvetica-15"/>
      </g>
     </g>
    </g>
    <g id="ytick_10">
     <g id="line2d_25">
      <path d="M 507.491453 221.790857 
L 892.78875 221.790857 
" clip-path="url(#p2c8e5016d8)" style="fill: none; stroke: #e6e9ee; stroke-linecap: square"/>
     </g>
     <g id="line2d_26"/>
     <g id="text_23">
      <!-- 3 -->
      <g style="fill: #1a1d23" transform="translate(497.874421 225.915857) scale(0.11 -0.11)">
       <defs>
        <path id="Helvetica-16" d="M 1663 -122 
Q 869 -122 511 314 
Q 153 750 153 1375 
L 741 1375 
Q 778 941 903 744 
Q 1122 391 1694 391 
Q 2138 391 2406 628 
Q 2675 866 2675 1241 
Q 2675 1703 2392 1887 
Q 2109 2072 1606 2072 
Q 1550 2072 1492 2070 
Q 1434 2069 1375 2066 
L 1375 2563 
Q 1463 2553 1522 2550 
Q 1581 2547 1650 2547 
Q 1966 2547 2169 2647 
Q 2525 2822 2525 3272 
Q 2525 3606 2287 3787 
Q 2050 3969 1734 3969 
Q 1172 3969 956 3594 
Q 838 3388 822 3006 
L 266 3006 
Q 266 3506 466 3856 
Q 809 4481 1675 4481 
Q 2359 4481 2734 4176 
Q 3109 3872 3109 3294 
Q 3109 2881 2888 2625 
Q 2750 2466 2531 2375 
Q 2884 2278 3082 2001 
Q 3281 1725 3281 1325 
Q 3281 684 2859 281 
Q 2438 -122 1663 -122 
z
" transform="scale(0.015625)"/>
       </defs>
       <use xlink:href="#Helvetica-16"/>
      </g>
     </g>
    </g>
    <g id="ytick_11">
     <g id="line2d_27">
      <path d="M 507.491453 167.585143 
L 892.78875 167.585143 
" clip-path="url(#p2c8e5016d8)" style="fill: none; stroke: #e6e9ee; stroke-linecap: square"/>
     </g>
     <g id="line2d_28"/>
     <g id="text_24">
      <!-- 4 -->
      <g style="fill: #1a1d23" transform="translate(497.874421 171.710143) scale(0.11 -0.11)">
       <defs>
        <path id="Helvetica-17" d="M 2116 1584 
L 2116 3613 
L 681 1584 
L 2116 1584 
z
M 2125 0 
L 2125 1094 
L 163 1094 
L 163 1644 
L 2213 4488 
L 2688 4488 
L 2688 1584 
L 3347 1584 
L 3347 1094 
L 2688 1094 
L 2688 0 
L 2125 0 
z
" transform="scale(0.015625)"/>
       </defs>
       <use xlink:href="#Helvetica-17"/>
      </g>
     </g>
    </g>
    <g id="ytick_12">
     <g id="line2d_29">
      <path d="M 507.491453 113.379429 
L 892.78875 113.379429 
" clip-path="url(#p2c8e5016d8)" style="fill: none; stroke: #e6e9ee; stroke-linecap: square"/>
     </g>
     <g id="line2d_30"/>
     <g id="text_25">
      <!-- 5 -->
      <g style="fill: #1a1d23" transform="translate(497.874421 117.504429) scale(0.11 -0.11)">
       <use xlink:href="#Helvetica-18"/>
      </g>
     </g>
    </g>
    <g id="text_26">
     <!-- Hardening fixes that landed  (out of 5) -->
     <g style="fill: #1a1d23" transform="translate(491.440671 324.653016) rotate(-90) scale(0.11 -0.11)">
      <defs>
       <path id="Helvetica-2b" d="M 503 4591 
L 1131 4591 
L 1131 2694 
L 3519 2694 
L 3519 4591 
L 4147 4591 
L 4147 0 
L 3519 0 
L 3519 2147 
L 1131 2147 
L 1131 0 
L 503 0 
L 503 4591 
z
" transform="scale(0.015625)"/>
       <path id="Helvetica-c0" d="M 553 3856 
Q 566 4206 675 4369 
Q 872 4656 1434 4656 
Q 1488 4656 1544 4653 
Q 1600 4650 1672 4644 
L 1672 4131 
Q 1584 4138 1545 4139 
Q 1506 4141 1472 4141 
Q 1216 4141 1166 4008 
Q 1116 3875 1116 3331 
L 1672 3331 
L 1672 2888 
L 1109 2888 
L 1109 0 
L 553 0 
L 553 2888 
L 88 2888 
L 88 3331 
L 553 3331 
L 553 3856 
z
M 2213 3953 
L 2213 4591 
L 2775 4591 
L 2775 3953 
L 2213 3953 
z
M 2213 3331 
L 2775 3331 
L 2775 0 
L 2213 0 
L 2213 3331 
z
" transform="scale(0.015625)"/>
      </defs>
      <use xlink:href="#Helvetica-2b"/>
      <use xlink:href="#Helvetica-44" transform="translate(72.21875 0)"/>
      <use xlink:href="#Helvetica-55" transform="translate(127.828125 0)"/>
      <use xlink:href="#Helvetica-47" transform="translate(161.125 0)"/>
      <use xlink:href="#Helvetica-48" transform="translate(216.734375 0)"/>
      <use xlink:href="#Helvetica-51" transform="translate(272.34375 0)"/>
      <use xlink:href="#Helvetica-4c" transform="translate(327.953125 0)"/>
      <use xlink:href="#Helvetica-51" transform="translate(350.171875 0)"/>
      <use xlink:href="#Helvetica-4a" transform="translate(405.78125 0)"/>
      <use xlink:href="#Helvetica-3" transform="translate(461.390625 0)"/>
      <use xlink:href="#Helvetica-c0" transform="translate(489.171875 0)"/>
      <use xlink:href="#Helvetica-5b" transform="translate(539.171875 0)"/>
      <use xlink:href="#Helvetica-48" transform="translate(589.171875 0)"/>
      <use xlink:href="#Helvetica-56" transform="translate(644.78125 0)"/>
      <use xlink:href="#Helvetica-3" transform="translate(694.78125 0)"/>
      <use xlink:href="#Helvetica-57" transform="translate(722.5625 0)"/>
      <use xlink:href="#Helvetica-4b" transform="translate(750.34375 0)"/>
      <use xlink:href="#Helvetica-44" transform="translate(805.953125 0)"/>
      <use xlink:href="#Helvetica-57" transform="translate(861.5625 0)"/>
      <use xlink:href="#Helvetica-3" transform="translate(889.34375 0)"/>
      <use xlink:href="#Helvetica-4f" transform="translate(917.125 0)"/>
      <use xlink:href="#Helvetica-44" transform="translate(939.34375 0)"/>
      <use xlink:href="#Helvetica-51" transform="translate(994.953125 0)"/>
      <use xlink:href="#Helvetica-47" transform="translate(1050.5625 0)"/>
      <use xlink:href="#Helvetica-48" transform="translate(1106.171875 0)"/>
      <use xlink:href="#Helvetica-47" transform="translate(1161.78125 0)"/>
      <use xlink:href="#Helvetica-3" transform="translate(1217.390625 0)"/>
      <use xlink:href="#Helvetica-3" transform="translate(1245.171875 0)"/>
      <use xlink:href="#Helvetica-b" transform="translate(1272.953125 0)"/>
      <use xlink:href="#Helvetica-52" transform="translate(1306.25 0)"/>
      <use xlink:href="#Helvetica-58" transform="translate(1361.859375 0)"/>
      <use xlink:href="#Helvetica-57" transform="translate(1417.46875 0)"/>
      <use xlink:href="#Helvetica-3" transform="translate(1445.25 0)"/>
      <use xlink:href="#Helvetica-52" transform="translate(1473.03125 0)"/>
      <use xlink:href="#Helvetica-49" transform="translate(1528.640625 0)"/>
      <use xlink:href="#Helvetica-3" transform="translate(1556.421875 0)"/>
      <use xlink:href="#Helvetica-18" transform="translate(1584.203125 0)"/>
      <use xlink:href="#Helvetica-c" transform="translate(1639.8125 0)"/>
     </g>
    </g>
   </g>
   <g id="patch_9">
    <path d="M 525.004966 384.408 
L 600.553456 384.408 
L 600.553456 113.379429 
L 525.004966 113.379429 
z
" clip-path="url(#p2c8e5016d8)" style="fill: #2a9d8f"/>
   </g>
   <g id="patch_10">
    <path d="M 662.365857 384.408 
L 737.914346 384.408 
L 737.914346 330.202286 
L 662.365857 330.202286 
z
" clip-path="url(#p2c8e5016d8)" style="fill: #e9a12e"/>
   </g>
   <g id="patch_11">
    <path d="M 799.726747 384.408 
L 875.275236 384.408 
L 875.275236 384.408 
L 799.726747 384.408 
z
" clip-path="url(#p2c8e5016d8)" style="fill: #d1495b"/>
   </g>
   <g id="patch_12">
    <path d="M 507.491453 384.408 
L 507.491453 80.856 
" style="fill: none; stroke: #5a6472; stroke-width: 0.9; stroke-linejoin: miter; stroke-linecap: square"/>
   </g>
   <g id="patch_13">
    <path d="M 507.491453 384.408 
L 892.78875 384.408 
" style="fill: none; stroke: #5a6472; stroke-width: 0.9; stroke-linejoin: miter; stroke-linecap: square"/>
   </g>
   <g id="text_27">
    <!-- 5/5 -->
    <g style="fill: #1a1d23" transform="translate(554.786711 106.004756) scale(0.115 -0.115)">
     <defs>
      <path id="Helvetica-Bold-12" d="M -350 0 
L 1434 4747 
L 2175 4747 
L 384 0 
L -350 0 
z
" transform="scale(0.015625)"/>
     </defs>
     <use xlink:href="#Helvetica-Bold-18"/>
     <use xlink:href="#Helvetica-Bold-12" transform="translate(55.609375 0)"/>
     <use xlink:href="#Helvetica-Bold-18" transform="translate(83.390625 0)"/>
    </g>
   </g>
   <g id="text_28">
    <!-- 1/5 -->
    <g style="fill: #1a1d23" transform="translate(692.147601 322.827613) scale(0.115 -0.115)">
     <defs>
      <path id="Helvetica-Bold-14" d="M 2422 0 
L 1509 0 
L 1509 3125 
L 444 3125 
L 444 3731 
Q 866 3750 1034 3788 
Q 1303 3847 1472 4025 
Q 1588 4147 1647 4350 
Q 1681 4472 1681 4531 
L 2422 4531 
L 2422 0 
z
" transform="scale(0.015625)"/>
     </defs>
     <use xlink:href="#Helvetica-Bold-14"/>
     <use xlink:href="#Helvetica-Bold-12" transform="translate(55.609375 0)"/>
     <use xlink:href="#Helvetica-Bold-18" transform="translate(83.390625 0)"/>
    </g>
   </g>
   <g id="text_29">
    <!-- 0/5 -->
    <g style="fill: #1a1d23" transform="translate(829.508492 377.033327) scale(0.115 -0.115)">
     <use xlink:href="#Helvetica-Bold-13"/>
     <use xlink:href="#Helvetica-Bold-12" transform="translate(55.609375 0)"/>
     <use xlink:href="#Helvetica-Bold-18" transform="translate(83.390625 0)"/>
    </g>
   </g>
   <g id="text_30">
    <!-- ...but correctness collapses -->
    <g style="fill: #5a6472" transform="translate(624.408109 70.856) scale(0.115 -0.115)">
     <defs>
      <path id="Helvetica-Bold-45" d="M 2266 -91 
Q 1844 -91 1588 78 
Q 1434 178 1256 428 
L 1256 0 
L 384 0 
L 384 4600 
L 1272 4600 
L 1272 2963 
Q 1441 3200 1644 3325 
Q 1884 3481 2256 3481 
Q 2928 3481 3308 2997 
Q 3688 2513 3688 1747 
Q 3688 953 3313 431 
Q 2938 -91 2266 -91 
z
M 2753 1653 
Q 2753 2016 2659 2253 
Q 2481 2703 2003 2703 
Q 1519 2703 1338 2263 
Q 1244 2028 1244 1656 
Q 1244 1219 1437 931 
Q 1631 644 2028 644 
Q 2372 644 2562 922 
Q 2753 1200 2753 1653 
z
" transform="scale(0.015625)"/>
      <path id="Helvetica-Bold-58" d="M 2600 481 
Q 2588 466 2538 387 
Q 2488 309 2419 250 
Q 2209 63 2014 -6 
Q 1819 -75 1556 -75 
Q 800 -75 538 469 
Q 391 769 391 1353 
L 391 3406 
L 1303 3406 
L 1303 1353 
Q 1303 1063 1372 916 
Q 1494 656 1850 656 
Q 2306 656 2475 1025 
Q 2563 1225 2563 1553 
L 2563 3406 
L 3466 3406 
L 3466 0 
L 2600 0 
L 2600 481 
z
" transform="scale(0.015625)"/>
      <path id="Helvetica-Bold-46" d="M 3363 2184 
L 2450 2184 
Q 2425 2375 2322 2528 
Q 2172 2734 1856 2734 
Q 1406 2734 1241 2288 
Q 1153 2050 1153 1656 
Q 1153 1281 1241 1053 
Q 1400 628 1841 628 
Q 2153 628 2284 797 
Q 2416 966 2444 1234 
L 3353 1234 
Q 3322 828 3059 466 
Q 2641 -119 1819 -119 
Q 997 -119 609 368 
Q 222 856 222 1634 
Q 222 2513 650 3000 
Q 1078 3488 1831 3488 
Q 2472 3488 2880 3200 
Q 3288 2913 3363 2184 
z
" transform="scale(0.015625)"/>
      <path id="Helvetica-Bold-52" d="M 3256 2975 
Q 3688 2434 3688 1697 
Q 3688 947 3256 414 
Q 2825 -119 1947 -119 
Q 1069 -119 637 414 
Q 206 947 206 1697 
Q 206 2434 637 2975 
Q 1069 3516 1947 3516 
Q 2825 3516 3256 2975 
z
M 1944 2763 
Q 1553 2763 1342 2486 
Q 1131 2209 1131 1697 
Q 1131 1184 1342 906 
Q 1553 628 1944 628 
Q 2334 628 2543 906 
Q 2753 1184 2753 1697 
Q 2753 2209 2543 2486 
Q 2334 2763 1944 2763 
z
" transform="scale(0.015625)"/>
      <path id="Helvetica-Bold-51" d="M 2019 2747 
Q 1566 2747 1397 2363 
Q 1309 2159 1309 1844 
L 1309 0 
L 422 0 
L 422 3400 
L 1281 3400 
L 1281 2903 
Q 1453 3166 1606 3281 
Q 1881 3488 2303 3488 
Q 2831 3488 3167 3211 
Q 3503 2934 3503 2294 
L 3503 0 
L 2591 0 
L 2591 2072 
Q 2591 2341 2519 2484 
Q 2388 2747 2019 2747 
z
" transform="scale(0.015625)"/>
      <path id="Helvetica-Bold-56" d="M 2763 3250 
Q 3163 2994 3222 2369 
L 2331 2369 
Q 2313 2541 2234 2641 
Q 2088 2822 1734 2822 
Q 1444 2822 1320 2731 
Q 1197 2641 1197 2519 
Q 1197 2366 1328 2297 
Q 1459 2225 2256 2050 
Q 2788 1925 3053 1672 
Q 3316 1416 3316 1031 
Q 3316 525 2939 204 
Q 2563 -116 1775 -116 
Q 972 -116 589 223 
Q 206 563 206 1088 
L 1109 1088 
Q 1138 850 1231 750 
Q 1397 572 1844 572 
Q 2106 572 2261 650 
Q 2416 728 2416 884 
Q 2416 1034 2291 1113 
Q 2166 1191 1363 1381 
Q 784 1525 547 1741 
Q 309 1953 309 2353 
Q 309 2825 679 3164 
Q 1050 3503 1722 3503 
Q 2359 3503 2763 3250 
z
" transform="scale(0.015625)"/>
      <path id="Helvetica-Bold-4f" d="M 434 4606 
L 1325 4606 
L 1325 0 
L 434 0 
L 434 4606 
z
" transform="scale(0.015625)"/>
     </defs>
     <use xlink:href="#Helvetica-Bold-11"/>
     <use xlink:href="#Helvetica-Bold-11" transform="translate(27.78125 0)"/>
     <use xlink:href="#Helvetica-Bold-11" transform="translate(55.5625 0)"/>
     <use xlink:href="#Helvetica-Bold-45" transform="translate(83.34375 0)"/>
     <use xlink:href="#Helvetica-Bold-58" transform="translate(144.421875 0)"/>
     <use xlink:href="#Helvetica-Bold-57" transform="translate(205.5 0)"/>
     <use xlink:href="#Helvetica-Bold-3" transform="translate(238.796875 0)"/>
     <use xlink:href="#Helvetica-Bold-46" transform="translate(266.578125 0)"/>
     <use xlink:href="#Helvetica-Bold-52" transform="translate(322.1875 0)"/>
     <use xlink:href="#Helvetica-Bold-55" transform="translate(383.265625 0)"/>
     <use xlink:href="#Helvetica-Bold-55" transform="translate(422.1875 0)"/>
     <use xlink:href="#Helvetica-Bold-48" transform="translate(461.109375 0)"/>
     <use xlink:href="#Helvetica-Bold-46" transform="translate(516.71875 0)"/>
     <use xlink:href="#Helvetica-Bold-57" transform="translate(572.328125 0)"/>
     <use xlink:href="#Helvetica-Bold-51" transform="translate(605.625 0)"/>
     <use xlink:href="#Helvetica-Bold-48" transform="translate(666.703125 0)"/>
     <use xlink:href="#Helvetica-Bold-56" transform="translate(722.3125 0)"/>
     <use xlink:href="#Helvetica-Bold-56" transform="translate(777.921875 0)"/>
     <use xlink:href="#Helvetica-Bold-3" transform="translate(833.53125 0)"/>
     <use xlink:href="#Helvetica-Bold-46" transform="translate(861.3125 0)"/>
     <use xlink:href="#Helvetica-Bold-52" transform="translate(916.921875 0)"/>
     <use xlink:href="#Helvetica-Bold-4f" transform="translate(978 0)"/>
     <use xlink:href="#Helvetica-Bold-4f" transform="translate(1005.78125 0)"/>
     <use xlink:href="#Helvetica-Bold-44" transform="translate(1033.5625 0)"/>
     <use xlink:href="#Helvetica-Bold-53" transform="translate(1089.171875 0)"/>
     <use xlink:href="#Helvetica-Bold-56" transform="translate(1150.25 0)"/>
     <use xlink:href="#Helvetica-Bold-48" transform="translate(1205.859375 0)"/>
     <use xlink:href="#Helvetica-Bold-56" transform="translate(1261.46875 0)"/>
    </g>
   </g>
  </g>
  <g id="text_31">
   <!-- On a small model, cost-cutting is capability-gated -->
   <g style="fill: #1a1d23" transform="translate(245.856687 19.95) scale(0.17 -0.17)">
    <defs>
     <path id="Helvetica-Bold-32" d="M 2525 -128 
Q 1538 -128 1016 409 
Q 316 1069 316 2309 
Q 316 3575 1016 4209 
Q 1538 4747 2525 4747 
Q 3513 4747 4034 4209 
Q 4731 3575 4731 2309 
Q 4731 1069 4034 409 
Q 3513 -128 2525 -128 
z
M 3434 1109 
Q 3769 1531 3769 2309 
Q 3769 3084 3433 3507 
Q 3097 3931 2525 3931 
Q 1953 3931 1612 3509 
Q 1272 3088 1272 2309 
Q 1272 1531 1612 1109 
Q 1953 688 2525 688 
Q 3097 688 3434 1109 
z
" transform="scale(0.015625)"/>
     <path id="Helvetica-Bold-50" d="M 2328 2469 
Q 2216 2716 1888 2716 
Q 1506 2716 1375 2469 
Q 1303 2328 1303 2050 
L 1303 0 
L 400 0 
L 400 3400 
L 1266 3400 
L 1266 2903 
Q 1431 3169 1578 3281 
Q 1838 3481 2250 3481 
Q 2641 3481 2881 3309 
Q 3075 3150 3175 2900 
Q 3350 3200 3609 3341 
Q 3884 3481 4222 3481 
Q 4447 3481 4665 3393 
Q 4884 3306 5063 3088 
Q 5206 2909 5256 2650 
Q 5288 2478 5288 2147 
L 5281 0 
L 4369 0 
L 4369 2169 
Q 4369 2363 4306 2488 
Q 4188 2725 3869 2725 
Q 3500 2725 3359 2419 
Q 3288 2256 3288 2028 
L 3288 0 
L 2391 0 
L 2391 2028 
Q 2391 2331 2328 2469 
z
" transform="scale(0.015625)"/>
     <path id="Helvetica-Bold-f" d="M 1275 -319 
Q 1219 -550 1066 -719 
Q 900 -900 676 -992 
Q 453 -1084 369 -1084 
L 369 -741 
Q 638 -666 764 -491 
Q 891 -316 909 0 
L 369 0 
L 369 931 
L 1331 931 
L 1331 125 
Q 1331 -88 1275 -319 
z
" transform="scale(0.015625)"/>
     <path id="Helvetica-Bold-5c" d="M 1800 894 
L 2503 3406 
L 3450 3406 
L 2281 56 
Q 1944 -913 1747 -1145 
Q 1550 -1378 959 -1378 
Q 841 -1378 769 -1376 
Q 697 -1375 553 -1366 
L 553 -653 
L 666 -659 
Q 797 -666 915 -650 
Q 1034 -634 1116 -578 
Q 1194 -525 1261 -356 
Q 1328 -188 1316 -150 
L 66 3406 
L 1056 3406 
L 1800 894 
z
" transform="scale(0.015625)"/>
    </defs>
    <use xlink:href="#Helvetica-Bold-32"/>
    <use xlink:href="#Helvetica-Bold-51" transform="translate(77.78125 0)"/>
    <use xlink:href="#Helvetica-Bold-3" transform="translate(138.859375 0)"/>
    <use xlink:href="#Helvetica-Bold-44" transform="translate(166.640625 0)"/>
    <use xlink:href="#Helvetica-Bold-3" transform="translate(222.25 0)"/>
    <use xlink:href="#Helvetica-Bold-56" transform="translate(250.03125 0)"/>
    <use xlink:href="#Helvetica-Bold-50" transform="translate(305.640625 0)"/>
    <use xlink:href="#Helvetica-Bold-44" transform="translate(394.5625 0)"/>
    <use xlink:href="#Helvetica-Bold-4f" transform="translate(450.171875 0)"/>
    <use xlink:href="#Helvetica-Bold-4f" transform="translate(477.953125 0)"/>
    <use xlink:href="#Helvetica-Bold-3" transform="translate(505.734375 0)"/>
    <use xlink:href="#Helvetica-Bold-50" transform="translate(533.515625 0)"/>
    <use xlink:href="#Helvetica-Bold-52" transform="translate(622.4375 0)"/>
    <use xlink:href="#Helvetica-Bold-47" transform="translate(683.515625 0)"/>
    <use xlink:href="#Helvetica-Bold-48" transform="translate(744.59375 0)"/>
    <use xlink:href="#Helvetica-Bold-4f" transform="translate(800.203125 0)"/>
    <use xlink:href="#Helvetica-Bold-f" transform="translate(827.984375 0)"/>
    <use xlink:href="#Helvetica-Bold-3" transform="translate(855.765625 0)"/>
    <use xlink:href="#Helvetica-Bold-46" transform="translate(883.546875 0)"/>
    <use xlink:href="#Helvetica-Bold-52" transform="translate(939.15625 0)"/>
    <use xlink:href="#Helvetica-Bold-56" transform="translate(1000.234375 0)"/>
    <use xlink:href="#Helvetica-Bold-57" transform="translate(1055.84375 0)"/>
    <use xlink:href="#Helvetica-Bold-10" transform="translate(1089.140625 0)"/>
    <use xlink:href="#Helvetica-Bold-46" transform="translate(1122.4375 0)"/>
    <use xlink:href="#Helvetica-Bold-58" transform="translate(1178.046875 0)"/>
    <use xlink:href="#Helvetica-Bold-57" transform="translate(1239.125 0)"/>
    <use xlink:href="#Helvetica-Bold-57" transform="translate(1272.421875 0)"/>
    <use xlink:href="#Helvetica-Bold-4c" transform="translate(1305.71875 0)"/>
    <use xlink:href="#Helvetica-Bold-51" transform="translate(1333.5 0)"/>
    <use xlink:href="#Helvetica-Bold-4a" transform="translate(1394.578125 0)"/>
    <use xlink:href="#Helvetica-Bold-3" transform="translate(1455.65625 0)"/>
    <use xlink:href="#Helvetica-Bold-4c" transform="translate(1483.4375 0)"/>
    <use xlink:href="#Helvetica-Bold-56" transform="translate(1511.21875 0)"/>
    <use xlink:href="#Helvetica-Bold-3" transform="translate(1566.828125 0)"/>
    <use xlink:href="#Helvetica-Bold-46" transform="translate(1594.609375 0)"/>
    <use xlink:href="#Helvetica-Bold-44" transform="translate(1650.21875 0)"/>
    <use xlink:href="#Helvetica-Bold-53" transform="translate(1705.828125 0)"/>
    <use xlink:href="#Helvetica-Bold-44" transform="translate(1766.90625 0)"/>
    <use xlink:href="#Helvetica-Bold-45" transform="translate(1822.515625 0)"/>
    <use xlink:href="#Helvetica-Bold-4c" transform="translate(1883.59375 0)"/>
    <use xlink:href="#Helvetica-Bold-4f" transform="translate(1911.375 0)"/>
    <use xlink:href="#Helvetica-Bold-4c" transform="translate(1939.15625 0)"/>
    <use xlink:href="#Helvetica-Bold-57" transform="translate(1966.9375 0)"/>
    <use xlink:href="#Helvetica-Bold-5c" transform="translate(2000.234375 0)"/>
    <use xlink:href="#Helvetica-Bold-10" transform="translate(2055.84375 0)"/>
    <use xlink:href="#Helvetica-Bold-4a" transform="translate(2089.140625 0)"/>
    <use xlink:href="#Helvetica-Bold-44" transform="translate(2150.21875 0)"/>
    <use xlink:href="#Helvetica-Bold-57" transform="translate(2205.828125 0)"/>
    <use xlink:href="#Helvetica-Bold-48" transform="translate(2239.125 0)"/>
    <use xlink:href="#Helvetica-Bold-47" transform="translate(2294.734375 0)"/>
   </g>
  </g>
  <g id="text_32">
   <!-- gemini-3.1-flash-lite, same 5 hardening fixes.   Trimming context cuts tokens 66-78% but drops fixes from 5/5 to 0/5. -->
   <g style="fill: #5a6472" transform="translate(177.363914 41.859) scale(0.105 -0.105)">
    <defs>
     <path id="Helvetica-10" d="M 266 2072 
L 1834 2072 
L 1834 1494 
L 266 1494 
L 266 2072 
z
" transform="scale(0.015625)"/>
     <path id="Helvetica-11" d="M 547 681 
L 1200 681 
L 1200 0 
L 547 0 
L 547 681 
z
" transform="scale(0.015625)"/>
     <path id="Helvetica-c1" d="M 2763 0 
L 2200 0 
L 2200 4591 
L 2763 4591 
L 2763 0 
z
M 1109 0 
L 553 0 
L 553 2888 
L 88 2888 
L 88 3331 
L 553 3331 
L 553 3925 
Q 553 4297 783 4476 
Q 1013 4656 1397 4656 
Q 1472 4656 1533 4651 
Q 1594 4647 1672 4634 
L 1672 4131 
Q 1584 4138 1545 4139 
Q 1506 4141 1472 4141 
Q 1234 4141 1156 4003 
Q 1109 3925 1109 3747 
L 1109 3331 
L 1672 3331 
L 1672 2888 
L 1109 2888 
L 1109 0 
z
" transform="scale(0.015625)"/>
     <path id="Helvetica-f" d="M 531 -653 
Q 747 -616 834 -350 
Q 881 -209 881 -78 
Q 881 -56 879 -39 
Q 878 -22 872 0 
L 531 0 
L 531 681 
L 1200 681 
L 1200 50 
Q 1200 -322 1050 -603 
Q 900 -884 531 -950 
L 531 -653 
z
" transform="scale(0.015625)"/>
     <path id="Helvetica-19" d="M 1872 4494 
Q 2622 4494 2917 4105 
Q 3213 3716 3213 3303 
L 2656 3303 
Q 2606 3569 2497 3719 
Q 2294 4000 1881 4000 
Q 1409 4000 1131 3564 
Q 853 3128 822 2316 
Q 1016 2600 1309 2741 
Q 1578 2866 1909 2866 
Q 2472 2866 2890 2506 
Q 3309 2147 3309 1434 
Q 3309 825 2912 354 
Q 2516 -116 1781 -116 
Q 1153 -116 697 361 
Q 241 838 241 1966 
Q 241 2800 444 3381 
Q 834 4494 1872 4494 
z
M 1831 384 
Q 2275 384 2495 682 
Q 2716 981 2716 1388 
Q 2716 1731 2519 2042 
Q 2322 2353 1803 2353 
Q 1441 2353 1167 2112 
Q 894 1872 894 1388 
Q 894 963 1142 673 
Q 1391 384 1831 384 
z
" transform="scale(0.015625)"/>
     <path id="Helvetica-1a" d="M 3347 4400 
L 3347 3909 
Q 3131 3700 2773 3181 
Q 2416 2663 2141 2063 
Q 1869 1478 1728 997 
Q 1638 688 1494 0 
L 872 0 
Q 1084 1281 1809 2550 
Q 2238 3294 2709 3834 
L 234 3834 
L 234 4400 
L 3347 4400 
z
" transform="scale(0.015625)"/>
     <path id="Helvetica-1b" d="M 1741 2600 
Q 2113 2600 2322 2808 
Q 2531 3016 2531 3303 
Q 2531 3553 2331 3762 
Q 2131 3972 1722 3972 
Q 1316 3972 1134 3762 
Q 953 3553 953 3272 
Q 953 2956 1187 2778 
Q 1422 2600 1741 2600 
z
M 1775 384 
Q 2166 384 2423 595 
Q 2681 806 2681 1225 
Q 2681 1659 2415 1884 
Q 2150 2109 1734 2109 
Q 1331 2109 1076 1879 
Q 822 1650 822 1244 
Q 822 894 1055 639 
Q 1288 384 1775 384 
z
M 975 2384 
Q 741 2484 609 2619 
Q 363 2869 363 3269 
Q 363 3769 725 4128 
Q 1088 4488 1753 4488 
Q 2397 4488 2762 4148 
Q 3128 3809 3128 3356 
Q 3128 2938 2916 2678 
Q 2797 2531 2547 2391 
Q 2825 2263 2984 2097 
Q 3281 1784 3281 1284 
Q 3281 694 2884 283 
Q 2488 -128 1763 -128 
Q 1109 -128 657 226 
Q 206 581 206 1256 
Q 206 1653 400 1942 
Q 594 2231 975 2384 
z
" transform="scale(0.015625)"/>
     <path id="Helvetica-8" d="M 4363 2175 
Q 4813 2175 5131 1856 
Q 5450 1538 5450 1088 
Q 5450 638 5131 319 
Q 4813 0 4363 0 
Q 3909 0 3590 319 
Q 3272 638 3272 1088 
Q 3272 1538 3590 1856 
Q 3909 2175 4363 2175 
z
M 3909 4456 
L 4256 4456 
L 1753 -119 
L 1406 -119 
L 3909 4456 
z
M 1294 2606 
Q 1563 2606 1752 2795 
Q 1941 2984 1941 3250 
Q 1941 3516 1752 3705 
Q 1563 3894 1294 3894 
Q 1028 3894 839 3706 
Q 650 3519 650 3250 
Q 650 2984 839 2795 
Q 1028 2606 1294 2606 
z
M 1294 4341 
Q 1747 4341 2065 4020 
Q 2384 3700 2384 3250 
Q 2384 2800 2065 2481 
Q 1747 2163 1294 2163 
Q 844 2163 525 2481 
Q 206 2800 206 3250 
Q 206 3700 525 4020 
Q 844 4341 1294 4341 
z
M 4363 444 
Q 4628 444 4817 633 
Q 5006 822 5006 1088 
Q 5006 1353 4817 1542 
Q 4628 1731 4363 1731 
Q 4094 1731 3905 1542 
Q 3716 1353 3716 1088 
Q 3716 822 3905 633 
Q 4094 444 4363 444 
z
" transform="scale(0.015625)"/>
     <path id="Helvetica-45" d="M 369 4606 
L 916 4606 
L 916 2941 
Q 1100 3181 1356 3307 
Q 1613 3434 1913 3434 
Q 2538 3434 2927 3004 
Q 3316 2575 3316 1738 
Q 3316 944 2931 419 
Q 2547 -106 1866 -106 
Q 1484 -106 1222 78 
Q 1066 188 888 428 
L 888 0 
L 369 0 
L 369 4606 
z
M 1831 391 
Q 2288 391 2514 753 
Q 2741 1116 2741 1709 
Q 2741 2238 2514 2584 
Q 2288 2931 1847 2931 
Q 1463 2931 1173 2647 
Q 884 2363 884 1709 
Q 884 1238 1003 944 
Q 1225 391 1831 391 
z
" transform="scale(0.015625)"/>
     <path id="Helvetica-12" d="M 1456 4591 
L 1931 4591 
L 475 0 
L 0 0 
L 1456 4591 
z
" transform="scale(0.015625)"/>
    </defs>
    <use xlink:href="#Helvetica-4a"/>
    <use xlink:href="#Helvetica-48" transform="translate(55.609375 0)"/>
    <use xlink:href="#Helvetica-50" transform="translate(111.21875 0)"/>
    <use xlink:href="#Helvetica-4c" transform="translate(194.515625 0)"/>
    <use xlink:href="#Helvetica-51" transform="translate(216.734375 0)"/>
    <use xlink:href="#Helvetica-4c" transform="translate(272.34375 0)"/>
    <use xlink:href="#Helvetica-10" transform="translate(294.5625 0)"/>
    <use xlink:href="#Helvetica-16" transform="translate(327.859375 0)"/>
    <use xlink:href="#Helvetica-11" transform="translate(383.46875 0)"/>
    <use xlink:href="#Helvetica-14" transform="translate(411.25 0)"/>
    <use xlink:href="#Helvetica-10" transform="translate(466.859375 0)"/>
    <use xlink:href="#Helvetica-c1" transform="translate(500.15625 0)"/>
    <use xlink:href="#Helvetica-44" transform="translate(550.15625 0)"/>
    <use xlink:href="#Helvetica-56" transform="translate(605.765625 0)"/>
    <use xlink:href="#Helvetica-4b" transform="translate(655.765625 0)"/>
    <use xlink:href="#Helvetica-10" transform="translate(711.375 0)"/>
    <use xlink:href="#Helvetica-4f" transform="translate(744.671875 0)"/>
    <use xlink:href="#Helvetica-4c" transform="translate(766.890625 0)"/>
    <use xlink:href="#Helvetica-57" transform="translate(789.109375 0)"/>
    <use xlink:href="#Helvetica-48" transform="translate(816.890625 0)"/>
    <use xlink:href="#Helvetica-f" transform="translate(872.5 0)"/>
    <use xlink:href="#Helvetica-3" transform="translate(900.28125 0)"/>
    <use xlink:href="#Helvetica-56" transform="translate(928.0625 0)"/>
    <use xlink:href="#Helvetica-44" transform="translate(978.0625 0)"/>
    <use xlink:href="#Helvetica-50" transform="translate(1033.671875 0)"/>
    <use xlink:href="#Helvetica-48" transform="translate(1116.96875 0)"/>
    <use xlink:href="#Helvetica-3" transform="translate(1172.578125 0)"/>
    <use xlink:href="#Helvetica-18" transform="translate(1200.359375 0)"/>
    <use xlink:href="#Helvetica-3" transform="translate(1255.96875 0)"/>
    <use xlink:href="#Helvetica-4b" transform="translate(1283.75 0)"/>
    <use xlink:href="#Helvetica-44" transform="translate(1339.359375 0)"/>
    <use xlink:href="#Helvetica-55" transform="translate(1394.96875 0)"/>
    <use xlink:href="#Helvetica-47" transform="translate(1428.265625 0)"/>
    <use xlink:href="#Helvetica-48" transform="translate(1483.875 0)"/>
    <use xlink:href="#Helvetica-51" transform="translate(1539.484375 0)"/>
    <use xlink:href="#Helvetica-4c" transform="translate(1595.09375 0)"/>
    <use xlink:href="#Helvetica-51" transform="translate(1617.3125 0)"/>
    <use xlink:href="#Helvetica-4a" transform="translate(1672.921875 0)"/>
    <use xlink:href="#Helvetica-3" transform="translate(1728.53125 0)"/>
    <use xlink:href="#Helvetica-c0" transform="translate(1756.3125 0)"/>
    <use xlink:href="#Helvetica-5b" transform="translate(1806.3125 0)"/>
    <use xlink:href="#Helvetica-48" transform="translate(1856.3125 0)"/>
    <use xlink:href="#Helvetica-56" transform="translate(1911.921875 0)"/>
    <use xlink:href="#Helvetica-11" transform="translate(1961.921875 0)"/>
    <use xlink:href="#Helvetica-3" transform="translate(1989.703125 0)"/>
    <use xlink:href="#Helvetica-3" transform="translate(2017.484375 0)"/>
    <use xlink:href="#Helvetica-3" transform="translate(2045.265625 0)"/>
    <use xlink:href="#Helvetica-37" transform="translate(2071.296875 0)"/>
    <use xlink:href="#Helvetica-55" transform="translate(2128.71875 0)"/>
    <use xlink:href="#Helvetica-4c" transform="translate(2162.015625 0)"/>
    <use xlink:href="#Helvetica-50" transform="translate(2184.234375 0)"/>
    <use xlink:href="#Helvetica-50" transform="translate(2267.53125 0)"/>
    <use xlink:href="#Helvetica-4c" transform="translate(2350.828125 0)"/>
    <use xlink:href="#Helvetica-51" transform="translate(2373.046875 0)"/>
    <use xlink:href="#Helvetica-4a" transform="translate(2428.65625 0)"/>
    <use xlink:href="#Helvetica-3" transform="translate(2484.265625 0)"/>
    <use xlink:href="#Helvetica-46" transform="translate(2512.046875 0)"/>
    <use xlink:href="#Helvetica-52" transform="translate(2562.046875 0)"/>
    <use xlink:href="#Helvetica-51" transform="translate(2617.65625 0)"/>
    <use xlink:href="#Helvetica-57" transform="translate(2673.265625 0)"/>
    <use xlink:href="#Helvetica-48" transform="translate(2701.046875 0)"/>
    <use xlink:href="#Helvetica-5b" transform="translate(2756.65625 0)"/>
    <use xlink:href="#Helvetica-57" transform="translate(2806.65625 0)"/>
    <use xlink:href="#Helvetica-3" transform="translate(2834.4375 0)"/>
    <use xlink:href="#Helvetica-46" transform="translate(2862.21875 0)"/>
    <use xlink:href="#Helvetica-58" transform="translate(2912.21875 0)"/>
    <use xlink:href="#Helvetica-57" transform="translate(2967.828125 0)"/>
    <use xlink:href="#Helvetica-56" transform="translate(2995.609375 0)"/>
    <use xlink:href="#Helvetica-3" transform="translate(3045.609375 0)"/>
    <use xlink:href="#Helvetica-57" transform="translate(3073.390625 0)"/>
    <use xlink:href="#Helvetica-52" transform="translate(3101.171875 0)"/>
    <use xlink:href="#Helvetica-4e" transform="translate(3156.78125 0)"/>
    <use xlink:href="#Helvetica-48" transform="translate(3206.78125 0)"/>
    <use xlink:href="#Helvetica-51" transform="translate(3262.390625 0)"/>
    <use xlink:href="#Helvetica-56" transform="translate(3318 0)"/>
    <use xlink:href="#Helvetica-3" transform="translate(3368 0)"/>
    <use xlink:href="#Helvetica-19" transform="translate(3395.78125 0)"/>
    <use xlink:href="#Helvetica-19" transform="translate(3451.390625 0)"/>
    <use xlink:href="#Helvetica-10" transform="translate(3507 0)"/>
    <use xlink:href="#Helvetica-1a" transform="translate(3540.296875 0)"/>
    <use xlink:href="#Helvetica-1b" transform="translate(3595.90625 0)"/>
    <use xlink:href="#Helvetica-8" transform="translate(3651.515625 0)"/>
    <use xlink:href="#Helvetica-3" transform="translate(3740.4375 0)"/>
    <use xlink:href="#Helvetica-45" transform="translate(3768.21875 0)"/>
    <use xlink:href="#Helvetica-58" transform="translate(3823.828125 0)"/>
    <use xlink:href="#Helvetica-57" transform="translate(3879.4375 0)"/>
    <use xlink:href="#Helvetica-3" transform="translate(3907.21875 0)"/>
    <use xlink:href="#Helvetica-47" transform="translate(3935 0)"/>
    <use xlink:href="#Helvetica-55" transform="translate(3990.609375 0)"/>
    <use xlink:href="#Helvetica-52" transform="translate(4023.90625 0)"/>
    <use xlink:href="#Helvetica-53" transform="translate(4079.515625 0)"/>
    <use xlink:href="#Helvetica-56" transform="translate(4135.125 0)"/>
    <use xlink:href="#Helvetica-3" transform="translate(4185.125 0)"/>
    <use xlink:href="#Helvetica-c0" transform="translate(4212.90625 0)"/>
    <use xlink:href="#Helvetica-5b" transform="translate(4262.90625 0)"/>
    <use xlink:href="#Helvetica-48" transform="translate(4312.90625 0)"/>
    <use xlink:href="#Helvetica-56" transform="translate(4368.515625 0)"/>
    <use xlink:href="#Helvetica-3" transform="translate(4418.515625 0)"/>
    <use xlink:href="#Helvetica-49" transform="translate(4446.296875 0)"/>
    <use xlink:href="#Helvetica-55" transform="translate(4474.078125 0)"/>
    <use xlink:href="#Helvetica-52" transform="translate(4507.375 0)"/>
    <use xlink:href="#Helvetica-50" transform="translate(4562.984375 0)"/>
    <use xlink:href="#Helvetica-3" transform="translate(4646.28125 0)"/>
    <use xlink:href="#Helvetica-18" transform="translate(4674.0625 0)"/>
    <use xlink:href="#Helvetica-12" transform="translate(4729.671875 0)"/>
    <use xlink:href="#Helvetica-18" transform="translate(4757.453125 0)"/>
    <use xlink:href="#Helvetica-3" transform="translate(4813.0625 0)"/>
    <use xlink:href="#Helvetica-57" transform="translate(4840.84375 0)"/>
    <use xlink:href="#Helvetica-52" transform="translate(4868.625 0)"/>
    <use xlink:href="#Helvetica-3" transform="translate(4924.234375 0)"/>
    <use xlink:href="#Helvetica-13" transform="translate(4952.015625 0)"/>
    <use xlink:href="#Helvetica-12" transform="translate(5007.625 0)"/>
    <use xlink:href="#Helvetica-18" transform="translate(5035.40625 0)"/>
    <use xlink:href="#Helvetica-11" transform="translate(5091.015625 0)"/>
   </g>
  </g>
 </g>
 <defs>
  <clipPath id="pf7eb39bce1">
   <rect x="37.42875" y="80.856" width="385.297297" height="303.552"/>
  </clipPath>
  <clipPath id="p2c8e5016d8">
   <rect x="507.491453" y="80.856" width="385.297297" height="303.552"/>
  </clipPath>
 </defs>
</svg>
